<mxfile host="app.diagrams.net" modified="2024-05-13T14:08:07.823Z" agent="Mozilla/5.0 (Windows NT 10.0; Win64; x64) AppleWebKit/537.36 (KHTML, like Gecko) Chrome/124.0.0.0 Safari/537.36" etag="JuMp6KTp9NfWkGV5G2j6" version="24.4.0" type="device" pages="3">
  <diagram name="Trang-1" id="XDF3JEpsqb3NMs9IvwgD">
    <mxGraphModel dx="1288" dy="1382" grid="0" gridSize="10" guides="1" tooltips="1" connect="1" arrows="1" fold="1" page="1" pageScale="1" pageWidth="827" pageHeight="1169" math="0" shadow="0">
      <root>
        <mxCell id="0" />
        <mxCell id="1" parent="0" />
        <mxCell id="ufSvJkh3mHQe6z2R9wbV-11" value="" style="edgeStyle=orthogonalEdgeStyle;rounded=0;orthogonalLoop=1;jettySize=auto;html=1;" parent="1" source="ufSvJkh3mHQe6z2R9wbV-1" target="ufSvJkh3mHQe6z2R9wbV-3" edge="1">
          <mxGeometry relative="1" as="geometry" />
        </mxCell>
        <mxCell id="ufSvJkh3mHQe6z2R9wbV-1" value="Gateway1&lt;div&gt;Trung tâm giám sát 1&lt;/div&gt;" style="rounded=0;whiteSpace=wrap;html=1;" parent="1" vertex="1">
          <mxGeometry x="96" y="202" width="160" height="80" as="geometry" />
        </mxCell>
        <mxCell id="ufSvJkh3mHQe6z2R9wbV-2" value="&lt;div&gt;NODE 2&lt;/div&gt;Bộ điều khiển Control1" style="rounded=0;whiteSpace=wrap;html=1;" parent="1" vertex="1">
          <mxGeometry x="216.33" y="82" width="160" height="80" as="geometry" />
        </mxCell>
        <mxCell id="ufSvJkh3mHQe6z2R9wbV-3" value="&lt;div&gt;NODE3&lt;/div&gt;Đầu ra Output1" style="rounded=0;whiteSpace=wrap;html=1;" parent="1" vertex="1">
          <mxGeometry x="96" y="322" width="160" height="80" as="geometry" />
        </mxCell>
        <mxCell id="ufSvJkh3mHQe6z2R9wbV-4" value="Server" style="rounded=0;whiteSpace=wrap;html=1;" parent="1" vertex="1">
          <mxGeometry x="336" y="202" width="160" height="80" as="geometry" />
        </mxCell>
        <mxCell id="7qv9D-rVaQOXauU0Sa_8-1" value="" style="edgeStyle=orthogonalEdgeStyle;rounded=0;orthogonalLoop=1;jettySize=auto;html=1;" parent="1" source="7qv9D-rVaQOXauU0Sa_8-2" target="7qv9D-rVaQOXauU0Sa_8-5" edge="1">
          <mxGeometry relative="1" as="geometry" />
        </mxCell>
        <mxCell id="7qv9D-rVaQOXauU0Sa_8-2" value="Gateway2&lt;div&gt;Trung tâm giám sát 1&lt;br&gt;&lt;/div&gt;" style="rounded=0;whiteSpace=wrap;html=1;" parent="1" vertex="1">
          <mxGeometry x="576" y="202" width="160" height="80" as="geometry" />
        </mxCell>
        <mxCell id="7qv9D-rVaQOXauU0Sa_8-4" value="&lt;div&gt;NODE 4&lt;/div&gt;Bộ cảm biến Input2" style="rounded=0;whiteSpace=wrap;html=1;" parent="1" vertex="1">
          <mxGeometry x="456.33" y="82" width="160" height="80" as="geometry" />
        </mxCell>
        <mxCell id="7qv9D-rVaQOXauU0Sa_8-5" value="&lt;div&gt;NODE 6&lt;/div&gt;Đầu ra Output2" style="rounded=0;whiteSpace=wrap;html=1;" parent="1" vertex="1">
          <mxGeometry x="576" y="322" width="160" height="80" as="geometry" />
        </mxCell>
        <mxCell id="7qv9D-rVaQOXauU0Sa_8-6" value="Database" style="rounded=0;whiteSpace=wrap;html=1;" parent="1" vertex="1">
          <mxGeometry x="336" y="322" width="160" height="80" as="geometry" />
        </mxCell>
        <mxCell id="7qv9D-rVaQOXauU0Sa_8-7" value="" style="endArrow=classic;startArrow=classic;html=1;rounded=0;entryX=0;entryY=0.5;entryDx=0;entryDy=0;exitX=1;exitY=0.5;exitDx=0;exitDy=0;" parent="1" source="ufSvJkh3mHQe6z2R9wbV-4" target="7qv9D-rVaQOXauU0Sa_8-2" edge="1">
          <mxGeometry width="50" height="50" relative="1" as="geometry">
            <mxPoint x="396" y="172" as="sourcePoint" />
            <mxPoint x="566" y="132" as="targetPoint" />
          </mxGeometry>
        </mxCell>
        <mxCell id="7qv9D-rVaQOXauU0Sa_8-8" value="" style="endArrow=classic;startArrow=classic;html=1;rounded=0;entryX=0;entryY=0.5;entryDx=0;entryDy=0;exitX=1;exitY=0.5;exitDx=0;exitDy=0;" parent="1" edge="1">
          <mxGeometry width="50" height="50" relative="1" as="geometry">
            <mxPoint x="256" y="241.76" as="sourcePoint" />
            <mxPoint x="336" y="241.76" as="targetPoint" />
          </mxGeometry>
        </mxCell>
        <mxCell id="7qv9D-rVaQOXauU0Sa_8-9" value="" style="endArrow=classic;startArrow=classic;html=1;rounded=0;exitX=1;exitY=0.5;exitDx=0;exitDy=0;" parent="1" edge="1">
          <mxGeometry width="50" height="50" relative="1" as="geometry">
            <mxPoint x="415.76" y="282" as="sourcePoint" />
            <mxPoint x="415.76" y="322" as="targetPoint" />
          </mxGeometry>
        </mxCell>
        <mxCell id="7qv9D-rVaQOXauU0Sa_8-11" value="" style="shape=image;verticalLabelPosition=bottom;labelBackgroundColor=default;verticalAlign=top;aspect=fixed;imageAspect=0;image=data:image/png,iVBORw0KGgoAAAANSUhEUgAAAVIAAAEuCAYAAADcNZpVAAAAAXNSR0IArs4c6QAAAARnQU1BAACxjwv8YQUAAAAJcEhZcwAADsMAAA7DAcdvqGQAAHQCSURBVHhe7Z0FYBzH1cf/CwdiybJlyYwxc0xxmJkaZmygaVJIv7RN27RN2iRtGmZq2GFGxw45sWM7jpkZhbZYRwvfe7N3lpzaiU46lOd3Wt3d3t3uzuzMf94bVGwCEolEImkzavhZIpFIJG1ECqlEIpG0EymkEolE0k6kkEokEkk7kUIqkUgk7UQKqUQikbQTKaQSiUTSTqSQSiQSSTuRQiqRSCTtRAqpRCKRtBMppBKJRNJOpJBKJBJJO5GTlqQIkdugWAos24CtaTADFiqXbcemxevRUN1AX+JvqPTd9Cz/AqofiqKgZ8+eGH7cMOhZLpj00GyNPlXEXzrC987yB/DFCzPhrw/yHYIBC5qiQzM5bKmBoQWR1SkXvQb0Qc/RPWFnWXAbGmxdoSu2oXIaVKRt1RakkKYIkdtgmgrqynZi/ouzMP2JWajZvAN2iDKBo6IkRDZtlnidbrgsXWglZ9qMvrk44JxJmPCz8cjv3QlZudnQ3OmppHzvDISw/dutmPrbV7B+7iaodB8tKiQs1Qx/K/m4LCqc6QFVQUHvAhx65UGYcN6ByCuhuNco7jVXupZlSUcKaYoQuQ2rv1yF1//wNtbP2wjNMilh6/QZ26GUAcia4+8paVojE0loLKTCBqJCISM3C30n9kP/w/pg4mnj0WW/4vC3OLjpka3FveM/KuCqt9Vg1lNUCD44A/6qppS6V2wlq1wQiwSlkedjo+/4Xjj91p+h/9H9odtuTmKSNiCFNAWwTRZMDfWVVfjbpDvRuGkn5UsvbUb4Gx2PliLJgsoepSvTjSEnDsM5fzsLef0zONuT2++i//QhGeGmygJAhhPFVioTIg9i7Ver8MSlT8C/pQkhJRC+Zt35ApHsbNcy/rN65uIvs29GNlumSupURaQTUkhTAIPuQKjGj7uP/wc2zy2Daqvw0W3xpLhgtIfdhTRcVWE7FrflCmH0cRMw6ZzJ6Hdgb+T1yGIdpd+4yGqi36V4tNiGAZvc5/K1O/D6n1/HmveXotFvw9Uiq6WOkHLdqImi8cX43Uc3I6swI7xfEg1SSFMBcuFnPv8NnrnkZbjoLUkJaYVFz/uekFKgYZDlqZHp6crU0WVQZ4w6bjgO/fnRyOmZE7bpUjteDG5AszTYloWmxkbMe24eXv/TWzDryVQNkypCypdh0UOnGD//iXNx4BUHi/2S6JBCmgIYTSE8dfnT+O7l75pdK7orXJe4r9FSYIU/T3CBouQBh1x1CI6/9kR4SlxwuTz0CddAkhXL7Sep6pFSIckVN6Xfl+K+8+9Hw+o6hERBQXeXPuMCw460lCftnlPRTZew/+n744JnzkNWRjZFLcW9bMFvNTKmUoD62kZUbdkJdTcRkbREqVHw1b8+xz8OuhXv3fgu1ny1DraP28UNyu9CgVITtkxJkIrHdsWN7/8WYy8dR9YLN/tQ8UCFZipcNl8DF2BVW6vgr/bRe94jpSEaZGylAMGmAEI1lLnYtJL8Dwrlay5i2AGt2lKHGQ9+jUfOfBQPXPAgKpaViU/EF1IQWw9Bp+vnjl9dBnTCxfdcjIseugxur1eIKddmpAqB2gDMJiqcqGBKBYFPJ6SQpgKUai0rQDeDO9tTIuZtH03Ku8IvNm584o5SIMuT/tsW3KIeNYRAZSNWvrUMfx9zG1785VRsXrAZoYCfvm/wQUScpkKxpHCtN+cylZx4RYc7z4UDr56MK166FF0HdhVh4m5IyRRUjmHFtLieDzx+QLfodYoWTKmKFFJJ2sLiaoWAmY/MxP0n3YfXfvsGNn+/hUolBYYSgpaiZRG70SNPGI0rnr8YI04aAUs3nRFtaTrQQiKFVJLGZNgquI3JtlyoLm/AVw/Nwn8OuxvP/ekF2E1s06euMKmaiV5jBuCyF67EoRdOgaKypR3+UJJ2SCGVpBUsjxHXP0jvnU5iIbjYjycrNNgQwOw7ZuJv4/+GmY/NxM6t1WS5WjDJhW5ZbZB8NCi6jYycDJx53wU45i/HIrNrFrn4LP/SMk03pJBKOhxB1UDV8iq8+puX8NC5D2Huy3NhhRwhZXbvYpUc+Boim5qp4qQ/HIsLHr4Q2X1ySWJTfeyW5IdIIU0jmjOXzGZ7huNFgUauvgI3/H4F279eh2fO/y8eveBRVGypgGmQvWelUO8I0nbuDG/pbow9eSR+8+IvkdHNTQartErTCSmkKQEJgJgaT4PJL52dws3jz8TEF2xFsfUSvmXcEZ03fohfiD5CzubMEBXZmi2fjgwbm5GNW6Etcvw1esNdpkg5sfS1RfjPQXfjvds/QENZHe1yZmwinz98hCTBt1UDXHyLdQ0lk7vj5ml/xpDjh0OhneI+i1sfvp/hn0lSC+2vRPi1JEn4m4Io21iKjE5ZKOzVCZ5ObmQUemG6bJhuG7ZuQrUtmFaIhCFEmYkfulOTRpaLRbmLvkUPp6vQ7qXjvp71moWyqTGIrV9twHfvLUJmSQ56DOyJEOlsy9b9ZBY4iujaZcPd1YvBhwzF9o1bUbp8O91PVtnwl+JyP50IyO6cg/3Pm4Ccgkw6ze6pSPLjyCGiKYBtkzhaGoI8dJCsDpusJbZEYKjkihowgmRfBU2E/AEEmgJoKK9D7eYdqN1ei8pNO1G1fqeY+NkIhBBsoq0xAH+DT3zXMXEd6RUd18Uz33IWXXpm4RBJwPmG2NehaA6PCg/FsY+EU4XLo2Dy5ZNxwi9PQF7/QmEVinjiSOC4oWfxMoGIopBvEd0PUzNgN6l4+XevYs5zsxGie+p8qfmqYnennGqE4sEluPr9X6CkbyFFVvNMVZKfRgppGsM3zjYtEl6ySklsQySiTTVNqK2sRW15LWpIaH07/NixsQrblm/FtjXb4avxQbV4ajqepM6xOgzKm5R1heuokqB3VHa3Nlk8NHQaWoCjrj4aUy6dBM3rIkOMYoUi1qbvJtE4FWWbBSpEawx88tAMvHvrW3AFXeR98Mj9yHdidYFSSNuLFNI0hi0YYcXQLbTJv1c0lkeeYShcgyrMqkYYPCMFSCR2Qojr6oVrMP+177F87lIEdwagGi76VBdi2pG73rQUUg6lLpY4oRC7gEGHDcFVz14Bb5dMYZ0qVDiBRDVZkFNCN5gKSRJOFsx5T8zGo9c/DW/Izfay+I4U0tRBCmkas0tIOWvRXeRnMir5hdjPJpW4uyK/cUs1rybEOH0V7QYT9aU12DhvM1Z9uxpV63egbkstKjZVoKnOTy4wN3TwsFXOalzdII5KOK/4sHxOJvJJKhO5VoYnKoRiiPjizvAhuv7OfYtw8p+Ow8SzyDrN4O+KChb6QvPvEom4p3xqjn8lgNlPzMNbf3obdZV1olBoORCqfbEvhbS9SCGVUIYlGTRtBPwBNFTWonpTLUpXVmDptKVY+tUSGDuDcNk6iY1B0uJYu5R0KPPymOywyFAqSgcx3RORMPDV6zkuDDy8D86/42IU9MsRLeegsGtJElMBXZhJom/6DCx+aykev+5x6NUsruHPifZZp1JI24sUUkk4o/K8mSSUtgvOHJnhETY7gbVzV+PLqTOxatpKmHUmAkG/qFjlh9NFyzlGugsp141ybwifbqBr72xcfN9lGHDkIGguCmkS3XyOVZMnElHpjlB23Th9I+6/6G6Eypv7w0ohTS5SSCUOnAp44/xI4hh5yS+EWFKebar2YcOCTVjz1WqULSrFqm9XoKGqQSyaxlnRycr8X4zXDG98pNSmpcsPbswhUeKpl7VCFYddfSiO/PkRyO+ZT/EgvrD79xMAV6vwNUXKrCC5+UteXY6Xfv0iGkpr6ZLC9eFhoi/QpJC2FymkkujgSYktE41NJuq3NWD7nC348MEPsW3hVtGDgNu1eEo2yon0EH2KxM/SAUcnI4JEFjlfukdBzwld8Ysnf4XcgVkUIp2+kjzrlMsonurODBpY+dUqPHb6QwjVh6CK/lsO0WdpKaTtRQqpJDo4tdDGycbQKFfTsxK0Ub5iB2Y8Mx2bP9+A0o2VCDb6oZOqCjFKE1oKaXO24PVdSVe66rj4/ksw8oTh8GR5nY+SAV2XyX2DNW7RD2Hpe2vw7FWPw1fGU7g4SCFNPFJIJVHBbiNLjWNz0itOPbTZqkWWqILaijpsJCt11Rcr8d2781C9oQaasOD4u1wPy04zs2erLtn1rBG3na+CHXx+y/OEik78+R5Mungyzvj7WdByKBw2iQ19ha3wRNmoooFPDCcmLAuGFcR3Ly3E09c8DfjpOjiuHV0UtC4+pZC2FymkkphjwUdWkYZgg4V1H2zAf//yBAJrmhBQWITJ/adnnUXoh1BKTLaQRhCC6mgqwdfkXBcvB501OBd/+OQvyOzFfTrZYnUnTEh3gxwC4RWYKha/MQ+PnPsUeQE6WapcR+3QuuwthbS9yLH2kthjubgvOXSPhsIRhTjy4iNRPLmYDCgVZp0PDbWhsFWauuwupM2Y5PqHqgJY+vlCdOnWFV37dxEt+hFLNqGwenPDGFnMJUO6w5vjwZq5q2EFWpikrcIRWznWvu1IIZXEHG5AVnmoJYmOSm6o5tVQMqg7hh8zCsOOHoxuvbti01pnuKpL15wJmGjjkVX8G66mTIIs/Q+7XwO/c/bw//qKRiz+bAm51jb67t8HOvedouKB17QX7nUCYOvd6dVL/ynSuo/oDiNgYu3Xa8PDXPmaWhOT/D0ppO1BCqkk5uwmOeF8zBYbi2ZWt0wMmDQQB10yCZ5cD9av2gjVx3V9hsj4ot5V/CD8nGI4lipfmwKzwcSmrzagodGP3pMGQPVyL1RNiFoi2GU108ad811uBYMPHIqKbZXYtngbt0s53/lJpJC2FymkksSh8nSA5PZrJKpuHQMOHoCDzjkYWT1zEWoMoXZzTfiLTGsEIPHsEi+CG34My8LmeetQuqYM/Uf0RmbnDBLSxIsQV6WIZkDdwqBDBmPHlgqUL69oZR2pFNL2IhubJAmEk1qzQDo9ABSEzCDsKhsrZ6/CK396GdXLasUqoJbt2Kc6WaotR+6kYoOUpVkoGVWMnz91JbqOKCHLlFv06Tqp0Eg4ZN1Xba7HfWfejfLvy8Mzeu0eZ7vHoWxsai+y2JEkkN1FJeJ2cqu3VuTB0FOH4Y9f/h4n/ft4dB1eAq+HhZRnsqeMzl9Ngia1FtVQUTq/HA+d+yg2zl0PMxSEqUbb6BMrNOT3zsFvpl6PzoO7iCoTg5cKTPE4TGekkEqSDo8h5xUANEtBRmEOjv7Nsbju3etwyp1norB3Pn/D+WIKw4UCD8ffubIcj538FL6Z+i2sUHIs51C432vugHxc+shF6NS3k8zocUbGryTpcJ2i6ELELf0kSJqqoWufLjj8hkPwz8X/xBHXHwWfi8SW9ofoYYEnoRa/FA07iWrc+SHsHnPNmNjYVRbVDzp27tiBl254CQteXQDD5n6eBgzDcH6UAFyKJuJSgwv9pvTHSX89nnK6GxYVVmLy7vD3JLFDNjZJUhPSJYUsK8NtYsThwzDyiKFoqGtCfWktDD/XrTpbWFGTTsv6Ug8JqhECFnz0Hdy6B8WjusOT6XTeTzTcINZjWDfobg1rZ68jK5lrRHmW/ZbX4ljOsrGp7cjYkqQoZD1ZZF1Zbvqnod+BfXHR0+fhkucuR9GIIjERs8XLa6YgAdHQZMEOKvjgb+/jw9veRSAQXnMpwai2TprowhE3HYFDLz8INq/0lyKFT0dCWqSS1IQzO1tF9Ofke+4y5UbRwK44+OIpcLuAbSu2w9fAk01HGnVSQyBUcp+5mzxPbRcg03TDvA0wm4LoO6kfdCoULIWvOUFju/haKFp0VUf3UT2wYcF61G7YIex5ji9d0YTVykiLtO1IIZWkBZG6UCGVZKT2nzII/Q8YCNsfxLY15TwfSorIqHOtEVimbEvD+llrUL+jEf0m9UGGJythvuCueKPNk+VCr5G9sWLGSjTUNIgRWKLeNPxdKaRtR8aWJK0wyd9XbA06GXSDJvfFOc+ciysevxTZBSROKQg37fDAUZssv7lPfYdX//gmgnrzlHeJRNEUskp74qpnL0NeQS4MmxdKdOpHJe1DdshPAeoq6vDV01/DX9kAd6YHmZmZUDUVGfmZcGe4xD5eS0jzaNDcCrRMjawLNzyZGfBmZdCzS3xfjKghL41v6K4lQFRnhSXhvXXAYjOSfKvX7sCLf3gZqz5dA7MhAJPrKMm1brnWUrKTOtvTBkIYd+44nHv3hcjtkiXuWaKNP8uwMP3eT/H2ze/CCgad9EKPksHdZIf8NiKFNAUoXVuOh095BJXLt4u5LcUdoX/cFUjRSQjoT+OETVYYD630ZHuh5XiQnZuF/MJseArdyCB3LLckF0WDuqLHoB4o6V0CxUuH4XlC2YXjY7W41S3dz46AQeIQ8AWw6I15ePsvr6FmSwOFUadQN9dFJjup89qrFo/Gp6jf/+KxOPs/5yEzP4OENPH3omFnPV799auY9dw3FEOiAkIKaTuQQpoCVKytwKMnPorSVesps7nDe7lzj04Zj9eap2TOo2Q0ejYpjdvc35IyJQmkwR3ZWSzoLvLK9JZwI8mdJAs2t1sOBhzaH+OPn4gBBw4i65VbcLnjePPCygy/T3d4Jn6V4oYLolA18MB592PVjCXQxPBIh2QndZZLiyxSRfPCMm0ceO3+OP/ei6C7XM4XEolpIBgI4M4D78PWBRtFeiiRQ0TbjBTSFKCcLNKHTn4A5SvK6V37Rc0xNp3bqipuBBGAlqEhtygXfcf0xuCJ+yGndy4K+3dB10HFyMrKIAFypJXXsrdoY3czXW1WXjIqUN2Ezx7+DJ/TVl/WQGGjAqeFD92+VTdjgQpTN3HolVNw6t9PE5Od8IQuiYp0k7I9jyRbP2cNHr/wv6he30BCmo2rPvglSvp0oesgIU3XBJAEZKt9CtC4sxHzps5FY1UjvWt/6t3Na+cMw30JQ0BTbZMQ6xWfr8Gi95Zh0QeL8f1bC7Dym5VA0Ea3niWAl62mIAkwVwY0W3PphEphVrIU9JzUG8OnjMTGletRu5VbqcNfECRXJUSXIzKfS5eUilFPQw4aClX08UyMd8ArFTC5xfnQs1UsfP87ZHfphPHn7Y+c/CznOqSQthoppClAzIVU/OP/iphFiYcFMlznKrIwrwRq+mDWB9GwtQ5li7Zi/hvz8ekD07H4q6XwujLhycokl5/7brKVFHFa0iNn8dyc7NK7NV0sozzyuJEoW7MZ1ZvrREOLgxMWbgBKBnxeTSVHn1z8dXPWIacgG8XjekLn7gisp3Gtw+b7SfHAJYumoN+I/qjaWIa68kaMP5eFNJsuQAppNEghTQFiLaQtcTp+tzwmZ2Gevd5F2YmXqeBdLLEqrJCFHWtrMO+teZj70jys/2Y9KjaUwwiEUFDUSfTf5O5HKrv+Edc4BTObEEcRLoWu10BmdhbGnDgergId25dsh78+ROF21jVyapsTjyOUztwCCin/sq+WIyMzE73G9ITlciYdcQrDeEDnFPdcDBuAoRkYedAIlG8sRd+JvZHdKZ8uTTRPhr8v+SlkHWkKEOs60tawN4uHJ9lg8eVH0NVEoqkh05uNzG7ZGHPmKJx03UnQij2UxUJw0WdosZ56KmJaFB5VFc9WMIT18zbhwdMeQtPOJiFW/EgGu8U/vyQDUS9w49KHLsGoc0dA50ayBDUCcqd8w/LDV+aHO8cDLScDOgltcmImPZFCmgIkRUj3Zm3Qbl5+mOtWXbaX5NKgfTxzEVsoOjJydAw8ahAmXXoIeg4tQVHvIthivSL6IddNxs2KahucvLk+ksMkxInEs6a0Es9e/BJWfLMSZoALDic2EpkRIvHP53Sa+XjYqAvuEg1Xv3QtBh0yjN6zz0Dfi2OUijCL+0aFjtjjnI69jniet6MhhTQFSIaQRsMPM7NiU6b3aCge3B19yBU84KLJ6D9+P4Q0Eiuyovirke5VqSiszI7ttfj0Xx/i8/tn0PWShU3Rblkhep34+G+OIxI0ErDMPlm46qkrMfCQQbTHgqqlttUv4TwhhTTppJOQGiyQ7HKaNjRy6zUSVcNjoeTgYlz29yvQbUwxNJdrlzikqpByf047pOKLJ2fhpd89B6VJhZvCZXGH1ASzK47o2tihNunRfVwJfvXqjfD0zYCHq1CS0Glf0npkY1MKEM/GplgRcUU1etZEhuc5LdkdJBvO1BBcH8LMZz/HylmrELRM5OblIDMvQ5QL3GdT/DoFgtYs7GQ5k3B2H1uC7t27YdP369FU66dLpEeCrzMSt+zIW3RytkBry2qxbdM2DD1iBLxZ3GGfv0UinyoRKdkNaZGmAKluke4NIQCRPG1bu15rHg8K+3fCuLPG4JQbT4SRyfWTLtFDIOUsVNpCQQPl88pw/2X3o351rejnICzvBAtWy/ikjImgpmDiOWNw4aOXwJPFlQ50ZVwHkeDrkvw06ZNrJakNCaQok+nPCPlRsawcH90yDb/ofQPmPTAH1aW1u9zqVIIlSXOrKDmgGL974/9QOKGIrGynW1Iy4ZFmugksen0xvnjkcygh9gE4fqWIpiLStU8B0sG13xMRlzSC857+2xoMhcf8k7PaRGIwfTGWfb4CgUYfCnt2hSs73HhCusCt6cnuaKNaZO1RQeAt8mDw+CHYvqEMVesqRHicEEZCFn8iZ+TGOh7tHrJsbFmyEd0GdUPRkGIRU1wcpZplv68jLVJJm+HM3vxwMrizcYdyTXShsehhGzbKFmzD+ze9i1uP/DuWvrmExEtFSA2SkqZAizTnAq6bJNe5ZFQJfvnCdRjxs5EiVKK7PncH49FdXDA4v4gbkdjkiWm4vpRjx1fuw2OXP4JtC0qpgKJPZW1cyiGFVBJXIsJjk2XlN000rarDQ+c8in+dcAfWfbgOdpAsVxKGyJZMxLXaZCF3UXHh/Rdh1NljYKaE5afA3OnG1F8/h9rN1WKPFNPUQrr2KUC6uvatgV3ViB2nhSf643q+2vXVmD/9e2xfVobiAV2R3TVHfGuXa0tWYOR1whBWKT3o2ZvjxpApQ+FrDGDjwo08YlLAYXGuM/40h58KGbJE67fXwO9vwvBjx9A1spDS5wmOIsmekRapJK40200sqDx2xpEH7q4ZqAxg7tQ5uP3QOzHnyVkIhLgHpQHDCpIXnaSkKbSJHyo8JRk4844zxYAD7sbpFAl04Ql28xmySWGGLMx8aCa+fmoGDNot251SBymkkuSg6GIcP3c2D9UE8dTV/8Wjx9+PldNWca2q00KdTMh15lnt1FwVZ/zjNEy4dBJCGslogsa/7w1FceGtm97A6hkrxDVKUgMppJKkICw7+rPIZeZGKZflwqrPVuHJCx/DKze+ikBtAIYZrj8Nu9UJhRt6FA0uaMguzsP5d1+II685guxlknihX85I+MTA5+GsykvGmAjWWHjr1jdRU1qNkEnFTjLiR7IbUkglSYLUiPRBuKfhjdvIfZUmvrl3Fv512D+w8esNCNnN86kmBb427n2Qp+GEm0/E+DP3F/WVYp4WDkOCcVx9DVu/2Y5P/zNdlESGypPKSJKJFFJJaqGGSCoMlC2swCPnPIIP/vwhairqHMs0Wa4smXw6WX1ZnTNw7l3nYejJIxHkRrMkoNgurkUWE6x8+cAXmPnMTCgmq70kmUghlSSFiDD+cANPb0/JkiWzvqIBH931MR4+8xFUrasm8QrR5/zjxNqCPCZfo03VVeT0yMY1z1+NEccNJ2OVso9odIqvk08xsyt+uGeucy4NoZCBT/7xMTYt2gSLW58obiJT4UkSixRSSUoREUghFty0b1jY9M163HbQ37Hk5RVoavSR1gZJVLhJKvFwfa6apeHMO85A98ndwxcsanwTDs9fWr+5AZ/9ewYMI4AQWfNOlYMk0UghlaQsmujXSTYYiUNTWROevuYxvPZ7bohyJmpORtWpsArJOi0a0RVXPHIZCvpmkYgmx7U21ABdj4EFby7AtMc+g25q3EYmSQJSSFMAnqDCVeSBq6sOvZDcyE6UG3JM6JkuaF43dBdtGkkKd7+hj5yuQcLhI29OdHEXr9m343ZdsZeERnRqp5y1py3VEaGhwHKLNC8JwkspW3UWvn74K/z9kFtQu7YGpmXANim0pLSJ0lRF5XUCAF3RUDSqC2587Y/I7ZYj9vN4Tm4wSxS6rYmGL4tc/Hd++x42fL+e0gb3KnCqASSJQ06jlwqYQYQCJBZ0J0wSBcsii4s2X2MIwepGNOysw44dtdi5rQa1ZTUI1gRg1BioK61F5ZZK7CjdCaPJpFxsUV7m+sVmYeEuPHsinW47SX/Y1yfosl2KG9n75eC0f5yKCaeOp4KIXFpehz3RlqFlwo8QFk1diOevewFmDc8swC3oibkOpzx07qNN93m/4waKmfWzirLFvnQoMDsKUkhTAG4g0NispM0mPRA3hP6pCNAdYjOHrBxuhAn7suTNicXcfE31aKoPoGlnEP6qALYv3o7FHy/B6q9XwPAHxXc1ITD/S7oKKfejZCtMt3R4CzIw5VcH4OQ/nE5WezKmvqM4pHgMBEP49uHZePZ3z8Njsk+QGKu0pZBavOqnS8eZd/0MR1x7pNgnhTRxSCHtIPBtjNxKq8lC/eY6zPv4O3z37hw0bG+EsSOE2tomVmCy3jSYikk3n5Wb3X+egd0h1ZPD7tYpXbtHxwHXHIDTbj4V3kIv7VLgSvAaR+w9cFy+cePb+PSRz2AHQo7KUVyKlv0EQDY5MsgadnfNwe9n/Q6d+3SlPXRd6p4LUklskULagRAZmjKwaM8mq40fSkiBr6oJG5dtQtn3pdhKVuuSL5agdlsNdNVFwkPfaWG4pJOQcji59d7lVjHo1OE4//Zz0alvHn2sJ9waC5kmGisb8OLVz2DhO0ud8ydQSG1ePtk2qYC0MfTIwbjm5WvhznVD1RNbqOyrSCHtIERuYyQDk6ryG4RUG7xGPXeLCSohMfFFwOdD/Xe1ePOeN7Dog4VwI1P8lkknIeXywlTI2SfxyLI8yB6di2tf/iW6DSgSa9knVEwpui3Vh+rNTbht2K1oaGgU5+dVQROCiBYKM53Ppek46eGTcMSVB5P34Ql/QRJPpJDuQ+x2q0l8ePmKpmof5rzyDRZPW4qyJRWo3FzJ9pwjxiTArANs9alirSCCdjc3ZaUO3Myjkxvbff+uuOD+S9FjQneoptOJPtFsmb0F9519N+q3NO0m5onKarZqocfoXrjqzWtR2KuA7h1bxrxJNz9eyPlI9yGEhRTZLAWWTgKZpaDPxL4Yd+JY7HfUAPQa0gtVFTvEKpZcScB2Ds/T3kIPUhJNJeubrPD6bQ1YMX05igcWoStt3Ocz0WSUZMGb6cXKL1bDJg8g0bCF3lheB9uwMOrYkaSsCu3jxsvEx8W+grRI91H4rlN+Ey4p6aRohGL/n4xUuIIa1s5eh5dufAUVK7bDaDSdL4dTSipapNx/U6wIT9evWjZyuufjiqmXYvBBQ8PfSCAhE0HTxrOXPIP5r34X3slxnph4M8ScVT64FB2/mHUdhk4YAYPurfA0JHFBWqT7KMLC5I2NFPFM/8h9F/1QKdMV9M7HARdMwpADh8DKsFFTVQtfTYP4XHQzEpYt10PyS7Za+SDJwxmkSVfBdRHk2obqDCz9fCm69O6CzgM702d05Ym6RO6u5rYxYNIgrJq1EnVb62inQfHElj3HW3wvRGNXns7FznzVhh0YdtxIZGZ6OHokcUIKqWSPsFxyZ/78vp0w6OghGHvKOOTnF2LV0hUI+Z0GLO58nqhW6WgwSUx1ehg1ISz+dCk6UaHQc2iP3YQkrmLGmq6q0HN19B/TDws/+h6BuiCdMzFx1TJsDaWNopqjx+iShJ1/X0QKqWTPUF60NO6HaMGtasguzEavw3rj4J9NQf2ORjSU1yLoCzrWFyG6WqWIycOTeZg8sYli0DUaWDt7PXqOKUGXfkXOF0ho4ymkYqSV6Vj3mcWZFJcurJuxHpbNo8/oC+Lc8XPzW4YtaASwc/sOjD9nPFxu7i/Mw4xT5151FKSQSv4Hzoj8cJx4EkrhwpOVRxaqp5MHI04ZgYGH7Afdo2Hj8o2UW8XofvF9x8FONlQAiKuga2c3v97Cis+XkZB2RZfBncn91+ki2f2Nz5WKRZRFVQk92RpKBnXFxjXrULGiij7lOI1vA1TLcPG56ksbSMvd2O+Q/uIugQdj8LMkZsjGJkl0sAbQFiKBghVAYJuBBy5+CGu+XkmWqxeKQRYPJanUapBi29Ai6zAH1069Br0P6ctSFzchbQmPvFfpv7/GwJ/G/AF1mxqhk2XKTT/xomW4+F4ocMN0+fD37/6GLsNLnEanhFUY7xtIi1QSFaJfqWpQZiTbRvVAzwcmnzEZnTt3QVVpJeoqGsJeq5NR+X9kSw5sTZsI6RbMeh/Wf78OAw7ui5zOuXRN4WuMo6AKS90iG9XrQpeu+Vj26VLYVNiI6oXwI9a0PCZbngZboJaBoGlh+OHDobnoBsn60pgihVQSFZxFm919likdmltHtwk9MOroUcjI8mLp/BXwhLwkIWSPOT9wNudfQnE0koTMVoV1Vl/VhGUzlmDwwUNF/SW38sdTSNmR5+OzAZjfuwA7N+/Elu9LaR+LWfhLccS5R7xpYrG8QYcOQl7PbNovO+fHElksSWKCTkkpr18ujr31BNz51W3IGumFkWJ5lUdnWaaNutVNeOnXL6JuSyMpTeIW5/DmenDin06EUpCcao+67fWY+dRXpN/Nk9RIYoO0SCUxwSbTR7M00YfR2y0DU06dApeegfWL1wF+nmS62fziblWJqkPd3XUmu4xMh4BtoG5zHXZU12L0EcMAsqi5mUzMVBhHM5Et+Yz8TJT064olHy6HGQrRXq7DFHareMSalsfkapktqzdixOFjkN89T1jjsgU/NkghlcQEkRX5H1l9qqEBeQoGHtAP4046AKvmLUVjKa+1FGkt5i8mwyoj+abTsmzx2StWlKOytApjjh9FOcGEanFrvvPNeMCzczFdBhShcssOlJKLL6KDSYCWcX2tFtSxdfUWTDh/HBUqosktrlUb+wpSSCUxxyJxEDNOuRTkdnFj8LHjUF1GorWmisSEW6yTbwXxNaiGgtLl25HdKRvdx/YSS3fsErY4waKl6Rryu2Vj8UeL4a8PJiwmWC+5O1TTDj+KR5ag+6BuFF6nrlvSPqSQSuIACaVolSZVIgs1Oz8DY44bj/xOudi8dCtCdQEhpCL/cqMVPzXvSQhcXyoE3bSxcckm9B3TD4X983nGD/6QvhHpixpbWEh5yy/Mg2kYWDZ9KVmGLtFZP2IpxwsxgxcFyaDzsnU64thRcLnia4XvK8S5/JXsiwgB4szJT2HhcGWrmHzDFFz72rVAoZcSnk6apZGA8GzyzncTDV8X28aNW3y457x7xXNI89MnBu2Pfdbg80WwPCqO/NUJ6DWerEKL60p5EZX4dtR3UMUggWUfL0XthjoYKp9b0l6kkEoShtvU0GdCT/xj3p8x4OQB5Prb4CWXk42YM6DcxpM/fwK+0qAjo/HWNB604LVwwR0Xwd05Exq8YrKYRMHzELxx+6tQTdmCHwuka58CcJ5VuBWErCNuWeVX7HaSn0mb817MasRw/8NkmG8xgIWCh09mFmRixKEjYfhCWD9ng/Cmec0j/rS5/Tq+YWw+PsUnn58EvXprNam9isGHDiarjWyMOJoZfHY+fHZRDqo37MDmxVt2pYF4EQkzn4XTXOW67Rh++AgU9MildMcxz+lN2lZtQcZaCsBr7YQ4EylkGVlsDVm0z6KMpdN7dsXoS/SZkwPil9HijVNn6rzKKHLjrLvOxIl3HAWPl+VVFRNNi88TEEQuqJwHn845oRWwMOPfH2LDV6Uwtfi6vKLKgx7uLBcOvOpgeHJopx1f67A5xCIhwe3LxEf3fgSfydUZvDt901aykWPtU4DaHQ347sXvYDT5YaqUvRQSUk2FO9MDd4EXGZ0y0bmkEwp7FFCG84S7rTiZMV1xlpQKwbA0fPvMLLz1h9fRVM2rnIbLdkqVTqaPP7vHo4bsEhXXf/h/6DWqZ3hf/BDSZhp47Q/vYvpdHzuWcAJQeNQZ3MjpnYWfv3ItBo7rB1tnn0CKaVuQQpoClK2pwkOn3oeKlRWUjCkxh9MyaQxUlwadNrfXBSVLhyfXg8zCDPSbMBDjjxqLAeMGQKxdR/mPDQoTQZICtxAiPkxLMUpF4eWrM4MG1k5bi7vOvgu6j1uwDQqLDq1F0kyUqFpk/nN7/ujT98eFT56L7Jwc4QarcZrkg0PFXcIC9TbumHALylaXCwfbRQ+eUyteOKGh1EZewEl/OhVH3HIIMswsLkckbUAKaQpQvqYSD57yAMpXlIMXKosQeaWQlSJqDyn1W2StMjaZdPx5yBVEfv987H/keEw8/gC4urmQ1z0bWXnZJMC6+J5wI1NQRCMYPE+npWLzzPV44rLHULOhhsLpuL4CCmhihDQ8HSCdW/NqOPfu8zHhqgkgvyCiPHHBsniJFz/mPbEAr/ziRQRYSS2eNDt+7EoPlP27DC7E3767DXYmhTuF00kqIxubUoDGnU2Y+/JcNFbxEr7hnSwjZGLygx0up2qUszmvl8lveC+gWzpCVQbWz92Ir1/5Ct+/+h02fL4eG75fh4bGRnTp2xluNwlBKsNir6rI6Z6F7sN6YPHHSxFqMlvERaKg4opOyqumWoaN9QvWYdSRI5HVNVfsjweRAkKnu5pZ1AWrvlqImtImUUceT3YJKT037PChU98c9BrTu3m/JCqkRZoClK8tx0Mns0VaQe9ikZBZcLmKQIGZbWHYccNxyS2XoGBIAfww4KZbriouzsUwVM7EqQFfs2Va2Dm/En899m8wqnn+qBBdK7n5kXhJmHVKd0LV0Hn/fNz48c3IzdMps3jI9OBiLE71mBSsLx/4DM/8eirZwOSBRBp/4hxmDk1GryzctvwfcGd5wumBzy1FtbUkpmZb0kpilVnCbjEdLqM+AytfXY6bRt2Ev477E76++3OsXbAFVohX3LShm9zokBoI61tTUbB/V/z61d+gcEC+EBSe4iTxkKiTVbhzQTXmPfUN/LYzJeAucYsDPBfB/udPRo+hhfwmvDf+8KDdms31WPr+QuhiukGVwh7+UNIqpJB2SJpzAXcu52GYvMb59oUVeP13r+KJ05/Go2fdh6UzVtHnJFNkoUa2ZKOL6gygz2G9ccEDF8LysnolPpnyGbkSxQ4Z+PyRT7FzvTNhNc+WFC/Y0s0scOGcOy+B4nL6EMcbIdcaFbjIwvfvfIdAfROlA/4gcULeEZBC2iHh2+psPGqHBcBZio33aajfUoXF763EA0f+G3+e+Htsmb0NvoZGEgn6Lpsi3PbDh0kGlH81VYGuuTD0mCH43es3Qc3Wyb3nYLCrn5gr47Z7MbmeomHHxlq8efNrMOwQlDhainxk7jvc79ABGHTIYLoV2q7GxXghNNPkeG1E+aIq7KisoVAbIqVIWo+Mr30UgwRThwdV86tx+5G34clL/os5U+cj4DdgaAGoVmIsor1hk2XKK3L0PqovzrrjDCg5CjTK9XoSrFMeFLHozYWY/8J80cUsbvDB+S8ziHHnjIeXGwlpXzy7QbWEPRLZ2NQ2pJDuo2iiSSGIbM6mPhur3lyBF654GvedfA+qVleTJZTsDoWkmgbZhXQZUy6ehIOvOhRBcqvNJFQ/cGWD21Tw4X0fYMfmneG98cDp0ua1PRhxzEjk9vOSjvLZE5dNU6B2Jy2RQroPsXtdKGdaDU2UBETrPrmQpk/FmhkbcPOov+DNm15F1doqcvK4ltXpBcA1roly+vmadF2DppGLnenBWbecickXThBzeaoaubxxvg4ObySuROhJ0ctWluHbF2YDIY4JtthjrDo83p1zJBViBd3yMeXyA+HiyV3jWC/bEk4WiRTtjoSMNclu6KQSbkPDh/d+jEfPfACfP/Q5WaxkFYlllpPUmssub4aB024/AwOP6A+bLoInjo65kP0IQmQCCj5/7HM0bmkgbaMdcfTzuVHr4EsOhbdvZlzPI4kNUkglzYj6uCxwjyheBXTzwkq8ed3ruPu0W1FbxS4tW0eJz9RskIXgQqeuOTj7H2dC6cxLljiPRGBzByESTtXW0UQies+N95GMc0NU/IScu1m5Ontx8nUnw1TZE5CkMlJIJUIkxCacWD/JEzvOJlRy97mObu0nW/HPg+/A7BdnwagPiv6VYskQtsoSAaVSNws4ufTdx/TCVU9dA72TMxadlzUWSxvHEXZ3WbLF1MsUJ1ve2YZFHy9hhY0fFCa3rWHgCUPQuU8XOrchei4kvhiTtAYppJKfRlFRu6YWr17zMl749VTYVSyyPEQ1QULaAj7niONH4vg/HA/Vm5wGMe6R9OXjX8NX7YtbYcLePNfCduqVif0O6w+N7oGoWklCnEt+Gimkkr3DeZY2jTIw0+Cvx9ynvsHvj/k9ytftgCnaexKbscXCeqQyB140CUMPHU572EZLlJNP5yf3PqAFsXbGCmxcuIGCH5/ws2vP3b0yvArGnLg/DI9GlrfTMChJPaSQSvYKO/uOw0+Kya3opocsJQ21C3y467h/Y8Er88DdTUO85lCC9FQ42bqK7C55OOWfpyCzazaJDiVjuj4WmXgLDfcX8JCaBxuC+OTfn0AJcvzEAQ4G504lE0MOGYxuA7uQhRqksCa24JK0DimkkuigjMx5vGmtD/+95nm8f8d7cFmJX/eHBbN4THdc+eSlCHmC4b2JZfkny7H0vaUUJ/HtiuXJ9+CoXx8n6qad2JekGlJIJa2ArCA2hGjjBGMpfgRcIRh1Nj760zt44Y/PwFfnC38tcRaTmyzRvscPwOEXHwFNI4FJ2KlZzLg6wYVX/v0GQtUNcW144z6+B5w1GZ17FIX3SFINKaSSn4QlotnNp0Rju6CFSEjEUr5uzHpoLp795TOwm3jMdmK76rgVFw7+5aHI6Z1LwpaIxhhHRHmzVQv1y+uxcPrSuAopL5+MjCDGnrk/vaE7wIt4iYW8JKmCFFJJmwmJhZcoCZGALnx+AX5/7M3AzsS5njx/CGt51+HFOOmW0+BHo1Nfmigo/IHGJix+fQlCvvgtlsfVvprqwrDjh8Kd5wnvlaQSUkglbUYn15ZnRDIUEhGykGq/qcHD1z2KuvJ6YaHxTPPxhawyEnLVVDHpvAmYfMYk2hfvcxJsDNLGvRm4b+nSz5ehYm1FeHfsLUWeL5QXBewxtBu6D+omCgs2gLlyIfKQJBcppJI2w306uX8jTzhnUObmfvEryDp74KJHYDaa5OTHV9ScFnyF++nz8HSc+KeTUNCngC9MCHs83N9IFQc/uBqB14P37fDjk3umwRJrT4W/GENYKG0KS15RDvoc0Hv3agQOq9TRpCOFVBITeM0hzt5sHW6fvhn3XXwf7J0JsA7D8JyaRUM7YfwF+wtRTQwUYhI1dr3nPz8PVauqSExjr2qKsOwtWLqN8WdOhsX1GWzxSwFNGaSQStoHqydtnKd5Ymi2Qk0EsP69tXjtH68KC01YUPy9OMLrK6maBwdfdjDyenDfUp3O3ez68iPWcOOWyqrN57E0TH/6U5a78Kexgzvi89m461Pvkf3QbVgJvUpYaSFpBVJIJW0m4uLyw+JGHjKRePgkj8M3DQ3fPPQN3r31NRhiLHy8lZQSM4lpp16FuODOCxCwQ+QOO/t3bXFgl5tNx1/56SrUbqlx3scYFlOVRztlAMdefSxMhSdukaQKUkglsUdxk11mwA5aeOuv7+G7Z+YgFIpfqzbjNG7Z0DQNI342BsOOGCjW9E8U3OhWvaoaG2avDu+JD7xA3uAThyGzwEvvpJSmClJIJTGHx4mrJGoWWaIeZOGNv7+JDfM2ktiE6/qcr8WcyPDQkGbhyGuORFZulmMIJ8Ag5mn1gj4T33+wiINIom7RFv4wRnD42Cr1FGVgwAQqKPgECQib5KeRQiqJOVybxy0wXIcYUAJo3OTD01c/C81nIWQH45LxW46xdxkqBh01CD3G96RTNT/iCYVMTHO37J0laKwOIqSEKPzxGJygQHfp6D+lP+XexIRN8tNIIZXEFY/uIRfbRPWyKjxx2eMINpC5FmeP1CKB8eZk4uCrDw3vSQQeEk8b/sYAvnxoOnSL+5jGJ3vpqgu99u9BFndmeI8k2UghlcQcYSEJt5M2YZTZoo/pwjcXijWPeK34SCPNrsaaGCIauemwo44fgW6Tejg745zSuWzQhQ2uYfpTn8Jfx7OJ8hZbuCsUj+jqOawPMgq9FEwOWOzPI4kOKaSSuMDyGJZKR2XI9bYtHZ/+6xNUbqwUn1gWz3Afe/NUdHWiP5dXx3n/PA+qm9eHj7fYUFjChUL99jqs+XqlkNXYw/FlI784Dz3Gd4fG8ReHOJREhxRSScIwzSB2bKzFi9c9h8bGRiGi8bBII8dUVRU9JvTEwIP6QTcT1+/Sbbix+JPFCBqxDxub25pFsu0yMfbE/WHZbN3LbJxs5B2QxBUWtcimsgiQ8bRm+jp8cf+MXYIXa1igI5ZuRoYLo08fS1apWxhukS2eGJqJLfO3on5ndezDyNevOlUIQ48YDDVHo13xiUdJ65FCKkkwlOnpb9aT32Lroq2wuQd/XFEw6LAhyCrhyadZcCJb/LBNG9tXl6J+XX14T3zIKcpH3wm9KTRxLhkkP4kUUklSqNq8A589/pXobxpPDNVC8YBCjDxydHhP/OE+pf5qP1bNXBPeEx8s1cSII4bDjFvPXElrkUIqSRi2zXWizqaZOmY98yXWL9gMy+SZotiSc74XS7gbElwaDrvhaNHgZJFum3T+WCN6c4arMAwSOM1y4fu359M5ee4BJvaBY0t00OQh8Ho9u6ozIlUaksQihVSSFEzFgOp344UrnkdDXSMJniFWCI05JJw80qr7kGIMOm6YqE/kdfvjibPqqoV1C9ehenkNlyB8GTGH5yXN7p6D/J754T2SZCGFVJIUWNzYJS1bvAXzXv1eWKnxaDThYao8Y6qhGzj4Al7bScxiGld4GCcvCaL5Ncz9YG5YSGMfNu6b6y3yokv/LuE9kmQhhVSSFNgF1UgJLEvH3JfnoLaqSSTGWLdyqzxuk/50evTbvwcKB5TQXu6/Spap2JzvxRIWbxY5PvWSTxbDNC3S1TicCCF4sjJRMqBIhIXD5WySRCOFVJJ0tny7EWu/WEsCFN+F83JLctBrQncSV3d4T/ypWFWOms07nGkGY4yiuMTqqUVDSEhZtSVJQwqpJOmE/H58+J+3yByN7/r4apaKQQcMpFeJ65xv1JjYvGx9XISOjXc+bO8RfaBqMisnExn7kqQQaeHmTYMbm+dvx4K3FzjLZwj3Ph5DOlUMO3wI7MzQbuePPZytnC3k96F86Q4xcUus4Tpli/53JtceXmexF+6VIEk8UkglyYfE02V5Me2uD+Bv8NEOHvYYe6tRsxQU9i1EnwP6h/fEH8MAypZsRzAUh4JB4flJbWR3yUHn/bpQASSzc7KQMS9JOmwUmpqB0jVbsP6bTcIYNeNR5UfCY7hMHH/h8fwmvMUXXtNp64qt8Afis0IAZ2BbNzFyynAKnkpaGv8wSf4XKaSSpMMt+KoFBHeqWDZ9KYLkn+pxcFFNJQTd9KD/Mf3g6ZQh9vGY9VizW7WBbaFy006EKtnSjjGiLNAoBBr2O6yvmMAkDr2sJK1ACqkkdSABXTZtCew6E/HoLaTZuhjbn9HJg74Teoo6xXj0XW0JySmCtUFsW7Q5vCc+9BzVB4pXQWQqP0likUIqST6c98Pb1qWbseH79TDjJAi2YsPSTAyZNIRes1rHud8ludrcQX/JlwuFqMaL3O55yOuSm4DKCsmekEIqSTosMJGHbrsx/ZHpcMVD4LgKgVxhHW4Uj+qBjEwPjDhLj2nx+C0Fa2duIi+fQsjN6jHWU1GFoNko7l/i9HqQJBwppJKUglff5JU467Y0hvfEh059OyG7JDvuwsP1lzaJXMWaKvgqA2LGplgLKWMrBroOKuEX4T2SRCKFVJIy8Gh7thiVkI65n8wRFmq8+kUWdCtAdtdcOh+fNfKIB2yBWjAaDZStL6P3XDMbeyyySgt65ouW+3iHSPK/SCGVpAwsnGSSQlMVrPhkKQJNfsdtjYObn52Xhc4Du5DU0PFZb4TmxEN4bNEjgdcU3bJks3htxDjXca8HrhLp1KsTFB4cFglPPIIj2SNSSCUphZBNsuCqVlSjdnsNNHJVrTgIqa3b6DOqDwwrDnWxe6FsVTkVDDriMhCWCp/s4gy4M+I7zFayZ6SQSlIOndz7urJ6MYs+W1VxmfiOUn6/Ub0dR5vVm7e40GweVmyqhMkL4sVJuzOyvfBmJG5CFkkzUkglKQUvkMei5qtrQtmSMoRU7mQeh0lGbBvdBhfDlaXR6ZofsadZSBuocAiIIbCxhwuE7LwceHK94T2SRCKFVJKakH5u+34bCYQRF3ljYcvonIWufQrD7+OPURuCr75R9EyINSpM6PkZ0LKka58MpJBKUhOyTNcsWAeP6YrLKCeBDvQZ3i9si7Jcx0eyI/jrfWisJSGN03j4jAwP3Fme8DtJIpFCKklZytaVoXFrE9mO8RE4Xpiu74T+dHSyEJX4OPYtaWpogq/aT69iL6S8VIsnw43MPCmkyUAKqSQlEVLTBGxcvD4OskMJX6ynr6BoWJF4joe4/RAjEIJRE6JTxd61V6CJyZ2zC7PCeySJRAqpJLUIe9jcBUqn5Lls1mp6E49mbhIeW0V+n3y4vR4xMogXyYsnIb+B+pqGuKzlz0dUNAU5hdn0huIrskkSghRSSUrRXF/JKFg7by153fGY6o6tUhKeTjnIKPCyrNJZ42yV0jkbq7nVPvZCKlBtePMyRfztHo+SeCOFNGWIv2uZbliUPKvWlcLwxc+yYivOm+chb5uzQnyFh0dpNe3wkfUb+/PwIVk4swpzw3uiRw4qbTtSSFME1eK5MsNvJAJuDAruDKGuulaIUCzhYZWMruvIJnfYpJzgLGkcP7hRq6m2iZ5jf6N5RQGuqsgtyALPN+VMEdi67M3Xwz0jeASZ6JoVjhtJ65FCmgK4vW54CtzkaurhPRLOytxabzfZqKusdXbGAU3XkNM5myVECFE8Uej4jbUNlOliX1XBParY0s0qyOZYo0d08Pd17oPqpjjg6tWoj7BvI4U0BcjMyURuMWVm2TiwC87ILKYamYq1lXXOzjjAyyR7ctwJEQ6FXI6G2kZHtWIMG9NsUWqZbSuMOa4LivKRlZdNB9JYSyVRIIU0BdCyXeg7ZT9obFXQHTF4WE8CMnYq49TXhRCkLN1Y0bjLFY81LKSuTDcJES9nHF9Y6II7KURxaLXnQphn4udCgbO1E117Pw/Hp9jooekK3IoLvQ7sheycDPCsKlIYokPGVyqgmTjgnEnw9sgSlpGu6nETjnSBJcCmUkWzNeEOxwuVhNSbxQvhsXMfXynl7lV+f4DOGftsFzmmy+WkHadOuRWCTclMNTSgWMEh5x4mjsO/ZYGVtB4ppCmAbrnEmjs3vHQdsrIyYVlxWAM97aCMTIKg0XOwiUcDxQeeCJlHBFkqy2h8hZQFLuCPX1g4zrwZGU4hTBra2uoKJUfFb1+6AVl9yK2XtAkppKkA3QVuLOgzpR/OefhMZHfOoizN3dFt2kwSE5s2fZ/aXPRfs90wKPyBBhK5eM0bqpD1RR6B2zTprNwMtOfricUWsoMwaCM/PHzy2GFYhmjMsnjJaXp2wU2bZ7fzk69DDxeFki1WnlXLhKuTF5fcfxF6HdwPGs+8Rezr3lBbkEKaYow/ZzIufulSTDp7JPRCLwKU0bnGNET/96UtQP+DCs/8ZCIUjMyUHw8U6N4s0V1InGsP1xKrjaXN8pO3YcY+LFzXy93nXF4vTM2i8/Fj9/MrtAU5ZtUQPAUejDx7HK586XKMuGCsEE+uY5W0DYUSaLxSqKQNGGQpUJKGv8GH6oo6NK0KYPP3G2EG4zOPZarCyZIbUFymha4H9cTwY0eJzB5ra4nPs/LL1djy2VYEyFp0x1FLyACEnpOBw286mDyQ2NowZOtCtzQxVd8XD0yn9MKL7FFK0pq7WhlWCFqmC/uNGILcQXnw9PQgx+UVVjmZ5WTNmnRdcZj7dR9ACqlEIpG0E+naSyQSSTuRQiqRSCTtRAqpRCKRtBMppBKJRNJOpJBKJBJJO5FCKpFIJO1ECqlEIpG0EymkEolE0k6kkEokEkk7kUIqkUgk7UQKqUQikbQTKaQSiUTSTqSQSiQSSTuRQiqRSCTtRAqpRCKRtBMppBKJRNJOpJBKJBJJO5FCKpFIJO1ECqlEIpG0EymkEolE0k6kkEokEkk7kauIpjl889JlNfJok1qsl16WSOJFzIWUD6eYlAE4D/DWnqPzetu8GDh0oIMtt23QpsGEYvG7FoGLJr5EHNMB+De8TnoSdYfvEgeFL0EXgaOLUkwE+WX4wlSTrtGwYRgW9KAGy7SgqiqCKgfAhqbTPo8BlaKD9yv0sDiO6L9q029tSgeMOJy9K6riJbi2bdGpVFgUsCRGbVKw6Z5wmH8sbjn+Q3xv6Jsa5/l9DJvSOIedIyIuQlpdXYOK5dsRosyQYVNSpK0tuAqyUNSvE+VENzzucCbqAHAcWcEgarc2oqyiYrfESjrSakIqSY2lIqs4B137Fwk5TpoVR6IDus92yEB1bRN2bqmGv8IHX1kTNi/fhE0rNmPb4q1oqK2HvykInb9L8cCCaZFSidcaiSXdZlduBnoM6Ilew7ujz/CeKOhZiIzOmcjunoucrjnwZLihcTDD6SouYRa5wkC934/t8zbDNLmo2HdQLQ153fJRPKiEyug9x69h071eW42qLZV0K/aN+OHCPYLH9qBwSGfkFRfER0jnv70AL13+NOoMEx6xt20JPa8wH30n98Ept5+Kot5FIm3HIcskDI4bzvShQAjv3/IWln20Glu3bCXDrbmqWhhnrYRsOOhk1Y25bCwuvucyKGHDNlFiKmxC/iMrc8e6Snz73hxs+b4UTZsbUbqhFI076hEMksVClyPyorDsVHpo9LOQOAJDMkr/I9fsolf83jEDTfZIKHoy8rzo3KMLivoWIXdADkafOg4DxvWHJ9Pt/CzGcK5QWCi2B/G3iTfBXxNFCdcB0GwN4y/eH5c8dEnYOv3fNGXS452b3se0+z8W92ifoIVcujUPzn7kDBxwwZTYCmnkUPPf/A5PnfsMuXChsDD8701oDQq5qzZlpJxhefjbZzfD1SUTbpsyTrreNIssURK+l37/Embe/ZWTOOnPbqPFzj9m13fy5ZNxyWOXCMshHiJqsaixAPK9ZOuRLEfDCkFv1LDqy5V47PePo35VPRSDvsMu+V7C05qktvfr52ugY9DG5/CbfnjyNZxw3ck49BfHwtuFShHNoj8dFsUDXysfqT3xwddbs70efxn+BwT3ASEVMcXVaQzdw8mXT8GFT54vCr49EaK78c7vXse0u6bRb/cVJW1GJ+/p3CcvwIEXH5jaobfIXWTbJbCmAZ899Q10w6DEHf4wDQkpIaz5Zi0Wv7x4VwaPYTkWN7h+kq1PS7EQ8gewfMYSfPjHD/F/w2/CnSf9C03LGsky1kVGjHd4WKQtMlI9mhdmrQvv/+N93DToBrx0xUtY+OpCNFTRtViOkDrSK5HEn5QWUo3EJqQp5B668d3Lc1Fd6SOrK30tA4XcpTkvzUdtabVjWvG+OFiQsUa48GRJb12yHfee/xieOOcZfHTnB6jbUgeP4qVE5KJvOA55vHFcTNpIJbnu3bB12HUWZj/zOV686AXce9o9mPX+57BCZDmLqE3EVe2bpH7KTRwpbpHaUEVroB9blmzFwjcXsHecVpiUkdkyMs0QqjdUY94rX5N4usPCww0u7UmO3KrMG4u0sydmCO3kFvYgKtdU4tmrnsLfx96Mte+ugH9HI53QceHZAuXqBXYVuPYzsm9PW2vY0++czYkrpz7VaZziZ3Lk6cFx6YYvEMC2Wdvw+GnP4bbjbsPmWZvRGPTB5mb3dEs4SYFTEksCeyC7iqy9Epd0l6akTcWGx3bj3Ts/RN3W2l2ZKx3QyM00YcAK6njpN88iWBeCwhk75bERJMH86F/TcN8p92PuU9/BbWXT3tSP9wxLx7bPy3D/yffg7d+9hfIVlU7TVhqlG0l6kSZCaiOkBOHfGsS7d39ImSG8N00yhWKZWPnF91j5ySqynjQY3McyRYkIZeX6Ktxzxv348M+foGJVudhnUzh07uaU4oS4r4gSQmO1H1/f/y3+dfK/sGH6CimikriRJkKqkPxosElMV3+wCltWbiWXwgg7H6mOjUCTgZnPzYUdVEX/R7ZSUwnh9bLIkEgGGvyYN/V73HboP7Hp640k/AFKJJRMuAcFXTY70xHLLlWtU43tT1uDSgGzyRto2FSPO0+6C+/9/R3UVtUBZvj6w5tE0l7SxrXnLKGqCio3VWDZm8tgq+nRAZg7zVd8X4o109eE96QeLOsBFpdGC+//80M8d+V/YW4Nkcg4+prOsPhzFa7b8uDjO6Zh6lVT0VDVJAVUElPSR0gp3XMfTB5b+dnTM6D4dZjkvqU67MV/9Ph0NO4kSyhFsRQ/ND9w7zV3Y8btn8Js9KNJ84U/ZdJXdGxSUfZmuI+rEnDhu7dn45bxf8GO7TvpM66mSC3vQJKepI2QihZh3sjEqNvYgNfveI8yR/jDFIPbkUUDk21i9RcrseT1BXTdbmEFpYo7yVWdprhOEw1bmvDE5Y9g+YurHPdd0eA2XSKueeOdu649zUSVr3/X/aACwwUPGrfW46EzHsTmeZtoH/dNTp37IklP0kZII4jqRUrwn941DRVLK52dKYZqOR3YA/UhvH3L6+Q3sxClViMNd1sxrRBZohqe+/XzWPb6Siqo9jyCpSNSNqcMj135JBrXNYj3PN4/Hfr0SlKTtBNSYSGRhaE3KvjshS9ghFLQLBX5UcXy6auwfXE5ZVANasqZzxbsehv3Xfkglr6xDIYadDz4yBYjfihN4tAkWHtqKOQ9Lff+8H37iRyR+52a2LlsJ249+Q5Uba7itrQ9WKROH12+3ljTfKb2Hzt2t6vlkdhC53jaO/xpuhQ+sYujZsSw2HDw005IOUp4THmIhGnp+8tQuaaCnDYSqXjEVBuxlBCMegtzXpkt+o2KDus8rVGKwNaXPxjA+3d/hOUvL6LMQMnApGTBLfMtHm1FyCSLJW2W5hxJofBrioteUPbj9MfCFd54jLwjWpwquXcG9xDgDzipRibhaz+sk5FNzKJCXkLd6mq8+ptX0LizXlRr7BJT+syk1zrXrdK1RMITq40H1HKoecrAtqKQW+F0nI/N9dG/8JHDcHzwczhKfogYHkHfERPp/eBYbdvoOPQgs0M8xwIWe1vEk+NxxHILiXTKxzbTUUgdIeC7W7m2EktfW0KJn8cPpRIKdiwqx+L3F+41ESabtdM34Iu7P4MS565YmklipHItZRMMlx+uQgXdR3XG4JOGYMolU3DQlYfgoMsOwdizx6PnQb2QXeKC221AtQMwNANUJFEUxvEaLRtL3lmKT+6YDsVoUf1CGUVTdPhVP6yuIaCICsMYbr6CgDiN3Y4RVzwXBceMkUXH2sM52rNpRXQPdJJI60eU3tIRzFDg7kLxtodjRLvZRSTMxQrMIpI9T4t70Q4MuKDlUnHcJfb30NXVgM5zPthULFIJHLOsHjlUrGZ/2ivhw1G5AE+RB3+d+xfk9SqgUiGZ5YITds70ZmMQd5x6OzZP3yasvAgxjOowTmnIs/Rc8uglpFpOSbk3+Nt8CZWrKnDHMXfAv9mHoEYJwmzOLPydaOB7wPDvOP5NKqF5D4/nyizKRfehPdBlRDH2P2w0+h88AJ58F0wSVu7fGRFI5/uOhcZTA2pNCsqWlmHBe/OxYeFGlK4sRfWmSlghvrZIfDq2WIRor7vFT+mXqhClK166ABPOnCym9RFnoQvibnYKiYkVw6TF9dPzX1uIZy95CkE/iaCormoD9DOeb2DiZRNwwWOXkvC18Th7gI/EmwE/Wc88GeYejm0HyftycwTu8eNooWQhjhXwBfDs5c9i/qvznQ/agZpt4ddv/h/6HdVfpM9YwqmYJ55XFbbJ0wznBjsPDkqwPIjX/vGW6BaVVDhOSTy4dXjh+4uw8bNttDMGqSuGGGTJ11XW4oUbXkTT1kYSB8uZYLnFIxrEPXBuCIWaXSens76n2IMT/3w6rnz9Slz/ztU4976zMfTkgfB0IteeUhy7bjrcZCs4D52tBvGf95IlmAl0m9AVJ9x6HK5781pc+dZVuPiJK1A8titsOoQQPvqe0J/IFi0c1PCmkoiydL79z/ewbWkpCR1ZL5yp6VpFAxw9c0aJ1cZlncl10vTsTFHYRiiuDTqYuFRS5z2dq61bJEp1eOn/XiKYRFR8nz7+4e/bsrGSclWPyVU9wlLnkLUjfgjVciFEYqfzfeb3Mdy4ekanNK9SquX3aY1CpcHSN5Zg24Kt4T3JQiExIRndEcSMBz+Fy/JQaU2JgNNDyqBh8WsLsOHLDeH3sYPngDK9TZh4yRj8Z9m/cdQtx2C/KQPh8maQxUvJjBJcdJBMkxnIWbjvkBKMu2A0/vbNrTj/3jOBPL8QXHKnnK+2Ez4KF4E7l9bg68dnUt4VtX/OhxJJK0g7IRXJm//Rxq2KIYWyQE0As1+dhWAgSJY2ZYGYu9A/DZ+RK/1XfrEGpcvJGlWN5sgNX29SoLgQlib91ZXWYfpjMxAI+Ok9SVRkixLHH3AsWQ4kr13TbWJPXPP8DbjwiaugFJCdSYflZqIgWZCiwSnKXgt8dLZQyKCg4+vQNBcJtYGDrj0E/5h1F4afORpqJtsE9E2yKJ3fOI+2oKvcbV/HrOe/woo560UBzSQjLUlix66717Zk0WrS0iJ1pMGpYdPIFzDJZf3u9fnwbW0gt8CkvXGOtT1gkqDrARc+e/pz+Ku5kze35LXdbY4VNvuR5KoaCGLavz5B5dKq8ActtigQQsXRSxtPus1KN/ykkfj5C9dg9KmDoZNosryJumHaeCEQpw02eouUfxlpv+WEykLHwp8/NIsE+0Icc9Mx8ClUKBCibjh8XdHCv2XBZLH3N9p47orH4aPCOYIU0zQmQfcuLYV0T1RvrMEn904TFdacpxINZ/g1n63Hyk+WicyeKohkpLhQOr8Unz74EaUrbo2OzfWFSNf6Hd0NVz5zNToNyIepkvBxS0ocYWl1WW5kZ7tw8h9PwNn/PgtKXqySMd1Fyng7VjRg9suzxIJ3ka4uEsmP0QGElBM5J3YVn/33C2xZuAXcbzMhVkT4FDxxsL/Kh6dvfpJXIKbd9EEb3eZYwnHAMyD5fAamP/Ip2XMqeEhkW2C7kB/cH88mN5hrESf8bDyuf/lG6DkmNIsHHbDVGd8wmyRqvCYTFw6WZuGoXx6NU288GVqG4+ZzK2rUV8D3MbxxgagqGua9PA+1ZXVimK8zJl8i2TtpLqScZZxNrDHd6MLH90+D5Q8rXJwRXTBNG4ZqYPGH36FuEbnNnMmJSN5MNobqF92d1n6+Abz2EgtFtAiBcqKZNhsu00LhyC449fbToeRz3SI58Lu+Et8kxR21xBnoH3fw576OR1x/OIYfP4QinGcP4GVPoiNS9eI8eIeBTfO2YPOcTTAUnoi7A9gbkrjSYVIIJ3YLBtZ9ugGbF24O700AqomGchPfPDMXFrmcYgRF+KNUgGspV3+6ElVbwnWj7US1dZhZFs7+53ko7JMDd7hlXXSOTDTkCdhkPSo5LlzwwEXoMrwzvY+N9WiSFT/zmZkUXh6NFd4pkeyFlBNSx6qJbM2PPSHsB86/tCnkwrLbWldRh9mvznG+0I5RI62BBxsYJCAbvl6NDfM2kISSiIoxjz9Ny7C1fMScoIVvps5kY43iiY7fhioH0RWI/tii5f6iR99wNEYcOYwSD4kYHyoZIsrQydnG1klMM4szcN4/z0dGfgZ9wNcT2doGH3npjBWoWlLudGOTSH6E1LNIOVPu2vi9s3tvRBwy8VXKWKZl4uunv4Cx1UdubdszUmswSbj1Jhfev+ttmA18frZGOUpbIVSRsP1wizHrZq7H5kWbKKKcnpGRLVpE3JKMFo8owqHXHgs/T6zNKiquOU4X/1PQ+SNntU0dPQ/vhZFHkovv7AlvbYPTlOkz8fFj08jpUGXLveRHSUHXPmKZRZ8xI9pr1gJP3vhfIODMNRkveNTL3Fe+xcY5m0TGSzko7J8+9hm5326oLHpthO+H6KupW5hw+kSy/jR4VU46qRNmHh3pzfJi/IUToHu5Mazt4XWwoVH8Lf9klfBynF1STCV7JuWElG06LcONgl6dhUvpDKFrTQLmjEOOnmhQUbH4vUVYPXs97XN+GytB5aPwofh4Ndtr8f6975OAcxNIdMdnG5rFyV3gRXZRlnPMWN0NcTCgZls11n65ml5SPEZ3eT/AuQd6tgdjTh0Nl8qNSxzfPzKhRYLhWXi4/nbQ4YPReVhXkQYYp1h2HtHAwVMVF5pKa7Hu+3VOw6ITk+JziaQlKSekbFX6rUace9d5cHndokU42sRraSHYPhdmP/c1jCanK1Ss+gLyUbgTkF8JYcn7C1G72s9zhTgfRIFoDSar7rjfHQuXWxdZlKslYgHrKBdA6+aug6+2kRWB9rY9/KzBXK3a7+A+6DGsBx2J3rT9cHGD77GbCuHjf3UcDJW7LYWvM7JFA5VqPEab65i3fLcFlumURPHulSBJT1JPSNmy8APZPfMw4qQhCCrOmjvRoIbHSq/8ZDm2LN8srItYWaRC0rmbTa2OOVNnoSHYKETQmXC69bgsF0pGFGPs6WNQV1tHGTRam2nv8Ggmk6zd7YtK6YLZ8m1f2PnKLLovx159NGxy71OVSIE56uThyOueH97bVuhuUAFkGza2Lt6OkI/XB6OwxyYZSToYKSekhs0dxjU0VFbjgEsPQUF+tmg0YjGMbHuCxYwzkrNR1ieLpK6sAV8+9jW5tTydSGzg9iuWkpUzFmHtN+vhovPx0MXdzk+PPcLXzjFOG0/zuP/pY5FFrr3VRL8QDVWxga8x5LdQumo7LMr/Yu2l8GdtQ0F+r84YSG5zZJLjVIOvKbK5crMw9LCh4U/aBnsdOt1L7t5fuqIMoboAFSbSGpXsmZRLGdzJmt2n6h016HdAb/Q6oBslab5MFqfWmQPOt1jUgLlTZ2P7nG2sJmJve2HBa6wK4fU/vgQ1xPM0RoG4BmfL75mFseeMR2N9aNdE1bHDhr/Oj8p1sVnTiqsJBk8ZAM3D0+SFd6YwPLJtvwMH8Sxv7YfKjOqtVWiqaOCbL95LJD8k9YrYcE5trG9EVnYmjvzlcbBdzsQUQmyizMiGX8Hr/3wbaOJJKNqvAja5yt88+znK1tXQuyjd3BatSYf/4gh0HlAMBFhIow/Xj0KCHWoMkgDwNcYAuuz9Jg+kW5O6bn1LOJY779cFmXncp7T9hBpCKF9TSvHKdqpE8r+knJByQuW5IdUg1+1Z2O+IwRh/wjj6gOtJTRjKT9eXCkeWBI9dWq7SWz9zA1bN2kDHcOoLeYsK+jqLHVc61GyvISt3rqiHBVmnP+nOt4CNGZOOUzKoGIdfdzi9D8FHgsc3gT+LkdEsWpibSuvRwA1N7YKF04In04VCumZdLDsRo4uMIyqllZySTGQXFoT3tBO6v1sX8RwOoZjdI0nHIuWEtCVc32VrQRx3y6nI6poLk1fjFHWorYdXxzRqbHz77DcINPmjF1GGNZNEM0BSuvzjpahaUUsZipuzojyWEoAr04ujbzwKLpcLYrG5uGRMC+Xry2AGY2NBZuVnIaOzF9D4YlnyUxsWu+zCHGQV8uzusUDD+iWbxaQvaRB8SRJIaSHlq3ORFdR5QAlGnToMps5JOrpL1iyd5C+Exe8tRPnGcnA/8mjFiwWTp1dz+XRMf2QamoJNogGrtcNBd2G70HtUdww5enB4Bwt07HMmdxer215HBnNshDQnPwcZeV6YpsXebRpgw5PtQWan2Lj2fI8qNlZS+ZQeFrkk8aS0kDrr5WjIzNQw8cyJyM3JFM5mpHVWuPA/gWNDWfDXGnjrT+/CCHAzdnRqwN/mpVdnPT4DWxaUinWO3ErrrB0+FXfpcpbO1TDurLHI79aJwsUf0BNdYNSW7U/Akyjv3LzDOUd7oDDzlHV6nguZWbwujdM7IdUxVRMuTUdu1/Z2gXLgtntfRR0MMV+BFFLJ/5LSQtqMjb5T+mH4CUPblY2Xv78cK6etIoGIfk7O2k21+Piud0kKXeE90ZM7KBdTLphMQvfT9bztQaHSpqqsikS6/beXCyzu5K56uNiiAoHVP8Vhweeq9KzOmeE97YNDzY133BOCX0skPyRNhJQys1vD6becBz3L6RHKQwI5iUeDZYbw8cOfIFAd6QXw0wgDxFIw95VvsKO0iS6FO2a3HnGZbJZSTF92x6XwFpJVHY71eIkSdx8LNAWjr3r4AeLaLRuuDCo83CpstnCji/Kk4MS5DXdW2wu9lvDh7KAJwx/dvZfsO6SJkBJkZmX1zcER1x1FF60iiNYlalEBwNUAtPGCbJvmbsfq2WtF382fasHnj0wlIMasL3hjAb3RycpzlhxubUs9z5FqWDoGHzEEA48fQAela/mRc8YECqe/3k/nbk8dKR2E/nj6D83rgkfxitFNcb7yGKLA6/U236so41zc3fDvVNp85NcHm1pfAEv2LdJGSLl+kdfxmESucWH/zvCQOHH/6GjguTR9O32Y/czs8J4fhwWPl7D7/q352LaglPa0RUZUuHN1TLp0CjSd5++M8qLbiHOl7ZE9R0Qs24KmxbcqIuaEg81zGcSGcLc5fpWY2ydJM9LIIlXgsTV0G9gdw04cRCJK1laUOuGyvFBcNua/8z3WLeaZoX4CyjTmThvv/+dDGDY3UrV+4uYIOjwoHtYZI44cLjJjQoSU4kWciwPQDpy572njAQPk1nOVQQKuvt1EClheeyk2OCHniawlkj2RNkIq8gbnabeNgy49FHqBcDpJmFic9t4E0NJFM8iiVU1y1QwFb/zqVQTqGn7UquXuPp/c/y7qNzdBtXjqFJWO1gp3mY/JzfG0GWoIJ15/PLydMqCGLaS4iykJvjszyuGre4DnT7I1BabfQMg0RCPWXiM6hYhUQfibfCKuI1s0cLGx63d0PN2lQ3NplI6cQkoiaUn6WKRhOIEXjyjGUdcfTa56MLw3erZ8vRGLPlgK29x7BqtaswPzX1zYrkgacHR/jD51JGXI8I5EQOfyZGUIMWkPQkToICF/AHaQhJT2pYOEcBHL5VjA5wvvaR8sy5pHhScz+ikdJfsGaSikYqUgnHjTz1A8qFDs4Rb8VusUm6C0WbTNmjoHgfrmYZTCcmWp4D9yZ797ex5KN+2gYxtin9haAR+HvWEvidnpN58FxRvtMIL2wVm9oAsPj2x1rOwRDgd3efL7AjBDZJ+K2pRWRkIy4ftI97ehpr1DZCOQRZrpQgZb+RSl0Vq3ko5P2gmp0AbaTK+Bgy89GC7dS8LRWoVr3kw7hPVklW6cu9ERUNoE9GQoQfgoE855YR40i5f4ZZe++bEnWrqCLPa67cbQ44ei+6hiOqbIfeFvJgIFhb25M/qer7X1OL8P1YfITSaLNJoCK4nwPbKCNhrKYiOkKt0/T2EG1AynplQi+SFpaJE6mVunV2PPnIC8Adn0WkO0843qqhv+Gj8+vvPj3YRUtNTbKuY9NxcVy8uhmZQpo2y04O6WGlmhY88fK4YqJtqC4ezeqUcnipP2z8LK8dJQ3QhfLbnJCg+LTX0pZcEPNPrQUBEri1RBV176RuXqjXQoSiSJJm2LV83U0Ll3Z0w6byIJHfmcPOFw+NEq6PfsBK/+Yg0WTV/qGIz8j/zXpm1+vHXXu2RIck9MskdbYdgJS5XFWAixgb5TemPkoaN2CXQi4VN2JiHV3c1x0up42Q2ODwX+Wj/81U0wWxMRKQGJf30jAjubwu/bwu5h7T64p4iOH+yWSARpKKScmumySQctzcIRVxyFnP55wv0SH4knfvHj8NLCLDNcFzrtP9OckUAGt/jqmDX1KxJTsmZEpmHbtzUNDMKhpJPbUHN0XHD7edDpOdJSn0j4SvJ75COzIHNXnLQiSv6HiAD76nyoWr2D4kxEbupja6grbUD9jvrwjrbC952KUtVE73H90yLokuSQthYpwyOcPMUu/OyWs2HrbR++Vz5/K9bP3SxEoq68AYveWhh1J3QWHBZNi8zB8WdORJfxhcnLeHRiV4GGgqKCmFhQPBfrRoof7gCWBAM7arjbVvXqnWhol0XajJ6hoXhQDy4j06MgkSSctBZS0fpO2WbU0cPR/4CBwhKxWul+RqwtfjTWNmLJB4sRsIPY9N06lC8vRag1RmgLuOcAW7f5JZ1wxGWHiQmc+dhJwTLhzvCgqF9XCijHR2SLjkj8cIG1YtZymKFg+HipDTsnG+avQyhoNge9DZfNhQb/LL9rPvJKssWbNhxGsg+Q5kLKAXDD1cmFCeeOh9tNwmpyK3srkjtrXHizDQXLP1yCYL0P373xHfzkyupRzzXKcw650eeI3ug2uht0sfZUcoSUz+rJ8KLzoM5idRMh8m0RwHD8cNVx2cpt2DZve1LqfKOBr08PqFgwnbwKSh1czRF5RA0HnLZuQ7vDk0sRqXA1j0Tyv6S1kNpkfXLGYYtpzGnjkT0wD25K7Pw+GjRFQ+mKbVj0/EIsensxZTnOgtG3ePu9fhx97RFwZcZm1qG2wvORqm4dPUf3gu7iKor2Zn8SJ9OFz5/6iqc7EHGekoIavqTVX69H1eoqcRfbCjskfDi2bosHF8NF7n0otcsQSRJJayFlVLIYOMPkFGXjtN+fDlNzskDELd0rIpc4G0/MwUeZ+qdXEKrjNZT4dz8tPnx8kbfYcqFXEy+ajAHjBor3ye20zZOtAH3H9IWeybNV8W1uw/WE4yeimcs+XoLKzTthkZpyh/ddH6QAwuKkW2+EDLxz9zvQLa72ac/1URqiMLp1D/rs3wea5oKe9rlFEi/SOmnsEkuhEybGnzMO/Q4a4FgirBu07U0+HGfPeUQw6sXocvGaF5BrDSyYXE+bWZyB8/96Pgk597UMf5g0yIKkOCgaUITicSWkd6QwvEVJy/jhXg5GWRCL3v0WPnrwyK29x24ycO7dxm83Yc2XK4TQt+c2cGHKXd/0Qh39J3CLvVO8SiR7ouOUsWR1cYfpY284CmqeS1gT8YYtHhZR3a3hgAunQOvkJmHVhDuYXOi2krVoaSaO+vkx9NaC1o6L4sKKLX8fafGiN5chWEECwzKVQg1PXFj4Qya+fflbaI10DygO+N60B+5H3GdyX+T1zAvvkUj2TIcRUg6IpaoYcMAg9J/cm95rQugcGQhbrq2BfxLZ9gAfJXI8jVcBpS23czYmnjURbu4ALwYGJBk2yEXVgoLRR49C536dYJIoRK6bH9HhRIaiGFg3dxMWvf09vaPYTbJr37Ku1qLwVi4rxYK354v3HH6+P9HC0SaijsKsqi4cc/URUHWKMWenRLJHOoyQshnIi9J5O2figEsPgV8P8M5wzqCXrcwHEXeWH3um+XjcZ9RlqRh00hD0GNOddtopleGEYOZomHj+AWQ8clyInc4WJc7PyH0OmHjlxldRsb5cWP3JFNNIXPNqB5bfwht/eA2+sgAlBb6m6K/LOZrzWx4tVzK6CEMOHkrvO042kcSHDpNCRDcfygqKbWLkicMxaPJA3hveYssui47OmVms4+TfnUY7UzMqdQr+kOOHIreEZ8pyaI9HzsG0Gkw898upqC2rFdGbNC3lc5OImkEDn/zzIyz7dCXZyW0fmNEyGKpbw2GXHoGQm+teJZIfp8MIqbCY6B+71t5MHeffezHc2dxi7bigsbKc2FI1bF6FlI9n4ahfHYPC3p3EBaSa+yeuhyyr7kN6os/k3ryDrOjmBrXWwt8WjTe8WeIwWDtzLT594GOYtM/kYyZDTS0TAS2E+W/Ox/QHpkOnC+NH5H5Hf01OS7+leFDcvwgDjhgAV3hOBonkx+gwQtoSbmgoGlWAUaeME8IaS1gqNZVnm7JQPLQEYy+YxFlXZOBUhOtws7O8OPSKw6DoPtGjoT2Tj3BIeaID02di+j2f4dN7piHo97H8JFRM+VwhugvrZm7HW79/E4FatkTbe35up+claRQMO2kkCgd1Ep5OOsx4JUkuHVNIKeG7FB2TL5qIrMIM2hPjjMB9f3QVY0+bgIKiHJjC8kuciESDuCoSnf6HD8CYnx1I16q2W/B4KCyP/LIDwDt/fAPv3/I+mqq5TprP5zwcYhcnu45EL1jsuL/onOfm4NmzH0T1llrng3ZDxSHFj6vAxCGXHwaPzXPdxjIUko5KhxNSdme524pNz4On7Icek3qS/dT+Lkl8XHFsYXva8OZ5cNClB0HX3WShiiwY/mZqIW6wpsDjceO8288TY8bZII2Eh7fo4BgQ9qd4FSJBm3b3DDx2yUOwamyxUqvCnXBNErzWdsb9KVjJ6HiGEFE6b8jGtLum4fnrXhCTzDhOB/+LbNHRMi5UKiTO/uc5KBjQGTxxF0VdG+JIsq8RfapLAzhQbHWpHhdO+f3psLPI7WtDh/S9YaoKjvnVMcjrkxXekx54e2g46OpDoLljM4SV41lXNCHMq99bjT/u/zt8+9hM1JbXI6SFSIDa149zF1QwmqqJYEMQyz5ZgnuP/zfevfltwB97gRt89GCM5QKS51SUSFpJhxRSYcHwE5mKvSf2wEHnHynsp3YR/jnPvl40sghH/+JoMQdqOlkrtkZCetHBKB5RFLt6PzoO99fUKB5q1vvw6m/fxH0n3IsZD3yGugpHSDnqRPRFXoTjco+EP+P75dRYAqFGA0s/XIqHz7gfz13wLFZ9th4WnZMt41jANR28zHZWlywc+Zuj4NH5vNFNoyjZt+mQQsr1XDw3KGcFfj7k+kOQ36MT7XeEkLdoMdi3pOhSyNc76uqjoOW60kpEGZetI69XFi64+3yo2c618+ifiFsbbXgisWiR7nDrPfvfwcYAti3chjevfw03Dv8FXvrVC9gwYwMqN+xAY30TfAE/fJaPI5R+SHJJKsb9QG3y2y1y2X2GT8xuX1dah/K52/H5nZ/h5gl/xj2n3oM1JKB1OxrJQCVvg04unAyuPqCNjxPZooVHbfFcC+MuGouhhw0Wh+Q9Eklr6ZgWaQs4UxT2y3OWRG5jaDlTsQtrKkF0G9sDw48dJjIyr5+ebvDEcn0O7o/Tbj8VepYbWhyCYPCkJnADVSq+uO8r3H7sP3DHQbfh0VMfxatXv4x3yGp9629v4cM7PsTH//4IH//rI7x72zt49Y+v4K1fvIHnzn0Wdx1+N2455DY8+/vnULeiFhmGB7YZopsRuyqaCFxIDj59IE7542lQXTqlk/ZOeCLZ1+jwQsrDGr0uNyZedCA8uV7eI9y4aGA3ky0dFogpp09GTq+ceOTnBBCikOjQDBWTLpmIcWeNItHQm03LGOGxeG5WsoDF+RSopo6GbQ1Y+eVqfP3cbHx2/zf4+PaP8fYt7+DNP7+Nd/76Lt6/9QPM+M9n+PzJmfj+w4XYvqoU8FvIhFdUQ3C9tEIWtWLHzuXmYLMV3nNMT5z7nwuQlZPBO8SINU4nEklr6fhCartA+Rq9R3fHqJ+Noj2RmrefJlIN4GwKuvTrislXTIRbIWvLxZGXZtHHk02zPpDKZWfl4fS/no7ig7rBVi2KJ7bMnHCKrR1CwpUgXGVgUiSJGCJh4tmT2PrVxCunZV81aV9IhRIkx5oEkvu48uc8c5WLCju+BrZt+Y5xazofld+1lV1ho01cEV1cVkkuzrz1DOT2zqEbynu5pT7t7qwkyXT49BLJOLqu47S//gz5++WTS96GzJgJnH/neXAVslWb/rCVndUjB9f891r0O2oADNWAug+1r7DzntHVhYsevBCDjhrIdjrtlfIpaRsdPuVwQwYLKZPTLQvn3HoB3B7ONmSViDrOvVtewj7hjudkqRxy3kEYdNIg6OSmdgSElafwktaFuOKhy9BtZAl0g8RExInTS7SjIfoXU9j43nsLMnD1Yzeg/2m9qQCh9EDWcZQ1PhLJLjp80oksh8xiys7jkBOG4oy7z0ZunwLR29oRU7ZQnc2ZW57F18l43kI3DrrmKJzw55Ph0rW0bGDaE7y8inCeKXoK+hXi6mevQ59De3FvJvLE2f2mT8PWPD9iQcuW9Z/cYiTku8JAm+iuRmrp7e7Fufefi/7H9IUX2U4uoPIxNqGU7IvsW2WwaUPNVDH58sn4xfu/xOm3/QzF47oio9AFd4EKd76KjE4ueDpp6NInH4dfdSSuf/M6nPLvk5DZwwvF4hFSHTG7Keg8vAhXPPdz7H/+eNhuKmC4W0IHgxuROo/qjOtfuQFjzx0HxU3Fhei2JZG0j31KSG3dhsvW4NXd6DG4BEfedBj+NudvuLfyYdxX+Rju3/EYvX4E91Y8ilvX3YnTHz4DPQ7uhxxXBtmyLrZT2YjtcAiDjMLVqWc+LnngQhxxxSHQcjigTuMLP6ctfOnhrc+UPvj11OtRfEARdJX8E4Ot1I5XYEgSzz4lpOzcC2WgUHPHep3EkfsM8j5uaGE3lzfR6EL73PR9N/t8/Bm977CLn3EUCEubApjrxun3nIOLHr0cJaO6OR/uqvqICGv64FQSOI9hR41AZu9ceMxMCgffUNrCVT8SSXuQqUiyGy5TgYvKjrFnjMIN7/4ao88bDZMseVHHSBsLUroy/d5PsOTNJfBrvvAeiSQ2SCGV7IaYx5gE06W5kNczB1c993P8Yuov0XtSXzFrPJvnolpRYevUeUT44ftUw1/rw9TfT8XWGdvEzPo8RJXtbImkvUghlewGS6XQQtqEKKoKRv1sJK59/Rpc/MjF6DWpFxRyh8XoMBLTyFBK8d3w71IWW0P9dh8evvhhLP1kKYIweRVviaTdSCGV/CQskjwCaMSlY/DHr36Hn0+9ApmDcxBUyZ4j5eWx6k43stSGNV61LQS3hfDyr6eidvFOWPGYbECyzxEnISW3j9InZ0DuLhTNgwexcy/GtszQlF6wU0kqRE8i3Pw/yrjihw0XbeIg8YPuha6oyLDdUFw6xpwxGv+Z+y/86uXrcNDlB6LX6F7QM7hXA5t3zn3j/xQccYXOxTlDPsVrEc7d2RWeXffd+Q3/iidaYZyuZ5HPo8e5EgsBJYidq2vx5HVPoHxVlbMKqXDzEzcHqcJriXEYKV4jYY/2wVcs4oaP1SF6H3BcsHaEn3c9mtNHtA8+Cndxi3cVTlyE1LZIICjR6yJSeAwNr3DUyo0ikeeaFO2sHbhrCoeRgigmLOYYEk4yhXePcbKXjWej5yQHy6DfcnKLF+Fjh594RJSSo2DoGcNx1oNn49q3rsFv3/sVjvm/o1E0qisUry6u0BDz3FEwyX821RDtcaRRpXvMNQMs0KLxitIKXz4LpU3uNznc9H36vRYk91vYu/QrCqtYdLDt4eSMJa6AtYeOunHOVjxy/oOoWlfhDJFNwKi1yIADMX2MTSGlSNnTvW3Nxr1QeDFDMQ0BhynN84u4ek4zdJs4TzgPzhP8+N/wt2bjZch5XgeT7ns8ofPELvYjh9q6dBsWvDKfMkGQ4sQRxdaiUCbllDH8mEHY76Ch9L7tGSeVYXHQyBKqKq3BFw9/yVpCcAkaRaUd/YYlpv/o3hh9ylhw1CU0vvi28kanDJKVx7gNN8yKIBZ8vgBLvlqG8jWVqCurB+pN1AWbgJABzbARCDqpIhxscd28uXUdiodC5VKRnZ2DjKIMdB5QhH6j+uCrF2aifH45ZZDWp6e9w0UQxbWuYfiJw3Dxo5cgu2sW7Ytv/EXyyJYllEfenI+AEWBpF/uihWfFYonpN7o/xpw+WnTlS+f8wilCMQ0ESfjmvzEf2yiOnPDwHW/bPVddwIHnTkHRgBK+5XEjpkIagUsClSLDEqNjokuaHGGcsEwqs7kXZ0dFRDqVvqKg2a0aI5rbwaU1H8H5VVszZFtx7i6/CL+iP8d6CO+n/xp9FqwPoaGyAXXljWisqYOvvgGWX0coFIJpktVA4Xe73XB5XFBzXcjOy0J+5zzkFOfAlUtWIgXLoPRQvbQGT17+BDbN3cRHpuM77h8TbUbjyb/ZWzLp2CxAI88diUvuuRgZBRnifMK9dA4dc/haeW4svnMRF7ZtRGLa2dp+nNRACCmlF07TjoBG7ml097Ylji/D/518Ei/iIqQSyZ4QchtObY6QUGFLYsbzITgS0CwGnCxbWleWZQjB3TB7O+4/9d8wK0mgVXbdnM+jTcYtj82CyuMuRp05Dpc8finUbBUuiyd4Dn9BIvkJZFKRJAyWOra+Tcske5IXzeM5SunZIiEV255FlH/p2G4aek3ujiue+jn0bq5dIsoHbvntaBHrPxkqFr+9GNPu+BCqn2yj9hxQss+h/ZUIv5ZI4oqjTeRikQUqqjN4B1f/8HN4Ezbpnnxq2idcYXouHNgFnbt0wYpvViDU1NxTwLFn9/DbPRD5nvilODe5lCGyeBduoGsz0G9iP6g8Oxh9yKLa2uNK9k2kRSpJKBE5ioieU0/Y/NgzQumcP7JaeWaqseeOxdG/OpasyZDzlfCcCXs9xA/g+jh+8CvnJ/zfhtEQwht/fROzH58Ny2DL1Knvl0h+DCmkkvSCLEfV1qC4NRz560NxzP8dDz2T3nO7C9eTOsZpm2Brlx+ZZgbe+ee7mP/aIpgmH1AOf5L8OFJIJekFiR2voc9t9q4MD07+4/E46NKDYKk84z+74mxbNj9ahRDg8MZHoJ81VTTg+f/7L1ZNWy4m8zZtXtGKHuI7EsnuSCGVpC08CMHOUXD8n47H4OOGIaSQ2PHgedbPyNYKwvK5i8h7azvwyCWPYe1XG7jbAMTqoiTWEskPkUIqSVt4UmbdVpHTJRuX3c+L2A0inaMkHVbFluIYLfxb0w7BqjDwwm9eQtninbSP+zk6n0skLZH9SCUdA7IYq9fW4OELHsaWeVvIHScxpKTNSytHiCapC7szrJq89r82wIXbPv47cnvliF4HLbvCSyTSIpV0CFgjcwbm4sw7zkRen3yyVnmuh9hgmQbsVTYevOghVG6oIhENiBNKEZVEkEIq6RCw4alZOvof1g9XPXs18oZ1Ak9U4XRxIuiJBx86ZqTTKPWjG32v+TVPEOPDljlb8MqNr8Cq59VkTSHe/LlEIl17SYcjYPrRtKoJD1z5MMq+3SamyeOZpdykjuySc2cmnhHASfhsWf64bdlygIBlhzDwlMG4/rkboOfqJNX0azrQHgcRSPYZ5MgmSYeDp/lzddYx8dSJ6NSjAIpXQaDeD78RQNDgWaosIXyOccrPjpu+t62FbSoGA9SsrEFdQz0GTewPt9clRFoK6b6NtEglHQ8yOQ2NbE/uHkXmYrDOj/qyGjRVBLB92TZsX7kNDWUNYvYpQRQaaCsqVNOE6tUx6ecTMHzKcFi6JuvI9nGkkEr2TdjHZzj1t9GYFBO+8bwB3PAkLdJ9Gimkkn0SriONSF/b+4bSEaSASgjpkUj2SWzbaWwSrfqsha3cnNZ85yH2SSSEtEglEomkXQD/D7iMh2Xr7bpQAAAAAElFTkSuQmCC;" parent="1" vertex="1">
          <mxGeometry x="519" y="205" width="34.66" height="30.97" as="geometry" />
        </mxCell>
        <mxCell id="7qv9D-rVaQOXauU0Sa_8-12" value="" style="shape=image;verticalLabelPosition=bottom;labelBackgroundColor=default;verticalAlign=top;aspect=fixed;imageAspect=0;image=data:image/png,iVBORw0KGgoAAAANSUhEUgAAAVIAAAEuCAYAAADcNZpVAAAAAXNSR0IArs4c6QAAAARnQU1BAACxjwv8YQUAAAAJcEhZcwAADsMAAA7DAcdvqGQAAHQCSURBVHhe7Z0FYBzH1cf/CwdiybJlyYwxc0xxmJkaZmygaVJIv7RN27RN2iRtGmZq2GFGxw45sWM7jpkZhbZYRwvfe7N3lpzaiU46lOd3Wt3d3t3uzuzMf94bVGwCEolEImkzavhZIpFIJG1ECqlEIpG0EymkEolE0k6kkEokEkk7kUIqkUgk7UQKqUQikbQTKaQSiUTSTqSQSiQSSTuRQiqRSCTtRAqpRCKRtBMppBKJRNJOpJBKJBJJO5GTlqQIkdugWAos24CtaTADFiqXbcemxevRUN1AX+JvqPTd9Cz/AqofiqKgZ8+eGH7cMOhZLpj00GyNPlXEXzrC987yB/DFCzPhrw/yHYIBC5qiQzM5bKmBoQWR1SkXvQb0Qc/RPWFnWXAbGmxdoSu2oXIaVKRt1RakkKYIkdtgmgrqynZi/ouzMP2JWajZvAN2iDKBo6IkRDZtlnidbrgsXWglZ9qMvrk44JxJmPCz8cjv3QlZudnQ3OmppHzvDISw/dutmPrbV7B+7iaodB8tKiQs1Qx/K/m4LCqc6QFVQUHvAhx65UGYcN6ByCuhuNco7jVXupZlSUcKaYoQuQ2rv1yF1//wNtbP2wjNMilh6/QZ26GUAcia4+8paVojE0loLKTCBqJCISM3C30n9kP/w/pg4mnj0WW/4vC3OLjpka3FveM/KuCqt9Vg1lNUCD44A/6qppS6V2wlq1wQiwSlkedjo+/4Xjj91p+h/9H9odtuTmKSNiCFNAWwTRZMDfWVVfjbpDvRuGkn5UsvbUb4Gx2PliLJgsoepSvTjSEnDsM5fzsLef0zONuT2++i//QhGeGmygJAhhPFVioTIg9i7Ver8MSlT8C/pQkhJRC+Zt35ApHsbNcy/rN65uIvs29GNlumSupURaQTUkhTAIPuQKjGj7uP/wc2zy2Daqvw0W3xpLhgtIfdhTRcVWE7FrflCmH0cRMw6ZzJ6Hdgb+T1yGIdpd+4yGqi36V4tNiGAZvc5/K1O/D6n1/HmveXotFvw9Uiq6WOkHLdqImi8cX43Uc3I6swI7xfEg1SSFMBcuFnPv8NnrnkZbjoLUkJaYVFz/uekFKgYZDlqZHp6crU0WVQZ4w6bjgO/fnRyOmZE7bpUjteDG5AszTYloWmxkbMe24eXv/TWzDryVQNkypCypdh0UOnGD//iXNx4BUHi/2S6JBCmgIYTSE8dfnT+O7l75pdK7orXJe4r9FSYIU/T3CBouQBh1x1CI6/9kR4SlxwuTz0CddAkhXL7Sep6pFSIckVN6Xfl+K+8+9Hw+o6hERBQXeXPuMCw460lCftnlPRTZew/+n744JnzkNWRjZFLcW9bMFvNTKmUoD62kZUbdkJdTcRkbREqVHw1b8+xz8OuhXv3fgu1ny1DraP28UNyu9CgVITtkxJkIrHdsWN7/8WYy8dR9YLN/tQ8UCFZipcNl8DF2BVW6vgr/bRe94jpSEaZGylAMGmAEI1lLnYtJL8Dwrlay5i2AGt2lKHGQ9+jUfOfBQPXPAgKpaViU/EF1IQWw9Bp+vnjl9dBnTCxfdcjIseugxur1eIKddmpAqB2gDMJiqcqGBKBYFPJ6SQpgKUai0rQDeDO9tTIuZtH03Ku8IvNm584o5SIMuT/tsW3KIeNYRAZSNWvrUMfx9zG1785VRsXrAZoYCfvm/wQUScpkKxpHCtN+cylZx4RYc7z4UDr56MK166FF0HdhVh4m5IyRRUjmHFtLieDzx+QLfodYoWTKmKFFJJ2sLiaoWAmY/MxP0n3YfXfvsGNn+/hUolBYYSgpaiZRG70SNPGI0rnr8YI04aAUs3nRFtaTrQQiKFVJLGZNgquI3JtlyoLm/AVw/Nwn8OuxvP/ekF2E1s06euMKmaiV5jBuCyF67EoRdOgaKypR3+UJJ2SCGVpBUsjxHXP0jvnU5iIbjYjycrNNgQwOw7ZuJv4/+GmY/NxM6t1WS5WjDJhW5ZbZB8NCi6jYycDJx53wU45i/HIrNrFrn4LP/SMk03pJBKOhxB1UDV8iq8+puX8NC5D2Huy3NhhRwhZXbvYpUc+Boim5qp4qQ/HIsLHr4Q2X1ySWJTfeyW5IdIIU0jmjOXzGZ7huNFgUauvgI3/H4F279eh2fO/y8eveBRVGypgGmQvWelUO8I0nbuDG/pbow9eSR+8+IvkdHNTQartErTCSmkKQEJgJgaT4PJL52dws3jz8TEF2xFsfUSvmXcEZ03fohfiD5CzubMEBXZmi2fjgwbm5GNW6Etcvw1esNdpkg5sfS1RfjPQXfjvds/QENZHe1yZmwinz98hCTBt1UDXHyLdQ0lk7vj5ml/xpDjh0OhneI+i1sfvp/hn0lSC+2vRPi1JEn4m4Io21iKjE5ZKOzVCZ5ObmQUemG6bJhuG7ZuQrUtmFaIhCFEmYkfulOTRpaLRbmLvkUPp6vQ7qXjvp71moWyqTGIrV9twHfvLUJmSQ56DOyJEOlsy9b9ZBY4iujaZcPd1YvBhwzF9o1bUbp8O91PVtnwl+JyP50IyO6cg/3Pm4Ccgkw6ze6pSPLjyCGiKYBtkzhaGoI8dJCsDpusJbZEYKjkihowgmRfBU2E/AEEmgJoKK9D7eYdqN1ei8pNO1G1fqeY+NkIhBBsoq0xAH+DT3zXMXEd6RUd18Uz33IWXXpm4RBJwPmG2NehaA6PCg/FsY+EU4XLo2Dy5ZNxwi9PQF7/QmEVinjiSOC4oWfxMoGIopBvEd0PUzNgN6l4+XevYs5zsxGie+p8qfmqYnennGqE4sEluPr9X6CkbyFFVvNMVZKfRgppGsM3zjYtEl6ySklsQySiTTVNqK2sRW15LWpIaH07/NixsQrblm/FtjXb4avxQbV4ajqepM6xOgzKm5R1heuokqB3VHa3Nlk8NHQaWoCjrj4aUy6dBM3rIkOMYoUi1qbvJtE4FWWbBSpEawx88tAMvHvrW3AFXeR98Mj9yHdidYFSSNuLFNI0hi0YYcXQLbTJv1c0lkeeYShcgyrMqkYYPCMFSCR2Qojr6oVrMP+177F87lIEdwagGi76VBdi2pG73rQUUg6lLpY4oRC7gEGHDcFVz14Bb5dMYZ0qVDiBRDVZkFNCN5gKSRJOFsx5T8zGo9c/DW/Izfay+I4U0tRBCmkas0tIOWvRXeRnMir5hdjPJpW4uyK/cUs1rybEOH0V7QYT9aU12DhvM1Z9uxpV63egbkstKjZVoKnOTy4wN3TwsFXOalzdII5KOK/4sHxOJvJJKhO5VoYnKoRiiPjizvAhuv7OfYtw8p+Ow8SzyDrN4O+KChb6QvPvEom4p3xqjn8lgNlPzMNbf3obdZV1olBoORCqfbEvhbS9SCGVUIYlGTRtBPwBNFTWonpTLUpXVmDptKVY+tUSGDuDcNk6iY1B0uJYu5R0KPPymOywyFAqSgcx3RORMPDV6zkuDDy8D86/42IU9MsRLeegsGtJElMBXZhJom/6DCx+aykev+5x6NUsruHPifZZp1JI24sUUkk4o/K8mSSUtgvOHJnhETY7gbVzV+PLqTOxatpKmHUmAkG/qFjlh9NFyzlGugsp141ybwifbqBr72xcfN9lGHDkIGguCmkS3XyOVZMnElHpjlB23Th9I+6/6G6Eypv7w0ohTS5SSCUOnAp44/xI4hh5yS+EWFKebar2YcOCTVjz1WqULSrFqm9XoKGqQSyaxlnRycr8X4zXDG98pNSmpcsPbswhUeKpl7VCFYddfSiO/PkRyO+ZT/EgvrD79xMAV6vwNUXKrCC5+UteXY6Xfv0iGkpr6ZLC9eFhoi/QpJC2FymkkujgSYktE41NJuq3NWD7nC348MEPsW3hVtGDgNu1eEo2yon0EH2KxM/SAUcnI4JEFjlfukdBzwld8Ysnf4XcgVkUIp2+kjzrlMsonurODBpY+dUqPHb6QwjVh6CK/lsO0WdpKaTtRQqpJDo4tdDGycbQKFfTsxK0Ub5iB2Y8Mx2bP9+A0o2VCDb6oZOqCjFKE1oKaXO24PVdSVe66rj4/ksw8oTh8GR5nY+SAV2XyX2DNW7RD2Hpe2vw7FWPw1fGU7g4SCFNPFJIJVHBbiNLjWNz0itOPbTZqkWWqILaijpsJCt11Rcr8d2781C9oQaasOD4u1wPy04zs2erLtn1rBG3na+CHXx+y/OEik78+R5Mungyzvj7WdByKBw2iQ19ha3wRNmoooFPDCcmLAuGFcR3Ly3E09c8DfjpOjiuHV0UtC4+pZC2FymkkphjwUdWkYZgg4V1H2zAf//yBAJrmhBQWITJ/adnnUXoh1BKTLaQRhCC6mgqwdfkXBcvB501OBd/+OQvyOzFfTrZYnUnTEh3gxwC4RWYKha/MQ+PnPsUeQE6WapcR+3QuuwthbS9yLH2kthjubgvOXSPhsIRhTjy4iNRPLmYDCgVZp0PDbWhsFWauuwupM2Y5PqHqgJY+vlCdOnWFV37dxEt+hFLNqGwenPDGFnMJUO6w5vjwZq5q2EFWpikrcIRWznWvu1IIZXEHG5AVnmoJYmOSm6o5tVQMqg7hh8zCsOOHoxuvbti01pnuKpL15wJmGjjkVX8G66mTIIs/Q+7XwO/c/bw//qKRiz+bAm51jb67t8HOvedouKB17QX7nUCYOvd6dVL/ynSuo/oDiNgYu3Xa8PDXPmaWhOT/D0ppO1BCqkk5uwmOeF8zBYbi2ZWt0wMmDQQB10yCZ5cD9av2gjVx3V9hsj4ot5V/CD8nGI4lipfmwKzwcSmrzagodGP3pMGQPVyL1RNiFoi2GU108ad811uBYMPHIqKbZXYtngbt0s53/lJpJC2FymkksSh8nSA5PZrJKpuHQMOHoCDzjkYWT1zEWoMoXZzTfiLTGsEIPHsEi+CG34My8LmeetQuqYM/Uf0RmbnDBLSxIsQV6WIZkDdwqBDBmPHlgqUL69oZR2pFNL2IhubJAmEk1qzQDo9ABSEzCDsKhsrZ6/CK396GdXLasUqoJbt2Kc6WaotR+6kYoOUpVkoGVWMnz91JbqOKCHLlFv06Tqp0Eg4ZN1Xba7HfWfejfLvy8Mzeu0eZ7vHoWxsai+y2JEkkN1FJeJ2cqu3VuTB0FOH4Y9f/h4n/ft4dB1eAq+HhZRnsqeMzl9Ngia1FtVQUTq/HA+d+yg2zl0PMxSEqUbb6BMrNOT3zsFvpl6PzoO7iCoTg5cKTPE4TGekkEqSDo8h5xUANEtBRmEOjv7Nsbju3etwyp1norB3Pn/D+WIKw4UCD8ffubIcj538FL6Z+i2sUHIs51C432vugHxc+shF6NS3k8zocUbGryTpcJ2i6ELELf0kSJqqoWufLjj8hkPwz8X/xBHXHwWfi8SW9ofoYYEnoRa/FA07iWrc+SHsHnPNmNjYVRbVDzp27tiBl254CQteXQDD5n6eBgzDcH6UAFyKJuJSgwv9pvTHSX89nnK6GxYVVmLy7vD3JLFDNjZJUhPSJYUsK8NtYsThwzDyiKFoqGtCfWktDD/XrTpbWFGTTsv6Ug8JqhECFnz0Hdy6B8WjusOT6XTeTzTcINZjWDfobg1rZ68jK5lrRHmW/ZbX4ljOsrGp7cjYkqQoZD1ZZF1Zbvqnod+BfXHR0+fhkucuR9GIIjERs8XLa6YgAdHQZMEOKvjgb+/jw9veRSAQXnMpwai2TprowhE3HYFDLz8INq/0lyKFT0dCWqSS1IQzO1tF9Ofke+4y5UbRwK44+OIpcLuAbSu2w9fAk01HGnVSQyBUcp+5mzxPbRcg03TDvA0wm4LoO6kfdCoULIWvOUFju/haKFp0VUf3UT2wYcF61G7YIex5ji9d0YTVykiLtO1IIZWkBZG6UCGVZKT2nzII/Q8YCNsfxLY15TwfSorIqHOtEVimbEvD+llrUL+jEf0m9UGGJythvuCueKPNk+VCr5G9sWLGSjTUNIgRWKLeNPxdKaRtR8aWJK0wyd9XbA06GXSDJvfFOc+ciysevxTZBSROKQg37fDAUZssv7lPfYdX//gmgnrzlHeJRNEUskp74qpnL0NeQS4MmxdKdOpHJe1DdshPAeoq6vDV01/DX9kAd6YHmZmZUDUVGfmZcGe4xD5eS0jzaNDcCrRMjawLNzyZGfBmZdCzS3xfjKghL41v6K4lQFRnhSXhvXXAYjOSfKvX7sCLf3gZqz5dA7MhAJPrKMm1brnWUrKTOtvTBkIYd+44nHv3hcjtkiXuWaKNP8uwMP3eT/H2ze/CCgad9EKPksHdZIf8NiKFNAUoXVuOh095BJXLt4u5LcUdoX/cFUjRSQjoT+OETVYYD630ZHuh5XiQnZuF/MJseArdyCB3LLckF0WDuqLHoB4o6V0CxUuH4XlC2YXjY7W41S3dz46AQeIQ8AWw6I15ePsvr6FmSwOFUadQN9dFJjup89qrFo/Gp6jf/+KxOPs/5yEzP4OENPH3omFnPV799auY9dw3FEOiAkIKaTuQQpoCVKytwKMnPorSVesps7nDe7lzj04Zj9eap2TOo2Q0ejYpjdvc35IyJQmkwR3ZWSzoLvLK9JZwI8mdJAs2t1sOBhzaH+OPn4gBBw4i65VbcLnjePPCygy/T3d4Jn6V4oYLolA18MB592PVjCXQxPBIh2QndZZLiyxSRfPCMm0ceO3+OP/ei6C7XM4XEolpIBgI4M4D78PWBRtFeiiRQ0TbjBTSFKCcLNKHTn4A5SvK6V37Rc0xNp3bqipuBBGAlqEhtygXfcf0xuCJ+yGndy4K+3dB10HFyMrKIAFypJXXsrdoY3czXW1WXjIqUN2Ezx7+DJ/TVl/WQGGjAqeFD92+VTdjgQpTN3HolVNw6t9PE5Od8IQuiYp0k7I9jyRbP2cNHr/wv6he30BCmo2rPvglSvp0oesgIU3XBJAEZKt9CtC4sxHzps5FY1UjvWt/6t3Na+cMw30JQ0BTbZMQ6xWfr8Gi95Zh0QeL8f1bC7Dym5VA0Ea3niWAl62mIAkwVwY0W3PphEphVrIU9JzUG8OnjMTGletRu5VbqcNfECRXJUSXIzKfS5eUilFPQw4aClX08UyMd8ArFTC5xfnQs1UsfP87ZHfphPHn7Y+c/CznOqSQthoppClAzIVU/OP/iphFiYcFMlznKrIwrwRq+mDWB9GwtQ5li7Zi/hvz8ekD07H4q6XwujLhycokl5/7brKVFHFa0iNn8dyc7NK7NV0sozzyuJEoW7MZ1ZvrREOLgxMWbgBKBnxeTSVHn1z8dXPWIacgG8XjekLn7gisp3Gtw+b7SfHAJYumoN+I/qjaWIa68kaMP5eFNJsuQAppNEghTQFiLaQtcTp+tzwmZ2Gevd5F2YmXqeBdLLEqrJCFHWtrMO+teZj70jys/2Y9KjaUwwiEUFDUSfTf5O5HKrv+Edc4BTObEEcRLoWu10BmdhbGnDgergId25dsh78+ROF21jVyapsTjyOUztwCCin/sq+WIyMzE73G9ITlciYdcQrDeEDnFPdcDBuAoRkYedAIlG8sRd+JvZHdKZ8uTTRPhr8v+SlkHWkKEOs60tawN4uHJ9lg8eVH0NVEoqkh05uNzG7ZGHPmKJx03UnQij2UxUJw0WdosZ56KmJaFB5VFc9WMIT18zbhwdMeQtPOJiFW/EgGu8U/vyQDUS9w49KHLsGoc0dA50ayBDUCcqd8w/LDV+aHO8cDLScDOgltcmImPZFCmgIkRUj3Zm3Qbl5+mOtWXbaX5NKgfTxzEVsoOjJydAw8ahAmXXoIeg4tQVHvIthivSL6IddNxs2KahucvLk+ksMkxInEs6a0Es9e/BJWfLMSZoALDic2EpkRIvHP53Sa+XjYqAvuEg1Xv3QtBh0yjN6zz0Dfi2OUijCL+0aFjtjjnI69jniet6MhhTQFSIaQRsMPM7NiU6b3aCge3B19yBU84KLJ6D9+P4Q0Eiuyovirke5VqSiszI7ttfj0Xx/i8/tn0PWShU3Rblkhep34+G+OIxI0ErDMPlm46qkrMfCQQbTHgqqlttUv4TwhhTTppJOQGiyQ7HKaNjRy6zUSVcNjoeTgYlz29yvQbUwxNJdrlzikqpByf047pOKLJ2fhpd89B6VJhZvCZXGH1ASzK47o2tihNunRfVwJfvXqjfD0zYCHq1CS0Glf0npkY1MKEM/GplgRcUU1etZEhuc5LdkdJBvO1BBcH8LMZz/HylmrELRM5OblIDMvQ5QL3GdT/DoFgtYs7GQ5k3B2H1uC7t27YdP369FU66dLpEeCrzMSt+zIW3RytkBry2qxbdM2DD1iBLxZ3GGfv0UinyoRKdkNaZGmAKluke4NIQCRPG1bu15rHg8K+3fCuLPG4JQbT4SRyfWTLtFDIOUsVNpCQQPl88pw/2X3o351rejnICzvBAtWy/ikjImgpmDiOWNw4aOXwJPFlQ50ZVwHkeDrkvw06ZNrJakNCaQok+nPCPlRsawcH90yDb/ofQPmPTAH1aW1u9zqVIIlSXOrKDmgGL974/9QOKGIrGynW1Iy4ZFmugksen0xvnjkcygh9gE4fqWIpiLStU8B0sG13xMRlzSC857+2xoMhcf8k7PaRGIwfTGWfb4CgUYfCnt2hSs73HhCusCt6cnuaKNaZO1RQeAt8mDw+CHYvqEMVesqRHicEEZCFn8iZ+TGOh7tHrJsbFmyEd0GdUPRkGIRU1wcpZplv68jLVJJm+HM3vxwMrizcYdyTXShsehhGzbKFmzD+ze9i1uP/DuWvrmExEtFSA2SkqZAizTnAq6bJNe5ZFQJfvnCdRjxs5EiVKK7PncH49FdXDA4v4gbkdjkiWm4vpRjx1fuw2OXP4JtC0qpgKJPZW1cyiGFVBJXIsJjk2XlN000rarDQ+c8in+dcAfWfbgOdpAsVxKGyJZMxLXaZCF3UXHh/Rdh1NljYKaE5afA3OnG1F8/h9rN1WKPFNPUQrr2KUC6uvatgV3ViB2nhSf643q+2vXVmD/9e2xfVobiAV2R3TVHfGuXa0tWYOR1whBWKT3o2ZvjxpApQ+FrDGDjwo08YlLAYXGuM/40h58KGbJE67fXwO9vwvBjx9A1spDS5wmOIsmekRapJK40200sqDx2xpEH7q4ZqAxg7tQ5uP3QOzHnyVkIhLgHpQHDCpIXnaSkKbSJHyo8JRk4844zxYAD7sbpFAl04Ql28xmySWGGLMx8aCa+fmoGDNot251SBymkkuSg6GIcP3c2D9UE8dTV/8Wjx9+PldNWca2q00KdTMh15lnt1FwVZ/zjNEy4dBJCGslogsa/7w1FceGtm97A6hkrxDVKUgMppJKkICw7+rPIZeZGKZflwqrPVuHJCx/DKze+ikBtAIYZrj8Nu9UJhRt6FA0uaMguzsP5d1+II685guxlknihX85I+MTA5+GsykvGmAjWWHjr1jdRU1qNkEnFTjLiR7IbUkglSYLUiPRBuKfhjdvIfZUmvrl3Fv512D+w8esNCNnN86kmBb427n2Qp+GEm0/E+DP3F/WVYp4WDkOCcVx9DVu/2Y5P/zNdlESGypPKSJKJFFJJaqGGSCoMlC2swCPnPIIP/vwhairqHMs0Wa4smXw6WX1ZnTNw7l3nYejJIxHkRrMkoNgurkUWE6x8+cAXmPnMTCgmq70kmUghlSSFiDD+cANPb0/JkiWzvqIBH931MR4+8xFUrasm8QrR5/zjxNqCPCZfo03VVeT0yMY1z1+NEccNJ2OVso9odIqvk08xsyt+uGeucy4NoZCBT/7xMTYt2gSLW58obiJT4UkSixRSSUoREUghFty0b1jY9M163HbQ37Hk5RVoavSR1gZJVLhJKvFwfa6apeHMO85A98ndwxcsanwTDs9fWr+5AZ/9ewYMI4AQWfNOlYMk0UghlaQsmujXSTYYiUNTWROevuYxvPZ7bohyJmpORtWpsArJOi0a0RVXPHIZCvpmkYgmx7U21ABdj4EFby7AtMc+g25q3EYmSQJSSFMAnqDCVeSBq6sOvZDcyE6UG3JM6JkuaF43dBdtGkkKd7+hj5yuQcLhI29OdHEXr9m343ZdsZeERnRqp5y1py3VEaGhwHKLNC8JwkspW3UWvn74K/z9kFtQu7YGpmXANim0pLSJ0lRF5XUCAF3RUDSqC2587Y/I7ZYj9vN4Tm4wSxS6rYmGL4tc/Hd++x42fL+e0gb3KnCqASSJQ06jlwqYQYQCJBZ0J0wSBcsii4s2X2MIwepGNOysw44dtdi5rQa1ZTUI1gRg1BioK61F5ZZK7CjdCaPJpFxsUV7m+sVmYeEuPHsinW47SX/Y1yfosl2KG9n75eC0f5yKCaeOp4KIXFpehz3RlqFlwo8QFk1diOevewFmDc8swC3oibkOpzx07qNN93m/4waKmfWzirLFvnQoMDsKUkhTAG4g0NispM0mPRA3hP6pCNAdYjOHrBxuhAn7suTNicXcfE31aKoPoGlnEP6qALYv3o7FHy/B6q9XwPAHxXc1ITD/S7oKKfejZCtMt3R4CzIw5VcH4OQ/nE5WezKmvqM4pHgMBEP49uHZePZ3z8Njsk+QGKu0pZBavOqnS8eZd/0MR1x7pNgnhTRxSCHtIPBtjNxKq8lC/eY6zPv4O3z37hw0bG+EsSOE2tomVmCy3jSYikk3n5Wb3X+egd0h1ZPD7tYpXbtHxwHXHIDTbj4V3kIv7VLgSvAaR+w9cFy+cePb+PSRz2AHQo7KUVyKlv0EQDY5MsgadnfNwe9n/Q6d+3SlPXRd6p4LUklskULagRAZmjKwaM8mq40fSkiBr6oJG5dtQtn3pdhKVuuSL5agdlsNdNVFwkPfaWG4pJOQcji59d7lVjHo1OE4//Zz0alvHn2sJ9waC5kmGisb8OLVz2DhO0ud8ydQSG1ePtk2qYC0MfTIwbjm5WvhznVD1RNbqOyrSCHtIERuYyQDk6ryG4RUG7xGPXeLCSohMfFFwOdD/Xe1ePOeN7Dog4VwI1P8lkknIeXywlTI2SfxyLI8yB6di2tf/iW6DSgSa9knVEwpui3Vh+rNTbht2K1oaGgU5+dVQROCiBYKM53Ppek46eGTcMSVB5P34Ql/QRJPpJDuQ+x2q0l8ePmKpmof5rzyDRZPW4qyJRWo3FzJ9pwjxiTArANs9alirSCCdjc3ZaUO3Myjkxvbff+uuOD+S9FjQneoptOJPtFsmb0F9519N+q3NO0m5onKarZqocfoXrjqzWtR2KuA7h1bxrxJNz9eyPlI9yGEhRTZLAWWTgKZpaDPxL4Yd+JY7HfUAPQa0gtVFTvEKpZcScB2Ds/T3kIPUhJNJeubrPD6bQ1YMX05igcWoStt3Ocz0WSUZMGb6cXKL1bDJg8g0bCF3lheB9uwMOrYkaSsCu3jxsvEx8W+grRI91H4rlN+Ey4p6aRohGL/n4xUuIIa1s5eh5dufAUVK7bDaDSdL4dTSipapNx/U6wIT9evWjZyuufjiqmXYvBBQ8PfSCAhE0HTxrOXPIP5r34X3slxnph4M8ScVT64FB2/mHUdhk4YAYPurfA0JHFBWqT7KMLC5I2NFPFM/8h9F/1QKdMV9M7HARdMwpADh8DKsFFTVQtfTYP4XHQzEpYt10PyS7Za+SDJwxmkSVfBdRHk2obqDCz9fCm69O6CzgM702d05Ym6RO6u5rYxYNIgrJq1EnVb62inQfHElj3HW3wvRGNXns7FznzVhh0YdtxIZGZ6OHokcUIKqWSPsFxyZ/78vp0w6OghGHvKOOTnF2LV0hUI+Z0GLO58nqhW6WgwSUx1ehg1ISz+dCk6UaHQc2iP3YQkrmLGmq6q0HN19B/TDws/+h6BuiCdMzFx1TJsDaWNopqjx+iShJ1/X0QKqWTPUF60NO6HaMGtasguzEavw3rj4J9NQf2ORjSU1yLoCzrWFyG6WqWIycOTeZg8sYli0DUaWDt7PXqOKUGXfkXOF0ho4ymkYqSV6Vj3mcWZFJcurJuxHpbNo8/oC+Lc8XPzW4YtaASwc/sOjD9nPFxu7i/Mw4xT5151FKSQSv4Hzoj8cJx4EkrhwpOVRxaqp5MHI04ZgYGH7Afdo2Hj8o2UW8XofvF9x8FONlQAiKuga2c3v97Cis+XkZB2RZfBncn91+ki2f2Nz5WKRZRFVQk92RpKBnXFxjXrULGiij7lOI1vA1TLcPG56ksbSMvd2O+Q/uIugQdj8LMkZsjGJkl0sAbQFiKBghVAYJuBBy5+CGu+XkmWqxeKQRYPJanUapBi29Ai6zAH1069Br0P6ctSFzchbQmPvFfpv7/GwJ/G/AF1mxqhk2XKTT/xomW4+F4ocMN0+fD37/6GLsNLnEanhFUY7xtIi1QSFaJfqWpQZiTbRvVAzwcmnzEZnTt3QVVpJeoqGsJeq5NR+X9kSw5sTZsI6RbMeh/Wf78OAw7ui5zOuXRN4WuMo6AKS90iG9XrQpeu+Vj26VLYVNiI6oXwI9a0PCZbngZboJaBoGlh+OHDobnoBsn60pgihVQSFZxFm919likdmltHtwk9MOroUcjI8mLp/BXwhLwkIWSPOT9wNudfQnE0koTMVoV1Vl/VhGUzlmDwwUNF/SW38sdTSNmR5+OzAZjfuwA7N+/Elu9LaR+LWfhLccS5R7xpYrG8QYcOQl7PbNovO+fHElksSWKCTkkpr18ujr31BNz51W3IGumFkWJ5lUdnWaaNutVNeOnXL6JuSyMpTeIW5/DmenDin06EUpCcao+67fWY+dRXpN/Nk9RIYoO0SCUxwSbTR7M00YfR2y0DU06dApeegfWL1wF+nmS62fziblWJqkPd3XUmu4xMh4BtoG5zHXZU12L0EcMAsqi5mUzMVBhHM5Et+Yz8TJT064olHy6HGQrRXq7DFHareMSalsfkapktqzdixOFjkN89T1jjsgU/NkghlcQEkRX5H1l9qqEBeQoGHtAP4046AKvmLUVjKa+1FGkt5i8mwyoj+abTsmzx2StWlKOytApjjh9FOcGEanFrvvPNeMCzczFdBhShcssOlJKLL6KDSYCWcX2tFtSxdfUWTDh/HBUqosktrlUb+wpSSCUxxyJxEDNOuRTkdnFj8LHjUF1GorWmisSEW6yTbwXxNaiGgtLl25HdKRvdx/YSS3fsErY4waKl6Rryu2Vj8UeL4a8PJiwmWC+5O1TTDj+KR5ag+6BuFF6nrlvSPqSQSuIACaVolSZVIgs1Oz8DY44bj/xOudi8dCtCdQEhpCL/cqMVPzXvSQhcXyoE3bSxcckm9B3TD4X983nGD/6QvhHpixpbWEh5yy/Mg2kYWDZ9KVmGLtFZP2IpxwsxgxcFyaDzsnU64thRcLnia4XvK8S5/JXsiwgB4szJT2HhcGWrmHzDFFz72rVAoZcSnk6apZGA8GzyzncTDV8X28aNW3y457x7xXNI89MnBu2Pfdbg80WwPCqO/NUJ6DWerEKL60p5EZX4dtR3UMUggWUfL0XthjoYKp9b0l6kkEoShtvU0GdCT/xj3p8x4OQB5Prb4CWXk42YM6DcxpM/fwK+0qAjo/HWNB604LVwwR0Xwd05Exq8YrKYRMHzELxx+6tQTdmCHwuka58CcJ5VuBWErCNuWeVX7HaSn0mb817MasRw/8NkmG8xgIWCh09mFmRixKEjYfhCWD9ng/Cmec0j/rS5/Tq+YWw+PsUnn58EvXprNam9isGHDiarjWyMOJoZfHY+fHZRDqo37MDmxVt2pYF4EQkzn4XTXOW67Rh++AgU9MildMcxz+lN2lZtQcZaCsBr7YQ4EylkGVlsDVm0z6KMpdN7dsXoS/SZkwPil9HijVNn6rzKKHLjrLvOxIl3HAWPl+VVFRNNi88TEEQuqJwHn845oRWwMOPfH2LDV6Uwtfi6vKLKgx7uLBcOvOpgeHJopx1f67A5xCIhwe3LxEf3fgSfydUZvDt901aykWPtU4DaHQ347sXvYDT5YaqUvRQSUk2FO9MDd4EXGZ0y0bmkEwp7FFCG84S7rTiZMV1xlpQKwbA0fPvMLLz1h9fRVM2rnIbLdkqVTqaPP7vHo4bsEhXXf/h/6DWqZ3hf/BDSZhp47Q/vYvpdHzuWcAJQeNQZ3MjpnYWfv3ItBo7rB1tnn0CKaVuQQpoClK2pwkOn3oeKlRWUjCkxh9MyaQxUlwadNrfXBSVLhyfXg8zCDPSbMBDjjxqLAeMGQKxdR/mPDQoTQZICtxAiPkxLMUpF4eWrM4MG1k5bi7vOvgu6j1uwDQqLDq1F0kyUqFpk/nN7/ujT98eFT56L7Jwc4QarcZrkg0PFXcIC9TbumHALylaXCwfbRQ+eUyteOKGh1EZewEl/OhVH3HIIMswsLkckbUAKaQpQvqYSD57yAMpXlIMXKosQeaWQlSJqDyn1W2StMjaZdPx5yBVEfv987H/keEw8/gC4urmQ1z0bWXnZJMC6+J5wI1NQRCMYPE+npWLzzPV44rLHULOhhsLpuL4CCmhihDQ8HSCdW/NqOPfu8zHhqgkgvyCiPHHBsniJFz/mPbEAr/ziRQRYSS2eNDt+7EoPlP27DC7E3767DXYmhTuF00kqIxubUoDGnU2Y+/JcNFbxEr7hnSwjZGLygx0up2qUszmvl8lveC+gWzpCVQbWz92Ir1/5Ct+/+h02fL4eG75fh4bGRnTp2xluNwlBKsNir6rI6Z6F7sN6YPHHSxFqMlvERaKg4opOyqumWoaN9QvWYdSRI5HVNVfsjweRAkKnu5pZ1AWrvlqImtImUUceT3YJKT037PChU98c9BrTu3m/JCqkRZoClK8tx0Mns0VaQe9ikZBZcLmKQIGZbWHYccNxyS2XoGBIAfww4KZbriouzsUwVM7EqQFfs2Va2Dm/En899m8wqnn+qBBdK7n5kXhJmHVKd0LV0Hn/fNz48c3IzdMps3jI9OBiLE71mBSsLx/4DM/8eirZwOSBRBp/4hxmDk1GryzctvwfcGd5wumBzy1FtbUkpmZb0kpilVnCbjEdLqM+AytfXY6bRt2Ev477E76++3OsXbAFVohX3LShm9zokBoI61tTUbB/V/z61d+gcEC+EBSe4iTxkKiTVbhzQTXmPfUN/LYzJeAucYsDPBfB/udPRo+hhfwmvDf+8KDdms31WPr+QuhiukGVwh7+UNIqpJB2SJpzAXcu52GYvMb59oUVeP13r+KJ05/Go2fdh6UzVtHnJFNkoUa2ZKOL6gygz2G9ccEDF8LysnolPpnyGbkSxQ4Z+PyRT7FzvTNhNc+WFC/Y0s0scOGcOy+B4nL6EMcbIdcaFbjIwvfvfIdAfROlA/4gcULeEZBC2iHh2+psPGqHBcBZio33aajfUoXF763EA0f+G3+e+Htsmb0NvoZGEgn6Lpsi3PbDh0kGlH81VYGuuTD0mCH43es3Qc3Wyb3nYLCrn5gr47Z7MbmeomHHxlq8efNrMOwQlDhainxk7jvc79ABGHTIYLoV2q7GxXghNNPkeG1E+aIq7KisoVAbIqVIWo+Mr30UgwRThwdV86tx+5G34clL/os5U+cj4DdgaAGoVmIsor1hk2XKK3L0PqovzrrjDCg5CjTK9XoSrFMeFLHozYWY/8J80cUsbvDB+S8ziHHnjIeXGwlpXzy7QbWEPRLZ2NQ2pJDuo2iiSSGIbM6mPhur3lyBF654GvedfA+qVleTJZTsDoWkmgbZhXQZUy6ehIOvOhRBcqvNJFQ/cGWD21Tw4X0fYMfmneG98cDp0ua1PRhxzEjk9vOSjvLZE5dNU6B2Jy2RQroPsXtdKGdaDU2UBETrPrmQpk/FmhkbcPOov+DNm15F1doqcvK4ltXpBcA1roly+vmadF2DppGLnenBWbecickXThBzeaoaubxxvg4ObySuROhJ0ctWluHbF2YDIY4JtthjrDo83p1zJBViBd3yMeXyA+HiyV3jWC/bEk4WiRTtjoSMNclu6KQSbkPDh/d+jEfPfACfP/Q5WaxkFYlllpPUmssub4aB024/AwOP6A+bLoInjo65kP0IQmQCCj5/7HM0bmkgbaMdcfTzuVHr4EsOhbdvZlzPI4kNUkglzYj6uCxwjyheBXTzwkq8ed3ruPu0W1FbxS4tW0eJz9RskIXgQqeuOTj7H2dC6cxLljiPRGBzByESTtXW0UQies+N95GMc0NU/IScu1m5Ontx8nUnw1TZE5CkMlJIJUIkxCacWD/JEzvOJlRy97mObu0nW/HPg+/A7BdnwagPiv6VYskQtsoSAaVSNws4ufTdx/TCVU9dA72TMxadlzUWSxvHEXZ3WbLF1MsUJ1ve2YZFHy9hhY0fFCa3rWHgCUPQuU8XOrchei4kvhiTtAYppJKfRlFRu6YWr17zMl749VTYVSyyPEQ1QULaAj7niONH4vg/HA/Vm5wGMe6R9OXjX8NX7YtbYcLePNfCduqVif0O6w+N7oGoWklCnEt+Gimkkr3DeZY2jTIw0+Cvx9ynvsHvj/k9ytftgCnaexKbscXCeqQyB140CUMPHU572EZLlJNP5yf3PqAFsXbGCmxcuIGCH5/ws2vP3b0yvArGnLg/DI9GlrfTMChJPaSQSvYKO/uOw0+Kya3opocsJQ21C3y467h/Y8Er88DdTUO85lCC9FQ42bqK7C55OOWfpyCzazaJDiVjuj4WmXgLDfcX8JCaBxuC+OTfn0AJcvzEAQ4G504lE0MOGYxuA7uQhRqksCa24JK0DimkkuigjMx5vGmtD/+95nm8f8d7cFmJX/eHBbN4THdc+eSlCHmC4b2JZfkny7H0vaUUJ/HtiuXJ9+CoXx8n6qad2JekGlJIJa2ArCA2hGjjBGMpfgRcIRh1Nj760zt44Y/PwFfnC38tcRaTmyzRvscPwOEXHwFNI4FJ2KlZzLg6wYVX/v0GQtUNcW144z6+B5w1GZ17FIX3SFINKaSSn4QlotnNp0Rju6CFSEjEUr5uzHpoLp795TOwm3jMdmK76rgVFw7+5aHI6Z1LwpaIxhhHRHmzVQv1y+uxcPrSuAopL5+MjCDGnrk/vaE7wIt4iYW8JKmCFFJJmwmJhZcoCZGALnx+AX5/7M3AzsS5njx/CGt51+HFOOmW0+BHo1Nfmigo/IHGJix+fQlCvvgtlsfVvprqwrDjh8Kd5wnvlaQSUkglbUYn15ZnRDIUEhGykGq/qcHD1z2KuvJ6YaHxTPPxhawyEnLVVDHpvAmYfMYk2hfvcxJsDNLGvRm4b+nSz5ehYm1FeHfsLUWeL5QXBewxtBu6D+omCgs2gLlyIfKQJBcppJI2w306uX8jTzhnUObmfvEryDp74KJHYDaa5OTHV9ScFnyF++nz8HSc+KeTUNCngC9MCHs83N9IFQc/uBqB14P37fDjk3umwRJrT4W/GENYKG0KS15RDvoc0Hv3agQOq9TRpCOFVBITeM0hzt5sHW6fvhn3XXwf7J0JsA7D8JyaRUM7YfwF+wtRTQwUYhI1dr3nPz8PVauqSExjr2qKsOwtWLqN8WdOhsX1GWzxSwFNGaSQStoHqydtnKd5Ymi2Qk0EsP69tXjtH68KC01YUPy9OMLrK6maBwdfdjDyenDfUp3O3ez68iPWcOOWyqrN57E0TH/6U5a78Kexgzvi89m461Pvkf3QbVgJvUpYaSFpBVJIJW0m4uLyw+JGHjKRePgkj8M3DQ3fPPQN3r31NRhiLHy8lZQSM4lpp16FuODOCxCwQ+QOO/t3bXFgl5tNx1/56SrUbqlx3scYFlOVRztlAMdefSxMhSdukaQKUkglsUdxk11mwA5aeOuv7+G7Z+YgFIpfqzbjNG7Z0DQNI342BsOOGCjW9E8U3OhWvaoaG2avDu+JD7xA3uAThyGzwEvvpJSmClJIJTGHx4mrJGoWWaIeZOGNv7+JDfM2ktiE6/qcr8WcyPDQkGbhyGuORFZulmMIJ8Ag5mn1gj4T33+wiINIom7RFv4wRnD42Cr1FGVgwAQqKPgECQib5KeRQiqJOVybxy0wXIcYUAJo3OTD01c/C81nIWQH45LxW46xdxkqBh01CD3G96RTNT/iCYVMTHO37J0laKwOIqSEKPzxGJygQHfp6D+lP+XexIRN8tNIIZXEFY/uIRfbRPWyKjxx2eMINpC5FmeP1CKB8eZk4uCrDw3vSQQeEk8b/sYAvnxoOnSL+5jGJ3vpqgu99u9BFndmeI8k2UghlcQcYSEJt5M2YZTZoo/pwjcXijWPeK34SCPNrsaaGCIauemwo44fgW6Tejg745zSuWzQhQ2uYfpTn8Jfx7OJ8hZbuCsUj+jqOawPMgq9FEwOWOzPI4kOKaSSuMDyGJZKR2XI9bYtHZ/+6xNUbqwUn1gWz3Afe/NUdHWiP5dXx3n/PA+qm9eHj7fYUFjChUL99jqs+XqlkNXYw/FlI784Dz3Gd4fG8ReHOJREhxRSScIwzSB2bKzFi9c9h8bGRiGi8bBII8dUVRU9JvTEwIP6QTcT1+/Sbbix+JPFCBqxDxub25pFsu0yMfbE/WHZbN3LbJxs5B2QxBUWtcimsgiQ8bRm+jp8cf+MXYIXa1igI5ZuRoYLo08fS1apWxhukS2eGJqJLfO3on5ndezDyNevOlUIQ48YDDVHo13xiUdJ65FCKkkwlOnpb9aT32Lroq2wuQd/XFEw6LAhyCrhyadZcCJb/LBNG9tXl6J+XX14T3zIKcpH3wm9KTRxLhkkP4kUUklSqNq8A589/pXobxpPDNVC8YBCjDxydHhP/OE+pf5qP1bNXBPeEx8s1cSII4bDjFvPXElrkUIqSRi2zXWizqaZOmY98yXWL9gMy+SZotiSc74XS7gbElwaDrvhaNHgZJFum3T+WCN6c4arMAwSOM1y4fu359M5ee4BJvaBY0t00OQh8Ho9u6ozIlUaksQihVSSFEzFgOp344UrnkdDXSMJniFWCI05JJw80qr7kGIMOm6YqE/kdfvjibPqqoV1C9ehenkNlyB8GTGH5yXN7p6D/J754T2SZCGFVJIUWNzYJS1bvAXzXv1eWKnxaDThYao8Y6qhGzj4Al7bScxiGld4GCcvCaL5Ncz9YG5YSGMfNu6b6y3yokv/LuE9kmQhhVSSFNgF1UgJLEvH3JfnoLaqSSTGWLdyqzxuk/50evTbvwcKB5TQXu6/Spap2JzvxRIWbxY5PvWSTxbDNC3S1TicCCF4sjJRMqBIhIXD5WySRCOFVJJ0tny7EWu/WEsCFN+F83JLctBrQncSV3d4T/ypWFWOms07nGkGY4yiuMTqqUVDSEhZtSVJQwqpJOmE/H58+J+3yByN7/r4apaKQQcMpFeJ65xv1JjYvGx9XISOjXc+bO8RfaBqMisnExn7kqQQaeHmTYMbm+dvx4K3FzjLZwj3Ph5DOlUMO3wI7MzQbuePPZytnC3k96F86Q4xcUus4Tpli/53JtceXmexF+6VIEk8UkglyYfE02V5Me2uD+Bv8NEOHvYYe6tRsxQU9i1EnwP6h/fEH8MAypZsRzAUh4JB4flJbWR3yUHn/bpQASSzc7KQMS9JOmwUmpqB0jVbsP6bTcIYNeNR5UfCY7hMHH/h8fwmvMUXXtNp64qt8Afis0IAZ2BbNzFyynAKnkpaGv8wSf4XKaSSpMMt+KoFBHeqWDZ9KYLkn+pxcFFNJQTd9KD/Mf3g6ZQh9vGY9VizW7WBbaFy006EKtnSjjGiLNAoBBr2O6yvmMAkDr2sJK1ACqkkdSABXTZtCew6E/HoLaTZuhjbn9HJg74Teoo6xXj0XW0JySmCtUFsW7Q5vCc+9BzVB4pXQWQqP0likUIqST6c98Pb1qWbseH79TDjJAi2YsPSTAyZNIRes1rHud8ludrcQX/JlwuFqMaL3O55yOuSm4DKCsmekEIqSTosMJGHbrsx/ZHpcMVD4LgKgVxhHW4Uj+qBjEwPjDhLj2nx+C0Fa2duIi+fQsjN6jHWU1GFoNko7l/i9HqQJBwppJKUglff5JU467Y0hvfEh059OyG7JDvuwsP1lzaJXMWaKvgqA2LGplgLKWMrBroOKuEX4T2SRCKFVJIy8Gh7thiVkI65n8wRFmq8+kUWdCtAdtdcOh+fNfKIB2yBWjAaDZStL6P3XDMbeyyySgt65ouW+3iHSPK/SCGVpAwsnGSSQlMVrPhkKQJNfsdtjYObn52Xhc4Du5DU0PFZb4TmxEN4bNEjgdcU3bJks3htxDjXca8HrhLp1KsTFB4cFglPPIIj2SNSSCUphZBNsuCqVlSjdnsNNHJVrTgIqa3b6DOqDwwrDnWxe6FsVTkVDDriMhCWCp/s4gy4M+I7zFayZ6SQSlIOndz7urJ6MYs+W1VxmfiOUn6/Ub0dR5vVm7e40GweVmyqhMkL4sVJuzOyvfBmJG5CFkkzUkglKQUvkMei5qtrQtmSMoRU7mQeh0lGbBvdBhfDlaXR6ZofsadZSBuocAiIIbCxhwuE7LwceHK94T2SRCKFVJKakH5u+34bCYQRF3ljYcvonIWufQrD7+OPURuCr75R9EyINSpM6PkZ0LKka58MpJBKUhOyTNcsWAeP6YrLKCeBDvQZ3i9si7Jcx0eyI/jrfWisJSGN03j4jAwP3Fme8DtJIpFCKklZytaVoXFrE9mO8RE4Xpiu74T+dHSyEJX4OPYtaWpogq/aT69iL6S8VIsnw43MPCmkyUAKqSQlEVLTBGxcvD4OskMJX6ynr6BoWJF4joe4/RAjEIJRE6JTxd61V6CJyZ2zC7PCeySJRAqpJLUIe9jcBUqn5Lls1mp6E49mbhIeW0V+n3y4vR4xMogXyYsnIb+B+pqGuKzlz0dUNAU5hdn0huIrskkSghRSSUrRXF/JKFg7by153fGY6o6tUhKeTjnIKPCyrNJZ42yV0jkbq7nVPvZCKlBtePMyRfztHo+SeCOFNGWIv2uZbliUPKvWlcLwxc+yYivOm+chb5uzQnyFh0dpNe3wkfUb+/PwIVk4swpzw3uiRw4qbTtSSFME1eK5MsNvJAJuDAruDKGuulaIUCzhYZWMruvIJnfYpJzgLGkcP7hRq6m2iZ5jf6N5RQGuqsgtyALPN+VMEdi67M3Xwz0jeASZ6JoVjhtJ65FCmgK4vW54CtzkaurhPRLOytxabzfZqKusdXbGAU3XkNM5myVECFE8Uej4jbUNlOliX1XBParY0s0qyOZYo0d08Pd17oPqpjjg6tWoj7BvI4U0BcjMyURuMWVm2TiwC87ILKYamYq1lXXOzjjAyyR7ctwJEQ6FXI6G2kZHtWIMG9NsUWqZbSuMOa4LivKRlZdNB9JYSyVRIIU0BdCyXeg7ZT9obFXQHTF4WE8CMnYq49TXhRCkLN1Y0bjLFY81LKSuTDcJES9nHF9Y6II7KURxaLXnQphn4udCgbO1E117Pw/Hp9jooekK3IoLvQ7sheycDPCsKlIYokPGVyqgmTjgnEnw9sgSlpGu6nETjnSBJcCmUkWzNeEOxwuVhNSbxQvhsXMfXynl7lV+f4DOGftsFzmmy+WkHadOuRWCTclMNTSgWMEh5x4mjsO/ZYGVtB4ppCmAbrnEmjs3vHQdsrIyYVlxWAM97aCMTIKg0XOwiUcDxQeeCJlHBFkqy2h8hZQFLuCPX1g4zrwZGU4hTBra2uoKJUfFb1+6AVl9yK2XtAkppKkA3QVuLOgzpR/OefhMZHfOoizN3dFt2kwSE5s2fZ/aXPRfs90wKPyBBhK5eM0bqpD1RR6B2zTprNwMtOfricUWsoMwaCM/PHzy2GFYhmjMsnjJaXp2wU2bZ7fzk69DDxeFki1WnlXLhKuTF5fcfxF6HdwPGs+8Rezr3lBbkEKaYow/ZzIufulSTDp7JPRCLwKU0bnGNET/96UtQP+DCs/8ZCIUjMyUHw8U6N4s0V1InGsP1xKrjaXN8pO3YcY+LFzXy93nXF4vTM2i8/Fj9/MrtAU5ZtUQPAUejDx7HK586XKMuGCsEE+uY5W0DYUSaLxSqKQNGGQpUJKGv8GH6oo6NK0KYPP3G2EG4zOPZarCyZIbUFymha4H9cTwY0eJzB5ra4nPs/LL1djy2VYEyFp0x1FLyACEnpOBw286mDyQ2NowZOtCtzQxVd8XD0yn9MKL7FFK0pq7WhlWCFqmC/uNGILcQXnw9PQgx+UVVjmZ5WTNmnRdcZj7dR9ACqlEIpG0E+naSyQSSTuRQiqRSCTtRAqpRCKRtBMppBKJRNJOpJBKJBJJO5FCKpFIJO1ECqlEIpG0EymkEolE0k6kkEokEkk7kUIqkUgk7UQKqUQikbQTKaQSiUTSTqSQSiQSSTuRQiqRSCTtRAqpRCKRtBMppBKJRNJOpJBKJBJJO5FCKpFIJO1ECqlEIpG0EymkEolE0k6kkEokEkk7kauIpjl889JlNfJok1qsl16WSOJFzIWUD6eYlAE4D/DWnqPzetu8GDh0oIMtt23QpsGEYvG7FoGLJr5EHNMB+De8TnoSdYfvEgeFL0EXgaOLUkwE+WX4wlSTrtGwYRgW9KAGy7SgqiqCKgfAhqbTPo8BlaKD9yv0sDiO6L9q029tSgeMOJy9K6riJbi2bdGpVFgUsCRGbVKw6Z5wmH8sbjn+Q3xv6Jsa5/l9DJvSOIedIyIuQlpdXYOK5dsRosyQYVNSpK0tuAqyUNSvE+VENzzucCbqAHAcWcEgarc2oqyiYrfESjrSakIqSY2lIqs4B137Fwk5TpoVR6IDus92yEB1bRN2bqmGv8IHX1kTNi/fhE0rNmPb4q1oqK2HvykInb9L8cCCaZFSidcaiSXdZlduBnoM6Ilew7ujz/CeKOhZiIzOmcjunoucrjnwZLihcTDD6SouYRa5wkC934/t8zbDNLmo2HdQLQ153fJRPKiEyug9x69h071eW42qLZV0K/aN+OHCPYLH9qBwSGfkFRfER0jnv70AL13+NOoMEx6xt20JPa8wH30n98Ept5+Kot5FIm3HIcskDI4bzvShQAjv3/IWln20Glu3bCXDrbmqWhhnrYRsOOhk1Y25bCwuvucyKGHDNlFiKmxC/iMrc8e6Snz73hxs+b4UTZsbUbqhFI076hEMksVClyPyorDsVHpo9LOQOAJDMkr/I9fsolf83jEDTfZIKHoy8rzo3KMLivoWIXdADkafOg4DxvWHJ9Pt/CzGcK5QWCi2B/G3iTfBXxNFCdcB0GwN4y/eH5c8dEnYOv3fNGXS452b3se0+z8W92ifoIVcujUPzn7kDBxwwZTYCmnkUPPf/A5PnfsMuXChsDD8701oDQq5qzZlpJxhefjbZzfD1SUTbpsyTrreNIssURK+l37/Embe/ZWTOOnPbqPFzj9m13fy5ZNxyWOXCMshHiJqsaixAPK9ZOuRLEfDCkFv1LDqy5V47PePo35VPRSDvsMu+V7C05qktvfr52ugY9DG5/CbfnjyNZxw3ck49BfHwtuFShHNoj8dFsUDXysfqT3xwddbs70efxn+BwT3ASEVMcXVaQzdw8mXT8GFT54vCr49EaK78c7vXse0u6bRb/cVJW1GJ+/p3CcvwIEXH5jaobfIXWTbJbCmAZ899Q10w6DEHf4wDQkpIaz5Zi0Wv7x4VwaPYTkWN7h+kq1PS7EQ8gewfMYSfPjHD/F/w2/CnSf9C03LGsky1kVGjHd4WKQtMlI9mhdmrQvv/+N93DToBrx0xUtY+OpCNFTRtViOkDrSK5HEn5QWUo3EJqQp5B668d3Lc1Fd6SOrK30tA4XcpTkvzUdtabVjWvG+OFiQsUa48GRJb12yHfee/xieOOcZfHTnB6jbUgeP4qVE5KJvOA55vHFcTNpIJbnu3bB12HUWZj/zOV686AXce9o9mPX+57BCZDmLqE3EVe2bpH7KTRwpbpHaUEVroB9blmzFwjcXsHecVpiUkdkyMs0QqjdUY94rX5N4usPCww0u7UmO3KrMG4u0sydmCO3kFvYgKtdU4tmrnsLfx96Mte+ugH9HI53QceHZAuXqBXYVuPYzsm9PW2vY0++czYkrpz7VaZziZ3Lk6cFx6YYvEMC2Wdvw+GnP4bbjbsPmWZvRGPTB5mb3dEs4SYFTEksCeyC7iqy9Epd0l6akTcWGx3bj3Ts/RN3W2l2ZKx3QyM00YcAK6njpN88iWBeCwhk75bERJMH86F/TcN8p92PuU9/BbWXT3tSP9wxLx7bPy3D/yffg7d+9hfIVlU7TVhqlG0l6kSZCaiOkBOHfGsS7d39ImSG8N00yhWKZWPnF91j5ySqynjQY3McyRYkIZeX6Ktxzxv348M+foGJVudhnUzh07uaU4oS4r4gSQmO1H1/f/y3+dfK/sGH6CimikriRJkKqkPxosElMV3+wCltWbiWXwgg7H6mOjUCTgZnPzYUdVEX/R7ZSUwnh9bLIkEgGGvyYN/V73HboP7Hp640k/AFKJJRMuAcFXTY70xHLLlWtU43tT1uDSgGzyRto2FSPO0+6C+/9/R3UVtUBZvj6w5tE0l7SxrXnLKGqCio3VWDZm8tgq+nRAZg7zVd8X4o109eE96QeLOsBFpdGC+//80M8d+V/YW4Nkcg4+prOsPhzFa7b8uDjO6Zh6lVT0VDVJAVUElPSR0gp3XMfTB5b+dnTM6D4dZjkvqU67MV/9Ph0NO4kSyhFsRQ/ND9w7zV3Y8btn8Js9KNJ84U/ZdJXdGxSUfZmuI+rEnDhu7dn45bxf8GO7TvpM66mSC3vQJKepI2QihZh3sjEqNvYgNfveI8yR/jDFIPbkUUDk21i9RcrseT1BXTdbmEFpYo7yVWdprhOEw1bmvDE5Y9g+YurHPdd0eA2XSKueeOdu649zUSVr3/X/aACwwUPGrfW46EzHsTmeZtoH/dNTp37IklP0kZII4jqRUrwn941DRVLK52dKYZqOR3YA/UhvH3L6+Q3sxClViMNd1sxrRBZohqe+/XzWPb6Siqo9jyCpSNSNqcMj135JBrXNYj3PN4/Hfr0SlKTtBNSYSGRhaE3KvjshS9ghFLQLBX5UcXy6auwfXE5ZVANasqZzxbsehv3Xfkglr6xDIYadDz4yBYjfihN4tAkWHtqKOQ9Lff+8H37iRyR+52a2LlsJ249+Q5Uba7itrQ9WKROH12+3ljTfKb2Hzt2t6vlkdhC53jaO/xpuhQ+sYujZsSw2HDw005IOUp4THmIhGnp+8tQuaaCnDYSqXjEVBuxlBCMegtzXpkt+o2KDus8rVGKwNaXPxjA+3d/hOUvL6LMQMnApGTBLfMtHm1FyCSLJW2W5hxJofBrioteUPbj9MfCFd54jLwjWpwquXcG9xDgDzipRibhaz+sk5FNzKJCXkLd6mq8+ptX0LizXlRr7BJT+syk1zrXrdK1RMITq40H1HKoecrAtqKQW+F0nI/N9dG/8JHDcHzwczhKfogYHkHfERPp/eBYbdvoOPQgs0M8xwIWe1vEk+NxxHILiXTKxzbTUUgdIeC7W7m2EktfW0KJn8cPpRIKdiwqx+L3F+41ESabtdM34Iu7P4MS565YmklipHItZRMMlx+uQgXdR3XG4JOGYMolU3DQlYfgoMsOwdizx6PnQb2QXeKC221AtQMwNANUJFEUxvEaLRtL3lmKT+6YDsVoUf1CGUVTdPhVP6yuIaCICsMYbr6CgDiN3Y4RVzwXBceMkUXH2sM52rNpRXQPdJJI60eU3tIRzFDg7kLxtodjRLvZRSTMxQrMIpI9T4t70Q4MuKDlUnHcJfb30NXVgM5zPthULFIJHLOsHjlUrGZ/2ivhw1G5AE+RB3+d+xfk9SqgUiGZ5YITds70ZmMQd5x6OzZP3yasvAgxjOowTmnIs/Rc8uglpFpOSbk3+Nt8CZWrKnDHMXfAv9mHoEYJwmzOLPydaOB7wPDvOP5NKqF5D4/nyizKRfehPdBlRDH2P2w0+h88AJ58F0wSVu7fGRFI5/uOhcZTA2pNCsqWlmHBe/OxYeFGlK4sRfWmSlghvrZIfDq2WIRor7vFT+mXqhClK166ABPOnCym9RFnoQvibnYKiYkVw6TF9dPzX1uIZy95CkE/iaCormoD9DOeb2DiZRNwwWOXkvC18Th7gI/EmwE/Wc88GeYejm0HyftycwTu8eNooWQhjhXwBfDs5c9i/qvznQ/agZpt4ddv/h/6HdVfpM9YwqmYJ55XFbbJ0wznBjsPDkqwPIjX/vGW6BaVVDhOSTy4dXjh+4uw8bNttDMGqSuGGGTJ11XW4oUbXkTT1kYSB8uZYLnFIxrEPXBuCIWaXSens76n2IMT/3w6rnz9Slz/ztU4976zMfTkgfB0IteeUhy7bjrcZCs4D52tBvGf95IlmAl0m9AVJ9x6HK5781pc+dZVuPiJK1A8titsOoQQPvqe0J/IFi0c1PCmkoiydL79z/ewbWkpCR1ZL5yp6VpFAxw9c0aJ1cZlncl10vTsTFHYRiiuDTqYuFRS5z2dq61bJEp1eOn/XiKYRFR8nz7+4e/bsrGSclWPyVU9wlLnkLUjfgjVciFEYqfzfeb3Mdy4ekanNK9SquX3aY1CpcHSN5Zg24Kt4T3JQiExIRndEcSMBz+Fy/JQaU2JgNNDyqBh8WsLsOHLDeH3sYPngDK9TZh4yRj8Z9m/cdQtx2C/KQPh8maQxUvJjBJcdJBMkxnIWbjvkBKMu2A0/vbNrTj/3jOBPL8QXHKnnK+2Ez4KF4E7l9bg68dnUt4VtX/OhxJJK0g7IRXJm//Rxq2KIYWyQE0As1+dhWAgSJY2ZYGYu9A/DZ+RK/1XfrEGpcvJGlWN5sgNX29SoLgQlib91ZXWYfpjMxAI+Ok9SVRkixLHH3AsWQ4kr13TbWJPXPP8DbjwiaugFJCdSYflZqIgWZCiwSnKXgt8dLZQyKCg4+vQNBcJtYGDrj0E/5h1F4afORpqJtsE9E2yKJ3fOI+2oKvcbV/HrOe/woo560UBzSQjLUlix66717Zk0WrS0iJ1pMGpYdPIFzDJZf3u9fnwbW0gt8CkvXGOtT1gkqDrARc+e/pz+Ku5kze35LXdbY4VNvuR5KoaCGLavz5B5dKq8ActtigQQsXRSxtPus1KN/ykkfj5C9dg9KmDoZNosryJumHaeCEQpw02eouUfxlpv+WEykLHwp8/NIsE+0Icc9Mx8ClUKBCibjh8XdHCv2XBZLH3N9p47orH4aPCOYIU0zQmQfcuLYV0T1RvrMEn904TFdacpxINZ/g1n63Hyk+WicyeKohkpLhQOr8Unz74EaUrbo2OzfWFSNf6Hd0NVz5zNToNyIepkvBxS0ocYWl1WW5kZ7tw8h9PwNn/PgtKXqySMd1Fyng7VjRg9suzxIJ3ka4uEsmP0QGElBM5J3YVn/33C2xZuAXcbzMhVkT4FDxxsL/Kh6dvfpJXIKbd9EEb3eZYwnHAMyD5fAamP/Ip2XMqeEhkW2C7kB/cH88mN5hrESf8bDyuf/lG6DkmNIsHHbDVGd8wmyRqvCYTFw6WZuGoXx6NU288GVqG4+ZzK2rUV8D3MbxxgagqGua9PA+1ZXVimK8zJl8i2TtpLqScZZxNrDHd6MLH90+D5Q8rXJwRXTBNG4ZqYPGH36FuEbnNnMmJSN5MNobqF92d1n6+Abz2EgtFtAiBcqKZNhsu00LhyC449fbToeRz3SI58Lu+Et8kxR21xBnoH3fw576OR1x/OIYfP4QinGcP4GVPoiNS9eI8eIeBTfO2YPOcTTAUnoi7A9gbkrjSYVIIJ3YLBtZ9ugGbF24O700AqomGchPfPDMXFrmcYgRF+KNUgGspV3+6ElVbwnWj7US1dZhZFs7+53ko7JMDd7hlXXSOTDTkCdhkPSo5LlzwwEXoMrwzvY+N9WiSFT/zmZkUXh6NFd4pkeyFlBNSx6qJbM2PPSHsB86/tCnkwrLbWldRh9mvznG+0I5RI62BBxsYJCAbvl6NDfM2kISSiIoxjz9Ny7C1fMScoIVvps5kY43iiY7fhioH0RWI/tii5f6iR99wNEYcOYwSD4kYHyoZIsrQydnG1klMM4szcN4/z0dGfgZ9wNcT2doGH3npjBWoWlLudGOTSH6E1LNIOVPu2vi9s3tvRBwy8VXKWKZl4uunv4Cx1UdubdszUmswSbj1Jhfev+ttmA18frZGOUpbIVSRsP1wizHrZq7H5kWbKKKcnpGRLVpE3JKMFo8owqHXHgs/T6zNKiquOU4X/1PQ+SNntU0dPQ/vhZFHkovv7AlvbYPTlOkz8fFj08jpUGXLveRHSUHXPmKZRZ8xI9pr1gJP3vhfIODMNRkveNTL3Fe+xcY5m0TGSzko7J8+9hm5326oLHpthO+H6KupW5hw+kSy/jR4VU46qRNmHh3pzfJi/IUToHu5Mazt4XWwoVH8Lf9klfBynF1STCV7JuWElG06LcONgl6dhUvpDKFrTQLmjEOOnmhQUbH4vUVYPXs97XN+GytB5aPwofh4Ndtr8f6975OAcxNIdMdnG5rFyV3gRXZRlnPMWN0NcTCgZls11n65ml5SPEZ3eT/AuQd6tgdjTh0Nl8qNSxzfPzKhRYLhWXi4/nbQ4YPReVhXkQYYp1h2HtHAwVMVF5pKa7Hu+3VOw6ITk+JziaQlKSekbFX6rUace9d5cHndokU42sRraSHYPhdmP/c1jCanK1Ss+gLyUbgTkF8JYcn7C1G72s9zhTgfRIFoDSar7rjfHQuXWxdZlKslYgHrKBdA6+aug6+2kRWB9rY9/KzBXK3a7+A+6DGsBx2J3rT9cHGD77GbCuHjf3UcDJW7LYWvM7JFA5VqPEab65i3fLcFlumURPHulSBJT1JPSNmy8APZPfMw4qQhCCrOmjvRoIbHSq/8ZDm2LN8srItYWaRC0rmbTa2OOVNnoSHYKETQmXC69bgsF0pGFGPs6WNQV1tHGTRam2nv8Ggmk6zd7YtK6YLZ8m1f2PnKLLovx159NGxy71OVSIE56uThyOueH97bVuhuUAFkGza2Lt6OkI/XB6OwxyYZSToYKSekhs0dxjU0VFbjgEsPQUF+tmg0YjGMbHuCxYwzkrNR1ieLpK6sAV8+9jW5tTydSGzg9iuWkpUzFmHtN+vhovPx0MXdzk+PPcLXzjFOG0/zuP/pY5FFrr3VRL8QDVWxga8x5LdQumo7LMr/Yu2l8GdtQ0F+r84YSG5zZJLjVIOvKbK5crMw9LCh4U/aBnsdOt1L7t5fuqIMoboAFSbSGpXsmZRLGdzJmt2n6h016HdAb/Q6oBslab5MFqfWmQPOt1jUgLlTZ2P7nG2sJmJve2HBa6wK4fU/vgQ1xPM0RoG4BmfL75mFseeMR2N9aNdE1bHDhr/Oj8p1sVnTiqsJBk8ZAM3D0+SFd6YwPLJtvwMH8Sxv7YfKjOqtVWiqaOCbL95LJD8k9YrYcE5trG9EVnYmjvzlcbBdzsQUQmyizMiGX8Hr/3wbaOJJKNqvAja5yt88+znK1tXQuyjd3BatSYf/4gh0HlAMBFhIow/Xj0KCHWoMkgDwNcYAuuz9Jg+kW5O6bn1LOJY779cFmXncp7T9hBpCKF9TSvHKdqpE8r+knJByQuW5IdUg1+1Z2O+IwRh/wjj6gOtJTRjKT9eXCkeWBI9dWq7SWz9zA1bN2kDHcOoLeYsK+jqLHVc61GyvISt3rqiHBVmnP+nOt4CNGZOOUzKoGIdfdzi9D8FHgsc3gT+LkdEsWpibSuvRwA1N7YKF04In04VCumZdLDsRo4uMIyqllZySTGQXFoT3tBO6v1sX8RwOoZjdI0nHIuWEtCVc32VrQRx3y6nI6poLk1fjFHWorYdXxzRqbHz77DcINPmjF1GGNZNEM0BSuvzjpahaUUsZipuzojyWEoAr04ujbzwKLpcLYrG5uGRMC+Xry2AGY2NBZuVnIaOzF9D4YlnyUxsWu+zCHGQV8uzusUDD+iWbxaQvaRB8SRJIaSHlq3ORFdR5QAlGnToMps5JOrpL1iyd5C+Exe8tRPnGcnA/8mjFiwWTp1dz+XRMf2QamoJNogGrtcNBd2G70HtUdww5enB4Bwt07HMmdxer215HBnNshDQnPwcZeV6YpsXebRpgw5PtQWan2Lj2fI8qNlZS+ZQeFrkk8aS0kDrr5WjIzNQw8cyJyM3JFM5mpHVWuPA/gWNDWfDXGnjrT+/CCHAzdnRqwN/mpVdnPT4DWxaUinWO3ErrrB0+FXfpcpbO1TDurLHI79aJwsUf0BNdYNSW7U/Akyjv3LzDOUd7oDDzlHV6nguZWbwujdM7IdUxVRMuTUdu1/Z2gXLgtntfRR0MMV+BFFLJ/5LSQtqMjb5T+mH4CUPblY2Xv78cK6etIoGIfk7O2k21+Piud0kKXeE90ZM7KBdTLphMQvfT9bztQaHSpqqsikS6/beXCyzu5K56uNiiAoHVP8Vhweeq9KzOmeE97YNDzY133BOCX0skPyRNhJQys1vD6becBz3L6RHKQwI5iUeDZYbw8cOfIFAd6QXw0wgDxFIw95VvsKO0iS6FO2a3HnGZbJZSTF92x6XwFpJVHY71eIkSdx8LNAWjr3r4AeLaLRuuDCo83CpstnCji/Kk4MS5DXdW2wu9lvDh7KAJwx/dvZfsO6SJkBJkZmX1zcER1x1FF60iiNYlalEBwNUAtPGCbJvmbsfq2WtF382fasHnj0wlIMasL3hjAb3RycpzlhxubUs9z5FqWDoGHzEEA48fQAela/mRc8YECqe/3k/nbk8dKR2E/nj6D83rgkfxitFNcb7yGKLA6/U236so41zc3fDvVNp85NcHm1pfAEv2LdJGSLl+kdfxmESucWH/zvCQOHH/6GjguTR9O32Y/czs8J4fhwWPl7D7/q352LaglPa0RUZUuHN1TLp0CjSd5++M8qLbiHOl7ZE9R0Qs24KmxbcqIuaEg81zGcSGcLc5fpWY2ydJM9LIIlXgsTV0G9gdw04cRCJK1laUOuGyvFBcNua/8z3WLeaZoX4CyjTmThvv/+dDGDY3UrV+4uYIOjwoHtYZI44cLjJjQoSU4kWciwPQDpy572njAQPk1nOVQQKuvt1EClheeyk2OCHniawlkj2RNkIq8gbnabeNgy49FHqBcDpJmFic9t4E0NJFM8iiVU1y1QwFb/zqVQTqGn7UquXuPp/c/y7qNzdBtXjqFJWO1gp3mY/JzfG0GWoIJ15/PLydMqCGLaS4iykJvjszyuGre4DnT7I1BabfQMg0RCPWXiM6hYhUQfibfCKuI1s0cLGx63d0PN2lQ3NplI6cQkoiaUn6WKRhOIEXjyjGUdcfTa56MLw3erZ8vRGLPlgK29x7BqtaswPzX1zYrkgacHR/jD51JGXI8I5EQOfyZGUIMWkPQkToICF/AHaQhJT2pYOEcBHL5VjA5wvvaR8sy5pHhScz+ikdJfsGaSikYqUgnHjTz1A8qFDs4Rb8VusUm6C0WbTNmjoHgfrmYZTCcmWp4D9yZ797ex5KN+2gYxtin9haAR+HvWEvidnpN58FxRvtMIL2wVm9oAsPj2x1rOwRDgd3efL7AjBDZJ+K2pRWRkIy4ftI97ehpr1DZCOQRZrpQgZb+RSl0Vq3ko5P2gmp0AbaTK+Bgy89GC7dS8LRWoVr3kw7hPVklW6cu9ERUNoE9GQoQfgoE855YR40i5f4ZZe++bEnWrqCLPa67cbQ44ei+6hiOqbIfeFvJgIFhb25M/qer7X1OL8P1YfITSaLNJoCK4nwPbKCNhrKYiOkKt0/T2EG1AynplQi+SFpaJE6mVunV2PPnIC8Adn0WkO0843qqhv+Gj8+vvPj3YRUtNTbKuY9NxcVy8uhmZQpo2y04O6WGlmhY88fK4YqJtqC4ezeqUcnipP2z8LK8dJQ3QhfLbnJCg+LTX0pZcEPNPrQUBEri1RBV176RuXqjXQoSiSJJm2LV83U0Ll3Z0w6byIJHfmcPOFw+NEq6PfsBK/+Yg0WTV/qGIz8j/zXpm1+vHXXu2RIck9MskdbYdgJS5XFWAixgb5TemPkoaN2CXQi4VN2JiHV3c1x0up42Q2ODwX+Wj/81U0wWxMRKQGJf30jAjubwu/bwu5h7T64p4iOH+yWSARpKKScmumySQctzcIRVxyFnP55wv0SH4knfvHj8NLCLDNcFzrtP9OckUAGt/jqmDX1KxJTsmZEpmHbtzUNDMKhpJPbUHN0XHD7edDpOdJSn0j4SvJ75COzIHNXnLQiSv6HiAD76nyoWr2D4kxEbupja6grbUD9jvrwjrbC952KUtVE73H90yLokuSQthYpwyOcPMUu/OyWs2HrbR++Vz5/K9bP3SxEoq68AYveWhh1J3QWHBZNi8zB8WdORJfxhcnLeHRiV4GGgqKCmFhQPBfrRoof7gCWBAM7arjbVvXqnWhol0XajJ6hoXhQDy4j06MgkSSctBZS0fpO2WbU0cPR/4CBwhKxWul+RqwtfjTWNmLJB4sRsIPY9N06lC8vRag1RmgLuOcAW7f5JZ1wxGWHiQmc+dhJwTLhzvCgqF9XCijHR2SLjkj8cIG1YtZymKFg+HipDTsnG+avQyhoNge9DZfNhQb/LL9rPvJKssWbNhxGsg+Q5kLKAXDD1cmFCeeOh9tNwmpyK3srkjtrXHizDQXLP1yCYL0P373xHfzkyupRzzXKcw650eeI3ug2uht0sfZUcoSUz+rJ8KLzoM5idRMh8m0RwHD8cNVx2cpt2DZve1LqfKOBr08PqFgwnbwKSh1czRF5RA0HnLZuQ7vDk0sRqXA1j0Tyv6S1kNpkfXLGYYtpzGnjkT0wD25K7Pw+GjRFQ+mKbVj0/EIsensxZTnOgtG3ePu9fhx97RFwZcZm1qG2wvORqm4dPUf3gu7iKor2Zn8SJ9OFz5/6iqc7EHGekoIavqTVX69H1eoqcRfbCjskfDi2bosHF8NF7n0otcsQSRJJayFlVLIYOMPkFGXjtN+fDlNzskDELd0rIpc4G0/MwUeZ+qdXEKrjNZT4dz8tPnx8kbfYcqFXEy+ajAHjBor3ye20zZOtAH3H9IWeybNV8W1uw/WE4yeimcs+XoLKzTthkZpyh/ddH6QAwuKkW2+EDLxz9zvQLa72ac/1URqiMLp1D/rs3wea5oKe9rlFEi/SOmnsEkuhEybGnzMO/Q4a4FgirBu07U0+HGfPeUQw6sXocvGaF5BrDSyYXE+bWZyB8/96Pgk597UMf5g0yIKkOCgaUITicSWkd6QwvEVJy/jhXg5GWRCL3v0WPnrwyK29x24ycO7dxm83Yc2XK4TQt+c2cGHKXd/0Qh39J3CLvVO8SiR7ouOUsWR1cYfpY284CmqeS1gT8YYtHhZR3a3hgAunQOvkJmHVhDuYXOi2krVoaSaO+vkx9NaC1o6L4sKKLX8fafGiN5chWEECwzKVQg1PXFj4Qya+fflbaI10DygO+N60B+5H3GdyX+T1zAvvkUj2TIcRUg6IpaoYcMAg9J/cm95rQugcGQhbrq2BfxLZ9gAfJXI8jVcBpS23czYmnjURbu4ALwYGJBk2yEXVgoLRR49C536dYJIoRK6bH9HhRIaiGFg3dxMWvf09vaPYTbJr37Ku1qLwVi4rxYK354v3HH6+P9HC0SaijsKsqi4cc/URUHWKMWenRLJHOoyQshnIi9J5O2figEsPgV8P8M5wzqCXrcwHEXeWH3um+XjcZ9RlqRh00hD0GNOddtopleGEYOZomHj+AWQ8clyInc4WJc7PyH0OmHjlxldRsb5cWP3JFNNIXPNqB5bfwht/eA2+sgAlBb6m6K/LOZrzWx4tVzK6CEMOHkrvO042kcSHDpNCRDcfygqKbWLkicMxaPJA3hveYssui47OmVms4+TfnUY7UzMqdQr+kOOHIreEZ8pyaI9HzsG0Gkw898upqC2rFdGbNC3lc5OImkEDn/zzIyz7dCXZyW0fmNEyGKpbw2GXHoGQm+teJZIfp8MIqbCY6B+71t5MHeffezHc2dxi7bigsbKc2FI1bF6FlI9n4ahfHYPC3p3EBaSa+yeuhyyr7kN6os/k3ryDrOjmBrXWwt8WjTe8WeIwWDtzLT594GOYtM/kYyZDTS0TAS2E+W/Ox/QHpkOnC+NH5H5Hf01OS7+leFDcvwgDjhgAV3hOBonkx+gwQtoSbmgoGlWAUaeME8IaS1gqNZVnm7JQPLQEYy+YxFlXZOBUhOtws7O8OPSKw6DoPtGjoT2Tj3BIeaID02di+j2f4dN7piHo97H8JFRM+VwhugvrZm7HW79/E4FatkTbe35up+claRQMO2kkCgd1Ep5OOsx4JUkuHVNIKeG7FB2TL5qIrMIM2hPjjMB9f3QVY0+bgIKiHJjC8kuciESDuCoSnf6HD8CYnx1I16q2W/B4KCyP/LIDwDt/fAPv3/I+mqq5TprP5zwcYhcnu45EL1jsuL/onOfm4NmzH0T1llrng3ZDxSHFj6vAxCGXHwaPzXPdxjIUko5KhxNSdme524pNz4On7Icek3qS/dT+Lkl8XHFsYXva8OZ5cNClB0HX3WShiiwY/mZqIW6wpsDjceO8288TY8bZII2Eh7fo4BgQ9qd4FSJBm3b3DDx2yUOwamyxUqvCnXBNErzWdsb9KVjJ6HiGEFE6b8jGtLum4fnrXhCTzDhOB/+LbNHRMi5UKiTO/uc5KBjQGTxxF0VdG+JIsq8RfapLAzhQbHWpHhdO+f3psLPI7WtDh/S9YaoKjvnVMcjrkxXekx54e2g46OpDoLljM4SV41lXNCHMq99bjT/u/zt8+9hM1JbXI6SFSIDa149zF1QwmqqJYEMQyz5ZgnuP/zfevfltwB97gRt89GCM5QKS51SUSFpJhxRSYcHwE5mKvSf2wEHnHynsp3YR/jnPvl40sghH/+JoMQdqOlkrtkZCetHBKB5RFLt6PzoO99fUKB5q1vvw6m/fxH0n3IsZD3yGugpHSDnqRPRFXoTjco+EP+P75dRYAqFGA0s/XIqHz7gfz13wLFZ9th4WnZMt41jANR28zHZWlywc+Zuj4NH5vNFNoyjZt+mQQsr1XDw3KGcFfj7k+kOQ36MT7XeEkLdoMdi3pOhSyNc76uqjoOW60kpEGZetI69XFi64+3yo2c618+ifiFsbbXgisWiR7nDrPfvfwcYAti3chjevfw03Dv8FXvrVC9gwYwMqN+xAY30TfAE/fJaPI5R+SHJJKsb9QG3y2y1y2X2GT8xuX1dah/K52/H5nZ/h5gl/xj2n3oM1JKB1OxrJQCVvg04unAyuPqCNjxPZooVHbfFcC+MuGouhhw0Wh+Q9Eklr6ZgWaQs4UxT2y3OWRG5jaDlTsQtrKkF0G9sDw48dJjIyr5+ebvDEcn0O7o/Tbj8VepYbWhyCYPCkJnADVSq+uO8r3H7sP3DHQbfh0VMfxatXv4x3yGp9629v4cM7PsTH//4IH//rI7x72zt49Y+v4K1fvIHnzn0Wdx1+N2455DY8+/vnULeiFhmGB7YZopsRuyqaCFxIDj59IE7542lQXTqlk/ZOeCLZ1+jwQsrDGr0uNyZedCA8uV7eI9y4aGA3ky0dFogpp09GTq+ceOTnBBCikOjQDBWTLpmIcWeNItHQm03LGOGxeG5WsoDF+RSopo6GbQ1Y+eVqfP3cbHx2/zf4+PaP8fYt7+DNP7+Nd/76Lt6/9QPM+M9n+PzJmfj+w4XYvqoU8FvIhFdUQ3C9tEIWtWLHzuXmYLMV3nNMT5z7nwuQlZPBO8SINU4nEklr6fhCartA+Rq9R3fHqJ+Noj2RmrefJlIN4GwKuvTrislXTIRbIWvLxZGXZtHHk02zPpDKZWfl4fS/no7ig7rBVi2KJ7bMnHCKrR1CwpUgXGVgUiSJGCJh4tmT2PrVxCunZV81aV9IhRIkx5oEkvu48uc8c5WLCju+BrZt+Y5xazofld+1lV1ho01cEV1cVkkuzrz1DOT2zqEbynu5pT7t7qwkyXT49BLJOLqu47S//gz5++WTS96GzJgJnH/neXAVslWb/rCVndUjB9f891r0O2oADNWAug+1r7DzntHVhYsevBCDjhrIdjrtlfIpaRsdPuVwQwYLKZPTLQvn3HoB3B7ONmSViDrOvVtewj7hjudkqRxy3kEYdNIg6OSmdgSElafwktaFuOKhy9BtZAl0g8RExInTS7SjIfoXU9j43nsLMnD1Yzeg/2m9qQCh9EDWcZQ1PhLJLjp80oksh8xiys7jkBOG4oy7z0ZunwLR29oRU7ZQnc2ZW57F18l43kI3DrrmKJzw55Ph0rW0bGDaE7y8inCeKXoK+hXi6mevQ59De3FvJvLE2f2mT8PWPD9iQcuW9Z/cYiTku8JAm+iuRmrp7e7Fufefi/7H9IUX2U4uoPIxNqGU7IvsW2WwaUPNVDH58sn4xfu/xOm3/QzF47oio9AFd4EKd76KjE4ueDpp6NInH4dfdSSuf/M6nPLvk5DZwwvF4hFSHTG7Keg8vAhXPPdz7H/+eNhuKmC4W0IHgxuROo/qjOtfuQFjzx0HxU3Fhei2JZG0j31KSG3dhsvW4NXd6DG4BEfedBj+NudvuLfyYdxX+Rju3/EYvX4E91Y8ilvX3YnTHz4DPQ7uhxxXBtmyLrZT2YjtcAiDjMLVqWc+LnngQhxxxSHQcjigTuMLP6ctfOnhrc+UPvj11OtRfEARdJX8E4Ot1I5XYEgSzz4lpOzcC2WgUHPHep3EkfsM8j5uaGE3lzfR6EL73PR9N/t8/Bm977CLn3EUCEubApjrxun3nIOLHr0cJaO6OR/uqvqICGv64FQSOI9hR41AZu9ceMxMCgffUNrCVT8SSXuQqUiyGy5TgYvKjrFnjMIN7/4ao88bDZMseVHHSBsLUroy/d5PsOTNJfBrvvAeiSQ2SCGV7IaYx5gE06W5kNczB1c993P8Yuov0XtSXzFrPJvnolpRYevUeUT44ftUw1/rw9TfT8XWGdvEzPo8RJXtbImkvUghlewGS6XQQtqEKKoKRv1sJK59/Rpc/MjF6DWpFxRyh8XoMBLTyFBK8d3w71IWW0P9dh8evvhhLP1kKYIweRVviaTdSCGV/CQskjwCaMSlY/DHr36Hn0+9ApmDcxBUyZ4j5eWx6k43stSGNV61LQS3hfDyr6eidvFOWPGYbECyzxEnISW3j9InZ0DuLhTNgwexcy/GtszQlF6wU0kqRE8i3Pw/yrjihw0XbeIg8YPuha6oyLDdUFw6xpwxGv+Z+y/86uXrcNDlB6LX6F7QM7hXA5t3zn3j/xQccYXOxTlDPsVrEc7d2RWeXffd+Q3/iidaYZyuZ5HPo8e5EgsBJYidq2vx5HVPoHxVlbMKqXDzEzcHqcJriXEYKV4jYY/2wVcs4oaP1SF6H3BcsHaEn3c9mtNHtA8+Cndxi3cVTlyE1LZIICjR6yJSeAwNr3DUyo0ikeeaFO2sHbhrCoeRgigmLOYYEk4yhXePcbKXjWej5yQHy6DfcnKLF+Fjh594RJSSo2DoGcNx1oNn49q3rsFv3/sVjvm/o1E0qisUry6u0BDz3FEwyX821RDtcaRRpXvMNQMs0KLxitIKXz4LpU3uNznc9H36vRYk91vYu/QrCqtYdLDt4eSMJa6AtYeOunHOVjxy/oOoWlfhDJFNwKi1yIADMX2MTSGlSNnTvW3Nxr1QeDFDMQ0BhynN84u4ek4zdJs4TzgPzhP8+N/wt2bjZch5XgeT7ns8ofPELvYjh9q6dBsWvDKfMkGQ4sQRxdaiUCbllDH8mEHY76Ch9L7tGSeVYXHQyBKqKq3BFw9/yVpCcAkaRaUd/YYlpv/o3hh9ylhw1CU0vvi28kanDJKVx7gNN8yKIBZ8vgBLvlqG8jWVqCurB+pN1AWbgJABzbARCDqpIhxscd28uXUdiodC5VKRnZ2DjKIMdB5QhH6j+uCrF2aifH45ZZDWp6e9w0UQxbWuYfiJw3Dxo5cgu2sW7Ytv/EXyyJYllEfenI+AEWBpF/uihWfFYonpN7o/xpw+WnTlS+f8wilCMQ0ESfjmvzEf2yiOnPDwHW/bPVddwIHnTkHRgBK+5XEjpkIagUsClSLDEqNjokuaHGGcsEwqs7kXZ0dFRDqVvqKg2a0aI5rbwaU1H8H5VVszZFtx7i6/CL+iP8d6CO+n/xp9FqwPoaGyAXXljWisqYOvvgGWX0coFIJpktVA4Xe73XB5XFBzXcjOy0J+5zzkFOfAlUtWIgXLoPRQvbQGT17+BDbN3cRHpuM77h8TbUbjyb/ZWzLp2CxAI88diUvuuRgZBRnifMK9dA4dc/haeW4svnMRF7ZtRGLa2dp+nNRACCmlF07TjoBG7ml097Ylji/D/518Ei/iIqQSyZ4QchtObY6QUGFLYsbzITgS0CwGnCxbWleWZQjB3TB7O+4/9d8wK0mgVXbdnM+jTcYtj82CyuMuRp05Dpc8finUbBUuiyd4Dn9BIvkJZFKRJAyWOra+Tcske5IXzeM5SunZIiEV255FlH/p2G4aek3ujiue+jn0bq5dIsoHbvntaBHrPxkqFr+9GNPu+BCqn2yj9hxQss+h/ZUIv5ZI4oqjTeRikQUqqjN4B1f/8HN4Ezbpnnxq2idcYXouHNgFnbt0wYpvViDU1NxTwLFn9/DbPRD5nvilODe5lCGyeBduoGsz0G9iP6g8Oxh9yKLa2uNK9k2kRSpJKBE5ioieU0/Y/NgzQumcP7JaeWaqseeOxdG/OpasyZDzlfCcCXs9xA/g+jh+8CvnJ/zfhtEQwht/fROzH58Ny2DL1Knvl0h+DCmkkvSCLEfV1qC4NRz560NxzP8dDz2T3nO7C9eTOsZpm2Brlx+ZZgbe+ee7mP/aIpgmH1AOf5L8OFJIJekFiR2voc9t9q4MD07+4/E46NKDYKk84z+74mxbNj9ahRDg8MZHoJ81VTTg+f/7L1ZNWy4m8zZtXtGKHuI7EsnuSCGVpC08CMHOUXD8n47H4OOGIaSQ2PHgedbPyNYKwvK5i8h7azvwyCWPYe1XG7jbAMTqoiTWEskPkUIqSVt4UmbdVpHTJRuX3c+L2A0inaMkHVbFluIYLfxb0w7BqjDwwm9eQtninbSP+zk6n0skLZH9SCUdA7IYq9fW4OELHsaWeVvIHScxpKTNSytHiCapC7szrJq89r82wIXbPv47cnvliF4HLbvCSyTSIpV0CFgjcwbm4sw7zkRen3yyVnmuh9hgmQbsVTYevOghVG6oIhENiBNKEZVEkEIq6RCw4alZOvof1g9XPXs18oZ1Ak9U4XRxIuiJBx86ZqTTKPWjG32v+TVPEOPDljlb8MqNr8Cq59VkTSHe/LlEIl17SYcjYPrRtKoJD1z5MMq+3SamyeOZpdykjuySc2cmnhHASfhsWf64bdlygIBlhzDwlMG4/rkboOfqJNX0azrQHgcRSPYZ5MgmSYeDp/lzddYx8dSJ6NSjAIpXQaDeD78RQNDgWaosIXyOccrPjpu+t62FbSoGA9SsrEFdQz0GTewPt9clRFoK6b6NtEglHQ8yOQ2NbE/uHkXmYrDOj/qyGjRVBLB92TZsX7kNDWUNYvYpQRQaaCsqVNOE6tUx6ecTMHzKcFi6JuvI9nGkkEr2TdjHZzj1t9GYFBO+8bwB3PAkLdJ9Gimkkn0SriONSF/b+4bSEaSASgjpkUj2SWzbaWwSrfqsha3cnNZ85yH2SSSEtEglEomkXQD/D7iMh2Xr7bpQAAAAAElFTkSuQmCC;" parent="1" vertex="1">
          <mxGeometry x="279" y="205" width="34.66" height="30.97" as="geometry" />
        </mxCell>
        <mxCell id="fg9tmBsoxGhYN7MrN3KU-1" value="&lt;div&gt;NODE 1&lt;/div&gt;Bộ cảm biến Input1" style="rounded=0;whiteSpace=wrap;html=1;" parent="1" vertex="1">
          <mxGeometry x="13" y="82" width="160" height="80" as="geometry" />
        </mxCell>
        <mxCell id="fg9tmBsoxGhYN7MrN3KU-2" value="&lt;div&gt;NODE 5&lt;/div&gt;Bộ điều khiển Control2" style="rounded=0;whiteSpace=wrap;html=1;" parent="1" vertex="1">
          <mxGeometry x="659" y="82" width="160" height="80" as="geometry" />
        </mxCell>
        <mxCell id="fg9tmBsoxGhYN7MrN3KU-3" value="" style="endArrow=classic;html=1;rounded=0;exitX=0.5;exitY=1;exitDx=0;exitDy=0;entryX=0.5;entryY=0;entryDx=0;entryDy=0;" parent="1" source="fg9tmBsoxGhYN7MrN3KU-1" target="ufSvJkh3mHQe6z2R9wbV-1" edge="1">
          <mxGeometry width="50" height="50" relative="1" as="geometry">
            <mxPoint x="41" y="257" as="sourcePoint" />
            <mxPoint x="91" y="207" as="targetPoint" />
          </mxGeometry>
        </mxCell>
        <mxCell id="fg9tmBsoxGhYN7MrN3KU-4" value="" style="endArrow=classic;html=1;rounded=0;exitX=0.5;exitY=1;exitDx=0;exitDy=0;entryX=0.5;entryY=0;entryDx=0;entryDy=0;" parent="1" source="7qv9D-rVaQOXauU0Sa_8-4" target="7qv9D-rVaQOXauU0Sa_8-2" edge="1">
          <mxGeometry width="50" height="50" relative="1" as="geometry">
            <mxPoint x="526" y="165" as="sourcePoint" />
            <mxPoint x="609" y="205" as="targetPoint" />
          </mxGeometry>
        </mxCell>
        <mxCell id="fg9tmBsoxGhYN7MrN3KU-5" value="" style="endArrow=classic;html=1;rounded=0;exitX=0.5;exitY=1;exitDx=0;exitDy=0;entryX=0.5;entryY=0;entryDx=0;entryDy=0;" parent="1" source="ufSvJkh3mHQe6z2R9wbV-2" target="ufSvJkh3mHQe6z2R9wbV-1" edge="1">
          <mxGeometry width="50" height="50" relative="1" as="geometry">
            <mxPoint x="271.33" y="219" as="sourcePoint" />
            <mxPoint x="321.33" y="169" as="targetPoint" />
          </mxGeometry>
        </mxCell>
        <mxCell id="fg9tmBsoxGhYN7MrN3KU-6" value="" style="endArrow=classic;html=1;rounded=0;exitX=0.5;exitY=1;exitDx=0;exitDy=0;entryX=0.5;entryY=0;entryDx=0;entryDy=0;" parent="1" source="fg9tmBsoxGhYN7MrN3KU-2" target="7qv9D-rVaQOXauU0Sa_8-2" edge="1">
          <mxGeometry width="50" height="50" relative="1" as="geometry">
            <mxPoint x="784" y="179" as="sourcePoint" />
            <mxPoint x="652" y="185" as="targetPoint" />
          </mxGeometry>
        </mxCell>
      </root>
    </mxGraphModel>
  </diagram>
  <diagram id="aHaOISpQDw2JwGiace1P" name="Trang-2">
    <mxGraphModel dx="696" dy="747" grid="1" gridSize="10" guides="1" tooltips="1" connect="1" arrows="1" fold="1" page="1" pageScale="1" pageWidth="827" pageHeight="1169" math="0" shadow="0">
      <root>
        <mxCell id="0" />
        <mxCell id="1" parent="0" />
        <mxCell id="6BsFL-vyeztpJLN6zlBV-57" value="" style="rounded=1;whiteSpace=wrap;html=1;" parent="1" vertex="1">
          <mxGeometry x="536" y="10" width="244" height="330" as="geometry" />
        </mxCell>
        <mxCell id="6BsFL-vyeztpJLN6zlBV-54" value="" style="rounded=1;whiteSpace=wrap;html=1;" parent="1" vertex="1">
          <mxGeometry x="181.2" y="110" width="120" height="150" as="geometry" />
        </mxCell>
        <mxCell id="6BsFL-vyeztpJLN6zlBV-53" value="" style="rounded=1;whiteSpace=wrap;html=1;" parent="1" vertex="1">
          <mxGeometry x="180" y="10" width="120" height="91" as="geometry" />
        </mxCell>
        <mxCell id="zHMnvr0FlxMbOFStZFHb-1" value="ESP8266" style="rounded=0;whiteSpace=wrap;html=1;direction=south;" parent="1" vertex="1">
          <mxGeometry x="360" y="40" width="120" height="290" as="geometry" />
        </mxCell>
        <mxCell id="zHMnvr0FlxMbOFStZFHb-7" value="" style="edgeStyle=orthogonalEdgeStyle;rounded=0;orthogonalLoop=1;jettySize=auto;html=1;" parent="1" source="zHMnvr0FlxMbOFStZFHb-6" edge="1">
          <mxGeometry relative="1" as="geometry">
            <mxPoint x="421.2" y="330" as="targetPoint" />
          </mxGeometry>
        </mxCell>
        <mxCell id="zHMnvr0FlxMbOFStZFHb-6" value="Power supply" style="rounded=0;whiteSpace=wrap;html=1;" parent="1" vertex="1">
          <mxGeometry x="361.2" y="359" width="120" height="40" as="geometry" />
        </mxCell>
        <mxCell id="zHMnvr0FlxMbOFStZFHb-18" value="ESP32" style="rounded=0;whiteSpace=wrap;html=1;direction=south;" parent="1" vertex="1">
          <mxGeometry x="559.92" y="280" width="120" height="40" as="geometry" />
        </mxCell>
        <mxCell id="zHMnvr0FlxMbOFStZFHb-19" value="" style="edgeStyle=orthogonalEdgeStyle;rounded=0;orthogonalLoop=1;jettySize=auto;html=1;" parent="1" source="zHMnvr0FlxMbOFStZFHb-20" target="zHMnvr0FlxMbOFStZFHb-18" edge="1">
          <mxGeometry relative="1" as="geometry" />
        </mxCell>
        <mxCell id="zHMnvr0FlxMbOFStZFHb-20" value="Power supply" style="rounded=0;whiteSpace=wrap;html=1;" parent="1" vertex="1">
          <mxGeometry x="559.9999999999999" y="360" width="120" height="40" as="geometry" />
        </mxCell>
        <mxCell id="6BsFL-vyeztpJLN6zlBV-1" value="OLED 0.96 inch&amp;nbsp;" style="rounded=0;whiteSpace=wrap;html=1;" parent="1" vertex="1">
          <mxGeometry x="561.12" y="40" width="120" height="40" as="geometry" />
        </mxCell>
        <mxCell id="6BsFL-vyeztpJLN6zlBV-10" value="" style="endArrow=classic;html=1;rounded=0;entryX=0;entryY=0.5;entryDx=0;entryDy=0;exitX=0.07;exitY=-0.005;exitDx=0;exitDy=0;exitPerimeter=0;" parent="1" source="zHMnvr0FlxMbOFStZFHb-1" edge="1">
          <mxGeometry width="50" height="50" relative="1" as="geometry">
            <mxPoint x="490" y="70" as="sourcePoint" />
            <mxPoint x="561.12" y="60" as="targetPoint" />
          </mxGeometry>
        </mxCell>
        <mxCell id="6BsFL-vyeztpJLN6zlBV-14" value="I2C" style="text;html=1;align=center;verticalAlign=middle;whiteSpace=wrap;rounded=0;" parent="1" vertex="1">
          <mxGeometry x="480" y="30" width="60" height="30" as="geometry" />
        </mxCell>
        <mxCell id="6BsFL-vyeztpJLN6zlBV-30" value="" style="endArrow=classic;html=1;rounded=0;entryX=0.507;entryY=1.005;entryDx=0;entryDy=0;entryPerimeter=0;" parent="1" target="zHMnvr0FlxMbOFStZFHb-18" edge="1">
          <mxGeometry width="50" height="50" relative="1" as="geometry">
            <mxPoint x="480" y="300.64" as="sourcePoint" />
            <mxPoint x="566.56" y="303" as="targetPoint" />
          </mxGeometry>
        </mxCell>
        <mxCell id="6BsFL-vyeztpJLN6zlBV-31" value="WIFI" style="text;html=1;align=center;verticalAlign=middle;whiteSpace=wrap;rounded=0;" parent="1" vertex="1">
          <mxGeometry x="480" y="260" width="60" height="30" as="geometry" />
        </mxCell>
        <mxCell id="6BsFL-vyeztpJLN6zlBV-38" value="DHT11 sensor" style="rounded=0;whiteSpace=wrap;html=1;" parent="1" vertex="1">
          <mxGeometry x="200" y="40" width="80" height="40" as="geometry" />
        </mxCell>
        <mxCell id="6BsFL-vyeztpJLN6zlBV-41" value="" style="endArrow=classic;html=1;rounded=0;exitX=0.698;exitY=-0.01;exitDx=0;exitDy=0;exitPerimeter=0;" parent="1" edge="1">
          <mxGeometry width="50" height="50" relative="1" as="geometry">
            <mxPoint x="280.00000000000006" y="59.63999999999993" as="sourcePoint" />
            <mxPoint x="358.8" y="60.04000000000002" as="targetPoint" />
          </mxGeometry>
        </mxCell>
        <mxCell id="6BsFL-vyeztpJLN6zlBV-44" value="1 Wire" style="text;html=1;align=center;verticalAlign=middle;whiteSpace=wrap;rounded=0;" parent="1" vertex="1">
          <mxGeometry x="290" y="30" width="60" height="30" as="geometry" />
        </mxCell>
        <mxCell id="6BsFL-vyeztpJLN6zlBV-47" value="BUTTON 1" style="rounded=0;whiteSpace=wrap;html=1;" parent="1" vertex="1">
          <mxGeometry x="201.2" y="120" width="80" height="40" as="geometry" />
        </mxCell>
        <mxCell id="6BsFL-vyeztpJLN6zlBV-48" value="" style="endArrow=classic;html=1;rounded=0;exitX=0.698;exitY=-0.01;exitDx=0;exitDy=0;exitPerimeter=0;" parent="1" edge="1">
          <mxGeometry width="50" height="50" relative="1" as="geometry">
            <mxPoint x="281.20000000000005" y="139.63999999999993" as="sourcePoint" />
            <mxPoint x="360" y="140.04000000000002" as="targetPoint" />
          </mxGeometry>
        </mxCell>
        <mxCell id="6BsFL-vyeztpJLN6zlBV-49" value="GPIO" style="text;html=1;align=center;verticalAlign=middle;whiteSpace=wrap;rounded=0;" parent="1" vertex="1">
          <mxGeometry x="291.2" y="110" width="60" height="30" as="geometry" />
        </mxCell>
        <mxCell id="6BsFL-vyeztpJLN6zlBV-50" value="BUTTON 2" style="rounded=0;whiteSpace=wrap;html=1;" parent="1" vertex="1">
          <mxGeometry x="201.2" y="197" width="80" height="40" as="geometry" />
        </mxCell>
        <mxCell id="6BsFL-vyeztpJLN6zlBV-51" value="" style="endArrow=classic;html=1;rounded=0;exitX=0.698;exitY=-0.01;exitDx=0;exitDy=0;exitPerimeter=0;" parent="1" edge="1">
          <mxGeometry width="50" height="50" relative="1" as="geometry">
            <mxPoint x="281.20000000000005" y="216.63999999999993" as="sourcePoint" />
            <mxPoint x="360" y="217.04000000000002" as="targetPoint" />
          </mxGeometry>
        </mxCell>
        <mxCell id="6BsFL-vyeztpJLN6zlBV-52" value="GPIO" style="text;html=1;align=center;verticalAlign=middle;whiteSpace=wrap;rounded=0;" parent="1" vertex="1">
          <mxGeometry x="291.2" y="187" width="60" height="30" as="geometry" />
        </mxCell>
        <mxCell id="6BsFL-vyeztpJLN6zlBV-55" value="Control1" style="text;html=1;align=center;verticalAlign=middle;whiteSpace=wrap;rounded=0;" parent="1" vertex="1">
          <mxGeometry x="211.2" y="237" width="60" height="30" as="geometry" />
        </mxCell>
        <mxCell id="6BsFL-vyeztpJLN6zlBV-56" value="Input1" style="text;html=1;align=center;verticalAlign=middle;whiteSpace=wrap;rounded=0;" parent="1" vertex="1">
          <mxGeometry x="210" y="10" width="60" height="30" as="geometry" />
        </mxCell>
        <mxCell id="6BsFL-vyeztpJLN6zlBV-58" value="Output1" style="text;html=1;align=center;verticalAlign=middle;whiteSpace=wrap;rounded=0;" parent="1" vertex="1">
          <mxGeometry x="693" y="50" width="60" height="30" as="geometry" />
        </mxCell>
        <mxCell id="TNq6oJo2LybHUcNiyFO0-1" value="Light1" style="rounded=0;whiteSpace=wrap;html=1;" vertex="1" parent="1">
          <mxGeometry x="680" y="120" width="80" height="40" as="geometry" />
        </mxCell>
        <mxCell id="TNq6oJo2LybHUcNiyFO0-2" value="Fan1" style="rounded=0;whiteSpace=wrap;html=1;" vertex="1" parent="1">
          <mxGeometry x="680" y="199" width="80" height="40" as="geometry" />
        </mxCell>
        <mxCell id="TNq6oJo2LybHUcNiyFO0-3" value="Relay" style="rounded=1;whiteSpace=wrap;html=1;" vertex="1" parent="1">
          <mxGeometry x="558" y="120" width="82" height="40" as="geometry" />
        </mxCell>
        <mxCell id="TNq6oJo2LybHUcNiyFO0-4" value="" style="endArrow=classic;html=1;rounded=0;" edge="1" parent="1">
          <mxGeometry width="50" height="50" relative="1" as="geometry">
            <mxPoint x="480" y="140" as="sourcePoint" />
            <mxPoint x="558" y="139.74" as="targetPoint" />
          </mxGeometry>
        </mxCell>
        <mxCell id="TNq6oJo2LybHUcNiyFO0-5" value="Relay" style="rounded=1;whiteSpace=wrap;html=1;" vertex="1" parent="1">
          <mxGeometry x="558" y="199" width="82" height="40" as="geometry" />
        </mxCell>
        <mxCell id="TNq6oJo2LybHUcNiyFO0-6" value="" style="endArrow=classic;html=1;rounded=0;" edge="1" parent="1">
          <mxGeometry width="50" height="50" relative="1" as="geometry">
            <mxPoint x="480" y="219" as="sourcePoint" />
            <mxPoint x="558" y="218.74" as="targetPoint" />
          </mxGeometry>
        </mxCell>
        <mxCell id="TNq6oJo2LybHUcNiyFO0-7" value="" style="endArrow=classic;html=1;rounded=0;" edge="1" parent="1">
          <mxGeometry width="50" height="50" relative="1" as="geometry">
            <mxPoint x="640.9999999999999" y="139.74" as="sourcePoint" />
            <mxPoint x="680" y="139.74" as="targetPoint" />
          </mxGeometry>
        </mxCell>
        <mxCell id="TNq6oJo2LybHUcNiyFO0-8" value="" style="endArrow=classic;html=1;rounded=0;" edge="1" parent="1">
          <mxGeometry width="50" height="50" relative="1" as="geometry">
            <mxPoint x="639.9999999999999" y="218.92000000000007" as="sourcePoint" />
            <mxPoint x="679" y="218.92000000000007" as="targetPoint" />
          </mxGeometry>
        </mxCell>
        <mxCell id="TNq6oJo2LybHUcNiyFO0-9" value="GPIO" style="text;html=1;align=center;verticalAlign=middle;whiteSpace=wrap;rounded=0;" vertex="1" parent="1">
          <mxGeometry x="480" y="110" width="60" height="30" as="geometry" />
        </mxCell>
        <mxCell id="TNq6oJo2LybHUcNiyFO0-10" value="GPIO" style="text;html=1;align=center;verticalAlign=middle;whiteSpace=wrap;rounded=0;" vertex="1" parent="1">
          <mxGeometry x="481.2" y="187" width="60" height="30" as="geometry" />
        </mxCell>
      </root>
    </mxGraphModel>
  </diagram>
  <diagram id="rmRYC74aDlaWJa3gDR5Y" name="Trang-3">
    <mxGraphModel dx="859" dy="921" grid="1" gridSize="10" guides="1" tooltips="1" connect="1" arrows="1" fold="1" page="1" pageScale="1" pageWidth="827" pageHeight="1169" math="0" shadow="0">
      <root>
        <mxCell id="0" />
        <mxCell id="1" parent="0" />
        <mxCell id="ZJ3ue7LIEVLItZDi3lzW-2" value="" style="rounded=1;whiteSpace=wrap;html=1;" parent="1" vertex="1">
          <mxGeometry x="141.2" y="430" width="120" height="150" as="geometry" />
        </mxCell>
        <mxCell id="ZJ3ue7LIEVLItZDi3lzW-3" value="" style="rounded=1;whiteSpace=wrap;html=1;" parent="1" vertex="1">
          <mxGeometry x="140" y="10" width="120" height="400" as="geometry" />
        </mxCell>
        <mxCell id="ZJ3ue7LIEVLItZDi3lzW-4" value="" style="rounded=1;whiteSpace=wrap;html=1;" parent="1" vertex="1">
          <mxGeometry x="500" y="23" width="240" height="497" as="geometry" />
        </mxCell>
        <mxCell id="ZJ3ue7LIEVLItZDi3lzW-5" value="ESP32" style="rounded=0;whiteSpace=wrap;html=1;direction=south;" parent="1" vertex="1">
          <mxGeometry x="320" y="40" width="120" height="560" as="geometry" />
        </mxCell>
        <mxCell id="ZJ3ue7LIEVLItZDi3lzW-6" value="" style="edgeStyle=orthogonalEdgeStyle;rounded=0;orthogonalLoop=1;jettySize=auto;html=1;" parent="1" source="ZJ3ue7LIEVLItZDi3lzW-7" edge="1">
          <mxGeometry relative="1" as="geometry">
            <mxPoint x="380" y="600" as="targetPoint" />
          </mxGeometry>
        </mxCell>
        <mxCell id="ZJ3ue7LIEVLItZDi3lzW-7" value="Power supply" style="rounded=0;whiteSpace=wrap;html=1;" parent="1" vertex="1">
          <mxGeometry x="320" y="640" width="120" height="40" as="geometry" />
        </mxCell>
        <mxCell id="ZJ3ue7LIEVLItZDi3lzW-13" value="OLED 0.96 inch&amp;nbsp;" style="rounded=0;whiteSpace=wrap;html=1;" parent="1" vertex="1">
          <mxGeometry x="520" y="40" width="120" height="40" as="geometry" />
        </mxCell>
        <mxCell id="ZJ3ue7LIEVLItZDi3lzW-15" value="I2C" style="text;html=1;align=center;verticalAlign=middle;whiteSpace=wrap;rounded=0;" parent="1" vertex="1">
          <mxGeometry x="440" y="39" width="60" height="30" as="geometry" />
        </mxCell>
        <mxCell id="ZJ3ue7LIEVLItZDi3lzW-29" value="Output2" style="text;html=1;align=center;verticalAlign=middle;whiteSpace=wrap;rounded=0;" parent="1" vertex="1">
          <mxGeometry x="661.2" y="50" width="60" height="30" as="geometry" />
        </mxCell>
        <mxCell id="ZJ3ue7LIEVLItZDi3lzW-30" value="DHT11 sensor" style="rounded=0;whiteSpace=wrap;html=1;" parent="1" vertex="1">
          <mxGeometry x="160" y="40" width="80" height="40" as="geometry" />
        </mxCell>
        <mxCell id="ZJ3ue7LIEVLItZDi3lzW-33" value="" style="endArrow=classic;html=1;rounded=0;exitX=0.698;exitY=-0.01;exitDx=0;exitDy=0;exitPerimeter=0;" parent="1" edge="1">
          <mxGeometry width="50" height="50" relative="1" as="geometry">
            <mxPoint x="240.00000000000006" y="59.63999999999993" as="sourcePoint" />
            <mxPoint x="318.8" y="60.04000000000002" as="targetPoint" />
          </mxGeometry>
        </mxCell>
        <mxCell id="ZJ3ue7LIEVLItZDi3lzW-36" value="1 Wire" style="text;html=1;align=center;verticalAlign=middle;whiteSpace=wrap;rounded=0;" parent="1" vertex="1">
          <mxGeometry x="250" y="30" width="60" height="30" as="geometry" />
        </mxCell>
        <mxCell id="ZJ3ue7LIEVLItZDi3lzW-39" value="BUTTON 1" style="rounded=0;whiteSpace=wrap;html=1;" parent="1" vertex="1">
          <mxGeometry x="161.2" y="440" width="80" height="40" as="geometry" />
        </mxCell>
        <mxCell id="ZJ3ue7LIEVLItZDi3lzW-40" value="" style="endArrow=classic;html=1;rounded=0;exitX=0.698;exitY=-0.01;exitDx=0;exitDy=0;exitPerimeter=0;" parent="1" edge="1">
          <mxGeometry width="50" height="50" relative="1" as="geometry">
            <mxPoint x="241.20000000000005" y="459.63999999999993" as="sourcePoint" />
            <mxPoint x="320" y="460.04" as="targetPoint" />
          </mxGeometry>
        </mxCell>
        <mxCell id="ZJ3ue7LIEVLItZDi3lzW-41" value="GPIO" style="text;html=1;align=center;verticalAlign=middle;whiteSpace=wrap;rounded=0;" parent="1" vertex="1">
          <mxGeometry x="251.2" y="430" width="60" height="30" as="geometry" />
        </mxCell>
        <mxCell id="ZJ3ue7LIEVLItZDi3lzW-42" value="BUTTON 2" style="rounded=0;whiteSpace=wrap;html=1;" parent="1" vertex="1">
          <mxGeometry x="161.2" y="517" width="80" height="40" as="geometry" />
        </mxCell>
        <mxCell id="ZJ3ue7LIEVLItZDi3lzW-43" value="" style="endArrow=classic;html=1;rounded=0;exitX=0.698;exitY=-0.01;exitDx=0;exitDy=0;exitPerimeter=0;" parent="1" edge="1">
          <mxGeometry width="50" height="50" relative="1" as="geometry">
            <mxPoint x="241.20000000000005" y="536.6399999999999" as="sourcePoint" />
            <mxPoint x="320" y="537.04" as="targetPoint" />
          </mxGeometry>
        </mxCell>
        <mxCell id="ZJ3ue7LIEVLItZDi3lzW-44" value="GPIO" style="text;html=1;align=center;verticalAlign=middle;whiteSpace=wrap;rounded=0;" parent="1" vertex="1">
          <mxGeometry x="251.2" y="507" width="60" height="30" as="geometry" />
        </mxCell>
        <mxCell id="ZJ3ue7LIEVLItZDi3lzW-45" value="Control2" style="text;html=1;align=center;verticalAlign=middle;whiteSpace=wrap;rounded=0;" parent="1" vertex="1">
          <mxGeometry x="171.2" y="480" width="60" height="30" as="geometry" />
        </mxCell>
        <mxCell id="ZJ3ue7LIEVLItZDi3lzW-46" value="Input2" style="text;html=1;align=center;verticalAlign=middle;whiteSpace=wrap;rounded=0;" parent="1" vertex="1">
          <mxGeometry x="170" y="10" width="60" height="30" as="geometry" />
        </mxCell>
        <mxCell id="ZJ3ue7LIEVLItZDi3lzW-48" value="" style="endArrow=classic;html=1;rounded=0;exitX=0.698;exitY=-0.01;exitDx=0;exitDy=0;exitPerimeter=0;" parent="1" edge="1">
          <mxGeometry width="50" height="50" relative="1" as="geometry">
            <mxPoint x="440.00000000000006" y="59.99999999999993" as="sourcePoint" />
            <mxPoint x="518.8" y="60.40000000000002" as="targetPoint" />
          </mxGeometry>
        </mxCell>
        <mxCell id="dyjtMw_uocN3GD0VA15I-1" value="PIR sensor" style="rounded=0;whiteSpace=wrap;html=1;" parent="1" vertex="1">
          <mxGeometry x="160" y="119" width="80" height="40" as="geometry" />
        </mxCell>
        <mxCell id="dyjtMw_uocN3GD0VA15I-2" value="Gas sensor" style="rounded=0;whiteSpace=wrap;html=1;" parent="1" vertex="1">
          <mxGeometry x="160" y="199" width="80" height="40" as="geometry" />
        </mxCell>
        <mxCell id="dyjtMw_uocN3GD0VA15I-3" value="" style="endArrow=classic;html=1;rounded=0;exitX=0.698;exitY=-0.01;exitDx=0;exitDy=0;exitPerimeter=0;" parent="1" edge="1">
          <mxGeometry width="50" height="50" relative="1" as="geometry">
            <mxPoint x="240.00000000000006" y="138.63999999999993" as="sourcePoint" />
            <mxPoint x="318.8" y="139.04000000000002" as="targetPoint" />
          </mxGeometry>
        </mxCell>
        <mxCell id="dyjtMw_uocN3GD0VA15I-4" value="" style="endArrow=classic;html=1;rounded=0;exitX=0.698;exitY=-0.01;exitDx=0;exitDy=0;exitPerimeter=0;" parent="1" edge="1">
          <mxGeometry width="50" height="50" relative="1" as="geometry">
            <mxPoint x="240.00000000000006" y="218.63999999999987" as="sourcePoint" />
            <mxPoint x="318.8" y="219.03999999999996" as="targetPoint" />
          </mxGeometry>
        </mxCell>
        <mxCell id="dyjtMw_uocN3GD0VA15I-5" value="ADC" style="text;html=1;align=center;verticalAlign=middle;whiteSpace=wrap;rounded=0;" parent="1" vertex="1">
          <mxGeometry x="250" y="109" width="60" height="30" as="geometry" />
        </mxCell>
        <mxCell id="dyjtMw_uocN3GD0VA15I-6" value="ADC" style="text;html=1;align=center;verticalAlign=middle;whiteSpace=wrap;rounded=0;" parent="1" vertex="1">
          <mxGeometry x="250" y="189" width="60" height="30" as="geometry" />
        </mxCell>
        <mxCell id="VpL7c8NJ9VxmpKWF_wma-1" value="Buzzer" style="rounded=0;whiteSpace=wrap;html=1;" parent="1" vertex="1">
          <mxGeometry x="519.46" y="440" width="80" height="40" as="geometry" />
        </mxCell>
        <mxCell id="VpL7c8NJ9VxmpKWF_wma-2" value="" style="endArrow=classic;html=1;rounded=0;exitX=0.875;exitY=0.001;exitDx=0;exitDy=0;exitPerimeter=0;" parent="1" edge="1">
          <mxGeometry width="50" height="50" relative="1" as="geometry">
            <mxPoint x="439.33999999999986" y="460" as="sourcePoint" />
            <mxPoint x="519.46" y="460" as="targetPoint" />
          </mxGeometry>
        </mxCell>
        <mxCell id="VpL7c8NJ9VxmpKWF_wma-3" value="GPIO" style="text;html=1;align=center;verticalAlign=middle;whiteSpace=wrap;rounded=0;" parent="1" vertex="1">
          <mxGeometry x="439.46000000000004" y="430" width="60" height="30" as="geometry" />
        </mxCell>
        <mxCell id="rixDxaarZ7V2M41Fqzpg-1" value="Light1" style="rounded=0;whiteSpace=wrap;html=1;" parent="1" vertex="1">
          <mxGeometry x="642.4" y="120" width="80" height="40" as="geometry" />
        </mxCell>
        <mxCell id="rixDxaarZ7V2M41Fqzpg-2" value="Fan1" style="rounded=0;whiteSpace=wrap;html=1;" parent="1" vertex="1">
          <mxGeometry x="642.4" y="199" width="80" height="40" as="geometry" />
        </mxCell>
        <mxCell id="rixDxaarZ7V2M41Fqzpg-3" value="Relay" style="rounded=1;whiteSpace=wrap;html=1;" parent="1" vertex="1">
          <mxGeometry x="520.4" y="120" width="82" height="40" as="geometry" />
        </mxCell>
        <mxCell id="rixDxaarZ7V2M41Fqzpg-4" value="" style="endArrow=classic;html=1;rounded=0;" parent="1" edge="1">
          <mxGeometry width="50" height="50" relative="1" as="geometry">
            <mxPoint x="442.4" y="140" as="sourcePoint" />
            <mxPoint x="520.4" y="139.74" as="targetPoint" />
          </mxGeometry>
        </mxCell>
        <mxCell id="rixDxaarZ7V2M41Fqzpg-5" value="Relay" style="rounded=1;whiteSpace=wrap;html=1;" parent="1" vertex="1">
          <mxGeometry x="520.4" y="199" width="82" height="40" as="geometry" />
        </mxCell>
        <mxCell id="rixDxaarZ7V2M41Fqzpg-6" value="" style="endArrow=classic;html=1;rounded=0;" parent="1" edge="1">
          <mxGeometry width="50" height="50" relative="1" as="geometry">
            <mxPoint x="442.4" y="219" as="sourcePoint" />
            <mxPoint x="520.4" y="218.74" as="targetPoint" />
          </mxGeometry>
        </mxCell>
        <mxCell id="rixDxaarZ7V2M41Fqzpg-7" value="" style="endArrow=classic;html=1;rounded=0;" parent="1" edge="1">
          <mxGeometry width="50" height="50" relative="1" as="geometry">
            <mxPoint x="603.3999999999999" y="139.74" as="sourcePoint" />
            <mxPoint x="642.4" y="139.74" as="targetPoint" />
          </mxGeometry>
        </mxCell>
        <mxCell id="rixDxaarZ7V2M41Fqzpg-8" value="" style="endArrow=classic;html=1;rounded=0;" parent="1" edge="1">
          <mxGeometry width="50" height="50" relative="1" as="geometry">
            <mxPoint x="602.3999999999999" y="218.92000000000007" as="sourcePoint" />
            <mxPoint x="641.4" y="218.92000000000007" as="targetPoint" />
          </mxGeometry>
        </mxCell>
        <mxCell id="rixDxaarZ7V2M41Fqzpg-9" value="GPIO" style="text;html=1;align=center;verticalAlign=middle;whiteSpace=wrap;rounded=0;" parent="1" vertex="1">
          <mxGeometry x="440" y="109" width="60" height="30" as="geometry" />
        </mxCell>
        <mxCell id="rixDxaarZ7V2M41Fqzpg-10" value="GPIO" style="text;html=1;align=center;verticalAlign=middle;whiteSpace=wrap;rounded=0;" parent="1" vertex="1">
          <mxGeometry x="440" y="189" width="60" height="30" as="geometry" />
        </mxCell>
        <mxCell id="rixDxaarZ7V2M41Fqzpg-11" value="Light2" style="rounded=0;whiteSpace=wrap;html=1;" parent="1" vertex="1">
          <mxGeometry x="641.1999999999999" y="281" width="80" height="40" as="geometry" />
        </mxCell>
        <mxCell id="rixDxaarZ7V2M41Fqzpg-12" value="Fan2" style="rounded=0;whiteSpace=wrap;html=1;" parent="1" vertex="1">
          <mxGeometry x="640.66" y="360" width="80" height="40" as="geometry" />
        </mxCell>
        <mxCell id="rixDxaarZ7V2M41Fqzpg-13" value="Relay" style="rounded=1;whiteSpace=wrap;html=1;" parent="1" vertex="1">
          <mxGeometry x="519.2" y="281" width="82" height="40" as="geometry" />
        </mxCell>
        <mxCell id="rixDxaarZ7V2M41Fqzpg-14" value="" style="endArrow=classic;html=1;rounded=0;" parent="1" edge="1">
          <mxGeometry width="50" height="50" relative="1" as="geometry">
            <mxPoint x="441.2" y="301" as="sourcePoint" />
            <mxPoint x="519.2" y="300.74" as="targetPoint" />
          </mxGeometry>
        </mxCell>
        <mxCell id="rixDxaarZ7V2M41Fqzpg-15" value="Relay" style="rounded=1;whiteSpace=wrap;html=1;" parent="1" vertex="1">
          <mxGeometry x="518.6600000000001" y="360" width="82" height="40" as="geometry" />
        </mxCell>
        <mxCell id="rixDxaarZ7V2M41Fqzpg-16" value="" style="endArrow=classic;html=1;rounded=0;" parent="1" edge="1">
          <mxGeometry width="50" height="50" relative="1" as="geometry">
            <mxPoint x="440.65999999999997" y="380" as="sourcePoint" />
            <mxPoint x="518.6600000000001" y="379.74" as="targetPoint" />
          </mxGeometry>
        </mxCell>
        <mxCell id="rixDxaarZ7V2M41Fqzpg-17" value="" style="endArrow=classic;html=1;rounded=0;" parent="1" edge="1">
          <mxGeometry width="50" height="50" relative="1" as="geometry">
            <mxPoint x="602.2" y="300.74" as="sourcePoint" />
            <mxPoint x="641.1999999999999" y="300.74" as="targetPoint" />
          </mxGeometry>
        </mxCell>
        <mxCell id="rixDxaarZ7V2M41Fqzpg-18" value="" style="endArrow=classic;html=1;rounded=0;" parent="1" edge="1">
          <mxGeometry width="50" height="50" relative="1" as="geometry">
            <mxPoint x="600.6600000000001" y="379.9200000000001" as="sourcePoint" />
            <mxPoint x="639.66" y="379.9200000000001" as="targetPoint" />
          </mxGeometry>
        </mxCell>
        <mxCell id="rixDxaarZ7V2M41Fqzpg-19" value="GPIO" style="text;html=1;align=center;verticalAlign=middle;whiteSpace=wrap;rounded=0;" parent="1" vertex="1">
          <mxGeometry x="440" y="271" width="60" height="30" as="geometry" />
        </mxCell>
        <mxCell id="rixDxaarZ7V2M41Fqzpg-20" value="GPIO" style="text;html=1;align=center;verticalAlign=middle;whiteSpace=wrap;rounded=0;" parent="1" vertex="1">
          <mxGeometry x="439.46" y="350" width="60" height="30" as="geometry" />
        </mxCell>
        <mxCell id="AI2w6aVGcOqXeoCGz9Da-1" value="ESP8266" style="rounded=0;whiteSpace=wrap;html=1;" parent="1" vertex="1">
          <mxGeometry x="161.2" y="360" width="80" height="40" as="geometry" />
        </mxCell>
        <mxCell id="AI2w6aVGcOqXeoCGz9Da-2" value="" style="endArrow=classic;html=1;rounded=0;exitX=0.698;exitY=-0.01;exitDx=0;exitDy=0;exitPerimeter=0;" parent="1" edge="1">
          <mxGeometry width="50" height="50" relative="1" as="geometry">
            <mxPoint x="241.20000000000005" y="379.6399999999999" as="sourcePoint" />
            <mxPoint x="320" y="380.03999999999996" as="targetPoint" />
          </mxGeometry>
        </mxCell>
        <mxCell id="AI2w6aVGcOqXeoCGz9Da-3" value="WIFI" style="text;html=1;align=center;verticalAlign=middle;whiteSpace=wrap;rounded=0;" parent="1" vertex="1">
          <mxGeometry x="251.2" y="350" width="60" height="30" as="geometry" />
        </mxCell>
        <mxCell id="HSy0H46m0NJLDkwKQyoA-1" value="Light sensor" style="rounded=0;whiteSpace=wrap;html=1;" vertex="1" parent="1">
          <mxGeometry x="161.2" y="281" width="80" height="40" as="geometry" />
        </mxCell>
        <mxCell id="HSy0H46m0NJLDkwKQyoA-2" value="" style="endArrow=classic;html=1;rounded=0;exitX=0.698;exitY=-0.01;exitDx=0;exitDy=0;exitPerimeter=0;" edge="1" parent="1">
          <mxGeometry width="50" height="50" relative="1" as="geometry">
            <mxPoint x="241.20000000000005" y="300.6399999999999" as="sourcePoint" />
            <mxPoint x="320" y="301.03999999999996" as="targetPoint" />
          </mxGeometry>
        </mxCell>
        <mxCell id="HSy0H46m0NJLDkwKQyoA-3" value="ADC" style="text;html=1;align=center;verticalAlign=middle;whiteSpace=wrap;rounded=0;" vertex="1" parent="1">
          <mxGeometry x="251.2" y="271" width="60" height="30" as="geometry" />
        </mxCell>
      </root>
    </mxGraphModel>
  </diagram>
</mxfile>
